%TF.GenerationSoftware,KiCad,Pcbnew,9.0.5*%
%TF.CreationDate,2025-10-17T16:28:27+07:00*%
%TF.ProjectId,Nokia 1202 breakout,4e6f6b69-6120-4313-9230-322062726561,rev?*%
%TF.SameCoordinates,Original*%
%TF.FileFunction,Legend,Bot*%
%TF.FilePolarity,Positive*%
%FSLAX46Y46*%
G04 Gerber Fmt 4.6, Leading zero omitted, Abs format (unit mm)*
G04 Created by KiCad (PCBNEW 9.0.5) date 2025-10-17 16:28:27*
%MOMM*%
%LPD*%
G01*
G04 APERTURE LIST*
%ADD10C,0.101600*%
%ADD11C,0.120000*%
G04 APERTURE END LIST*
D10*
X167589205Y-103840938D02*
X167422291Y-103896576D01*
X167422291Y-103896576D02*
X167144100Y-103896576D01*
X167144100Y-103896576D02*
X167032824Y-103840938D01*
X167032824Y-103840938D02*
X166977186Y-103785299D01*
X166977186Y-103785299D02*
X166921548Y-103674023D01*
X166921548Y-103674023D02*
X166921548Y-103562747D01*
X166921548Y-103562747D02*
X166977186Y-103451471D01*
X166977186Y-103451471D02*
X167032824Y-103395833D01*
X167032824Y-103395833D02*
X167144100Y-103340195D01*
X167144100Y-103340195D02*
X167366653Y-103284557D01*
X167366653Y-103284557D02*
X167477929Y-103228918D01*
X167477929Y-103228918D02*
X167533567Y-103173280D01*
X167533567Y-103173280D02*
X167589205Y-103062004D01*
X167589205Y-103062004D02*
X167589205Y-102950728D01*
X167589205Y-102950728D02*
X167533567Y-102839452D01*
X167533567Y-102839452D02*
X167477929Y-102783814D01*
X167477929Y-102783814D02*
X167366653Y-102728176D01*
X167366653Y-102728176D02*
X167088462Y-102728176D01*
X167088462Y-102728176D02*
X166921548Y-102783814D01*
X166420805Y-103117642D02*
X166420805Y-104286042D01*
X166420805Y-103173280D02*
X166309529Y-103117642D01*
X166309529Y-103117642D02*
X166086976Y-103117642D01*
X166086976Y-103117642D02*
X165975700Y-103173280D01*
X165975700Y-103173280D02*
X165920062Y-103228918D01*
X165920062Y-103228918D02*
X165864424Y-103340195D01*
X165864424Y-103340195D02*
X165864424Y-103674023D01*
X165864424Y-103674023D02*
X165920062Y-103785299D01*
X165920062Y-103785299D02*
X165975700Y-103840938D01*
X165975700Y-103840938D02*
X166086976Y-103896576D01*
X166086976Y-103896576D02*
X166309529Y-103896576D01*
X166309529Y-103896576D02*
X166420805Y-103840938D01*
X164862938Y-103896576D02*
X164862938Y-103284557D01*
X164862938Y-103284557D02*
X164918576Y-103173280D01*
X164918576Y-103173280D02*
X165029852Y-103117642D01*
X165029852Y-103117642D02*
X165252405Y-103117642D01*
X165252405Y-103117642D02*
X165363681Y-103173280D01*
X164862938Y-103840938D02*
X164974214Y-103896576D01*
X164974214Y-103896576D02*
X165252405Y-103896576D01*
X165252405Y-103896576D02*
X165363681Y-103840938D01*
X165363681Y-103840938D02*
X165419319Y-103729661D01*
X165419319Y-103729661D02*
X165419319Y-103618385D01*
X165419319Y-103618385D02*
X165363681Y-103507109D01*
X165363681Y-103507109D02*
X165252405Y-103451471D01*
X165252405Y-103451471D02*
X164974214Y-103451471D01*
X164974214Y-103451471D02*
X164862938Y-103395833D01*
X164306557Y-103896576D02*
X164306557Y-103117642D01*
X164306557Y-103340195D02*
X164250919Y-103228918D01*
X164250919Y-103228918D02*
X164195281Y-103173280D01*
X164195281Y-103173280D02*
X164084005Y-103117642D01*
X164084005Y-103117642D02*
X163972728Y-103117642D01*
X163583262Y-103896576D02*
X163583262Y-102728176D01*
X163471986Y-103451471D02*
X163138157Y-103896576D01*
X163138157Y-103117642D02*
X163583262Y-103562747D01*
X162804328Y-103117642D02*
X162359224Y-103117642D01*
X162637414Y-103896576D02*
X162637414Y-102895090D01*
X162637414Y-102895090D02*
X162581776Y-102783814D01*
X162581776Y-102783814D02*
X162470500Y-102728176D01*
X162470500Y-102728176D02*
X162359224Y-102728176D01*
X161469014Y-103117642D02*
X161469014Y-103896576D01*
X161969757Y-103117642D02*
X161969757Y-103729661D01*
X161969757Y-103729661D02*
X161914119Y-103840938D01*
X161914119Y-103840938D02*
X161802843Y-103896576D01*
X161802843Y-103896576D02*
X161635928Y-103896576D01*
X161635928Y-103896576D02*
X161524652Y-103840938D01*
X161524652Y-103840938D02*
X161469014Y-103785299D01*
X160912633Y-103117642D02*
X160912633Y-103896576D01*
X160912633Y-103228918D02*
X160856995Y-103173280D01*
X160856995Y-103173280D02*
X160745719Y-103117642D01*
X160745719Y-103117642D02*
X160578804Y-103117642D01*
X160578804Y-103117642D02*
X160467528Y-103173280D01*
X160467528Y-103173280D02*
X160411890Y-103284557D01*
X160411890Y-103284557D02*
X160411890Y-103896576D01*
X158965299Y-103896576D02*
X158965299Y-102728176D01*
X158965299Y-102728176D02*
X158297642Y-103896576D01*
X158297642Y-103896576D02*
X158297642Y-102728176D01*
X157574347Y-103896576D02*
X157685623Y-103840938D01*
X157685623Y-103840938D02*
X157741261Y-103785299D01*
X157741261Y-103785299D02*
X157796899Y-103674023D01*
X157796899Y-103674023D02*
X157796899Y-103340195D01*
X157796899Y-103340195D02*
X157741261Y-103228918D01*
X157741261Y-103228918D02*
X157685623Y-103173280D01*
X157685623Y-103173280D02*
X157574347Y-103117642D01*
X157574347Y-103117642D02*
X157407432Y-103117642D01*
X157407432Y-103117642D02*
X157296156Y-103173280D01*
X157296156Y-103173280D02*
X157240518Y-103228918D01*
X157240518Y-103228918D02*
X157184880Y-103340195D01*
X157184880Y-103340195D02*
X157184880Y-103674023D01*
X157184880Y-103674023D02*
X157240518Y-103785299D01*
X157240518Y-103785299D02*
X157296156Y-103840938D01*
X157296156Y-103840938D02*
X157407432Y-103896576D01*
X157407432Y-103896576D02*
X157574347Y-103896576D01*
X156684137Y-103896576D02*
X156684137Y-102728176D01*
X156572861Y-103451471D02*
X156239032Y-103896576D01*
X156239032Y-103117642D02*
X156684137Y-103562747D01*
X155738289Y-103896576D02*
X155738289Y-103117642D01*
X155738289Y-102728176D02*
X155793927Y-102783814D01*
X155793927Y-102783814D02*
X155738289Y-102839452D01*
X155738289Y-102839452D02*
X155682651Y-102783814D01*
X155682651Y-102783814D02*
X155738289Y-102728176D01*
X155738289Y-102728176D02*
X155738289Y-102839452D01*
X154681165Y-103896576D02*
X154681165Y-103284557D01*
X154681165Y-103284557D02*
X154736803Y-103173280D01*
X154736803Y-103173280D02*
X154848079Y-103117642D01*
X154848079Y-103117642D02*
X155070632Y-103117642D01*
X155070632Y-103117642D02*
X155181908Y-103173280D01*
X154681165Y-103840938D02*
X154792441Y-103896576D01*
X154792441Y-103896576D02*
X155070632Y-103896576D01*
X155070632Y-103896576D02*
X155181908Y-103840938D01*
X155181908Y-103840938D02*
X155237546Y-103729661D01*
X155237546Y-103729661D02*
X155237546Y-103618385D01*
X155237546Y-103618385D02*
X155181908Y-103507109D01*
X155181908Y-103507109D02*
X155070632Y-103451471D01*
X155070632Y-103451471D02*
X154792441Y-103451471D01*
X154792441Y-103451471D02*
X154681165Y-103395833D01*
X152678193Y-102728176D02*
X153234574Y-102728176D01*
X153234574Y-102728176D02*
X153290212Y-103284557D01*
X153290212Y-103284557D02*
X153234574Y-103228918D01*
X153234574Y-103228918D02*
X153123298Y-103173280D01*
X153123298Y-103173280D02*
X152845107Y-103173280D01*
X152845107Y-103173280D02*
X152733831Y-103228918D01*
X152733831Y-103228918D02*
X152678193Y-103284557D01*
X152678193Y-103284557D02*
X152622555Y-103395833D01*
X152622555Y-103395833D02*
X152622555Y-103674023D01*
X152622555Y-103674023D02*
X152678193Y-103785299D01*
X152678193Y-103785299D02*
X152733831Y-103840938D01*
X152733831Y-103840938D02*
X152845107Y-103896576D01*
X152845107Y-103896576D02*
X153123298Y-103896576D01*
X153123298Y-103896576D02*
X153234574Y-103840938D01*
X153234574Y-103840938D02*
X153290212Y-103785299D01*
X151509793Y-103896576D02*
X152177450Y-103896576D01*
X151843622Y-103896576D02*
X151843622Y-102728176D01*
X151843622Y-102728176D02*
X151954898Y-102895090D01*
X151954898Y-102895090D02*
X152066174Y-103006366D01*
X152066174Y-103006366D02*
X152177450Y-103062004D01*
X150397031Y-103896576D02*
X151064688Y-103896576D01*
X150730860Y-103896576D02*
X150730860Y-102728176D01*
X150730860Y-102728176D02*
X150842136Y-102895090D01*
X150842136Y-102895090D02*
X150953412Y-103006366D01*
X150953412Y-103006366D02*
X151064688Y-103062004D01*
X149673736Y-102728176D02*
X149562459Y-102728176D01*
X149562459Y-102728176D02*
X149451183Y-102783814D01*
X149451183Y-102783814D02*
X149395545Y-102839452D01*
X149395545Y-102839452D02*
X149339907Y-102950728D01*
X149339907Y-102950728D02*
X149284269Y-103173280D01*
X149284269Y-103173280D02*
X149284269Y-103451471D01*
X149284269Y-103451471D02*
X149339907Y-103674023D01*
X149339907Y-103674023D02*
X149395545Y-103785299D01*
X149395545Y-103785299D02*
X149451183Y-103840938D01*
X149451183Y-103840938D02*
X149562459Y-103896576D01*
X149562459Y-103896576D02*
X149673736Y-103896576D01*
X149673736Y-103896576D02*
X149785012Y-103840938D01*
X149785012Y-103840938D02*
X149840650Y-103785299D01*
X149840650Y-103785299D02*
X149896288Y-103674023D01*
X149896288Y-103674023D02*
X149951926Y-103451471D01*
X149951926Y-103451471D02*
X149951926Y-103173280D01*
X149951926Y-103173280D02*
X149896288Y-102950728D01*
X149896288Y-102950728D02*
X149840650Y-102839452D01*
X149840650Y-102839452D02*
X149785012Y-102783814D01*
X149785012Y-102783814D02*
X149673736Y-102728176D01*
X147893316Y-103896576D02*
X147893316Y-102728176D01*
X147893316Y-103173280D02*
X147782040Y-103117642D01*
X147782040Y-103117642D02*
X147559487Y-103117642D01*
X147559487Y-103117642D02*
X147448211Y-103173280D01*
X147448211Y-103173280D02*
X147392573Y-103228918D01*
X147392573Y-103228918D02*
X147336935Y-103340195D01*
X147336935Y-103340195D02*
X147336935Y-103674023D01*
X147336935Y-103674023D02*
X147392573Y-103785299D01*
X147392573Y-103785299D02*
X147448211Y-103840938D01*
X147448211Y-103840938D02*
X147559487Y-103896576D01*
X147559487Y-103896576D02*
X147782040Y-103896576D01*
X147782040Y-103896576D02*
X147893316Y-103840938D01*
X146836192Y-103896576D02*
X146836192Y-103117642D01*
X146836192Y-103340195D02*
X146780554Y-103228918D01*
X146780554Y-103228918D02*
X146724916Y-103173280D01*
X146724916Y-103173280D02*
X146613640Y-103117642D01*
X146613640Y-103117642D02*
X146502363Y-103117642D01*
X145667792Y-103840938D02*
X145779068Y-103896576D01*
X145779068Y-103896576D02*
X146001621Y-103896576D01*
X146001621Y-103896576D02*
X146112897Y-103840938D01*
X146112897Y-103840938D02*
X146168535Y-103729661D01*
X146168535Y-103729661D02*
X146168535Y-103284557D01*
X146168535Y-103284557D02*
X146112897Y-103173280D01*
X146112897Y-103173280D02*
X146001621Y-103117642D01*
X146001621Y-103117642D02*
X145779068Y-103117642D01*
X145779068Y-103117642D02*
X145667792Y-103173280D01*
X145667792Y-103173280D02*
X145612154Y-103284557D01*
X145612154Y-103284557D02*
X145612154Y-103395833D01*
X145612154Y-103395833D02*
X146168535Y-103507109D01*
X144610668Y-103896576D02*
X144610668Y-103284557D01*
X144610668Y-103284557D02*
X144666306Y-103173280D01*
X144666306Y-103173280D02*
X144777582Y-103117642D01*
X144777582Y-103117642D02*
X145000135Y-103117642D01*
X145000135Y-103117642D02*
X145111411Y-103173280D01*
X144610668Y-103840938D02*
X144721944Y-103896576D01*
X144721944Y-103896576D02*
X145000135Y-103896576D01*
X145000135Y-103896576D02*
X145111411Y-103840938D01*
X145111411Y-103840938D02*
X145167049Y-103729661D01*
X145167049Y-103729661D02*
X145167049Y-103618385D01*
X145167049Y-103618385D02*
X145111411Y-103507109D01*
X145111411Y-103507109D02*
X145000135Y-103451471D01*
X145000135Y-103451471D02*
X144721944Y-103451471D01*
X144721944Y-103451471D02*
X144610668Y-103395833D01*
X144054287Y-103896576D02*
X144054287Y-102728176D01*
X143943011Y-103451471D02*
X143609182Y-103896576D01*
X143609182Y-103117642D02*
X144054287Y-103562747D01*
X142941525Y-103896576D02*
X143052801Y-103840938D01*
X143052801Y-103840938D02*
X143108439Y-103785299D01*
X143108439Y-103785299D02*
X143164077Y-103674023D01*
X143164077Y-103674023D02*
X143164077Y-103340195D01*
X143164077Y-103340195D02*
X143108439Y-103228918D01*
X143108439Y-103228918D02*
X143052801Y-103173280D01*
X143052801Y-103173280D02*
X142941525Y-103117642D01*
X142941525Y-103117642D02*
X142774610Y-103117642D01*
X142774610Y-103117642D02*
X142663334Y-103173280D01*
X142663334Y-103173280D02*
X142607696Y-103228918D01*
X142607696Y-103228918D02*
X142552058Y-103340195D01*
X142552058Y-103340195D02*
X142552058Y-103674023D01*
X142552058Y-103674023D02*
X142607696Y-103785299D01*
X142607696Y-103785299D02*
X142663334Y-103840938D01*
X142663334Y-103840938D02*
X142774610Y-103896576D01*
X142774610Y-103896576D02*
X142941525Y-103896576D01*
X141550572Y-103117642D02*
X141550572Y-103896576D01*
X142051315Y-103117642D02*
X142051315Y-103729661D01*
X142051315Y-103729661D02*
X141995677Y-103840938D01*
X141995677Y-103840938D02*
X141884401Y-103896576D01*
X141884401Y-103896576D02*
X141717486Y-103896576D01*
X141717486Y-103896576D02*
X141606210Y-103840938D01*
X141606210Y-103840938D02*
X141550572Y-103785299D01*
X141161105Y-103117642D02*
X140716001Y-103117642D01*
X140994191Y-102728176D02*
X140994191Y-103729661D01*
X140994191Y-103729661D02*
X140938553Y-103840938D01*
X140938553Y-103840938D02*
X140827277Y-103896576D01*
X140827277Y-103896576D02*
X140716001Y-103896576D01*
X139436324Y-103896576D02*
X139436324Y-102728176D01*
X139436324Y-103173280D02*
X139325048Y-103117642D01*
X139325048Y-103117642D02*
X139102495Y-103117642D01*
X139102495Y-103117642D02*
X138991219Y-103173280D01*
X138991219Y-103173280D02*
X138935581Y-103228918D01*
X138935581Y-103228918D02*
X138879943Y-103340195D01*
X138879943Y-103340195D02*
X138879943Y-103674023D01*
X138879943Y-103674023D02*
X138935581Y-103785299D01*
X138935581Y-103785299D02*
X138991219Y-103840938D01*
X138991219Y-103840938D02*
X139102495Y-103896576D01*
X139102495Y-103896576D02*
X139325048Y-103896576D01*
X139325048Y-103896576D02*
X139436324Y-103840938D01*
X137878457Y-103117642D02*
X137878457Y-103896576D01*
X138379200Y-103117642D02*
X138379200Y-103729661D01*
X138379200Y-103729661D02*
X138323562Y-103840938D01*
X138323562Y-103840938D02*
X138212286Y-103896576D01*
X138212286Y-103896576D02*
X138045371Y-103896576D01*
X138045371Y-103896576D02*
X137934095Y-103840938D01*
X137934095Y-103840938D02*
X137878457Y-103785299D01*
X137488990Y-103117642D02*
X137043886Y-103117642D01*
X137322076Y-102728176D02*
X137322076Y-103729661D01*
X137322076Y-103729661D02*
X137266438Y-103840938D01*
X137266438Y-103840938D02*
X137155162Y-103896576D01*
X137155162Y-103896576D02*
X137043886Y-103896576D01*
X157582031Y-122265403D02*
X157637669Y-122376679D01*
X157637669Y-122376679D02*
X157693307Y-122432317D01*
X157693307Y-122432317D02*
X157804583Y-122487955D01*
X157804583Y-122487955D02*
X157860221Y-122487955D01*
X157860221Y-122487955D02*
X157971497Y-122432317D01*
X157971497Y-122432317D02*
X158027135Y-122376679D01*
X158027135Y-122376679D02*
X158082773Y-122265403D01*
X158082773Y-122265403D02*
X158082773Y-122042850D01*
X158082773Y-122042850D02*
X158027135Y-121931574D01*
X158027135Y-121931574D02*
X157971497Y-121875936D01*
X157971497Y-121875936D02*
X157860221Y-121820298D01*
X157860221Y-121820298D02*
X157804583Y-121820298D01*
X157804583Y-121820298D02*
X157693307Y-121875936D01*
X157693307Y-121875936D02*
X157637669Y-121931574D01*
X157637669Y-121931574D02*
X157582031Y-122042850D01*
X157582031Y-122042850D02*
X157582031Y-122265403D01*
X157582031Y-122265403D02*
X157526392Y-122376679D01*
X157526392Y-122376679D02*
X157470754Y-122432317D01*
X157470754Y-122432317D02*
X157359478Y-122487955D01*
X157359478Y-122487955D02*
X157136926Y-122487955D01*
X157136926Y-122487955D02*
X157025650Y-122432317D01*
X157025650Y-122432317D02*
X156970012Y-122376679D01*
X156970012Y-122376679D02*
X156914373Y-122265403D01*
X156914373Y-122265403D02*
X156914373Y-122042850D01*
X156914373Y-122042850D02*
X156970012Y-121931574D01*
X156970012Y-121931574D02*
X157025650Y-121875936D01*
X157025650Y-121875936D02*
X157136926Y-121820298D01*
X157136926Y-121820298D02*
X157359478Y-121820298D01*
X157359478Y-121820298D02*
X157470754Y-121875936D01*
X157470754Y-121875936D02*
X157526392Y-121931574D01*
X157526392Y-121931574D02*
X157582031Y-122042850D01*
X156914373Y-119872964D02*
X156914373Y-120429345D01*
X156914373Y-120429345D02*
X158082773Y-120429345D01*
X157526392Y-119483497D02*
X157526392Y-119094030D01*
X156914373Y-118927116D02*
X156914373Y-119483497D01*
X156914373Y-119483497D02*
X158082773Y-119483497D01*
X158082773Y-119483497D02*
X158082773Y-118927116D01*
X156914373Y-118426373D02*
X158082773Y-118426373D01*
X158082773Y-118426373D02*
X158082773Y-118148183D01*
X158082773Y-118148183D02*
X158027135Y-117981268D01*
X158027135Y-117981268D02*
X157915859Y-117869992D01*
X157915859Y-117869992D02*
X157804583Y-117814354D01*
X157804583Y-117814354D02*
X157582031Y-117758716D01*
X157582031Y-117758716D02*
X157415116Y-117758716D01*
X157415116Y-117758716D02*
X157192564Y-117814354D01*
X157192564Y-117814354D02*
X157081288Y-117869992D01*
X157081288Y-117869992D02*
X156970012Y-117981268D01*
X156970012Y-117981268D02*
X156914373Y-118148183D01*
X156914373Y-118148183D02*
X156914373Y-118426373D01*
X145382773Y-122543593D02*
X145382773Y-121820298D01*
X145382773Y-121820298D02*
X144937669Y-122209765D01*
X144937669Y-122209765D02*
X144937669Y-122042850D01*
X144937669Y-122042850D02*
X144882031Y-121931574D01*
X144882031Y-121931574D02*
X144826392Y-121875936D01*
X144826392Y-121875936D02*
X144715116Y-121820298D01*
X144715116Y-121820298D02*
X144436926Y-121820298D01*
X144436926Y-121820298D02*
X144325650Y-121875936D01*
X144325650Y-121875936D02*
X144270012Y-121931574D01*
X144270012Y-121931574D02*
X144214373Y-122042850D01*
X144214373Y-122042850D02*
X144214373Y-122376679D01*
X144214373Y-122376679D02*
X144270012Y-122487955D01*
X144270012Y-122487955D02*
X144325650Y-122543593D01*
X144659478Y-120596259D02*
X144715116Y-120540621D01*
X144715116Y-120540621D02*
X144770754Y-120429345D01*
X144770754Y-120429345D02*
X144659478Y-120206793D01*
X144659478Y-120206793D02*
X144715116Y-120095516D01*
X144715116Y-120095516D02*
X144770754Y-120039878D01*
X144325650Y-118927117D02*
X144270012Y-118982755D01*
X144270012Y-118982755D02*
X144214373Y-119149669D01*
X144214373Y-119149669D02*
X144214373Y-119260945D01*
X144214373Y-119260945D02*
X144270012Y-119427860D01*
X144270012Y-119427860D02*
X144381288Y-119539136D01*
X144381288Y-119539136D02*
X144492564Y-119594774D01*
X144492564Y-119594774D02*
X144715116Y-119650412D01*
X144715116Y-119650412D02*
X144882031Y-119650412D01*
X144882031Y-119650412D02*
X145104583Y-119594774D01*
X145104583Y-119594774D02*
X145215859Y-119539136D01*
X145215859Y-119539136D02*
X145327135Y-119427860D01*
X145327135Y-119427860D02*
X145382773Y-119260945D01*
X145382773Y-119260945D02*
X145382773Y-119149669D01*
X145382773Y-119149669D02*
X145327135Y-118982755D01*
X145327135Y-118982755D02*
X145271497Y-118927117D01*
X144270012Y-118482012D02*
X144214373Y-118315098D01*
X144214373Y-118315098D02*
X144214373Y-118036907D01*
X144214373Y-118036907D02*
X144270012Y-117925631D01*
X144270012Y-117925631D02*
X144325650Y-117869993D01*
X144325650Y-117869993D02*
X144436926Y-117814355D01*
X144436926Y-117814355D02*
X144548202Y-117814355D01*
X144548202Y-117814355D02*
X144659478Y-117869993D01*
X144659478Y-117869993D02*
X144715116Y-117925631D01*
X144715116Y-117925631D02*
X144770754Y-118036907D01*
X144770754Y-118036907D02*
X144826392Y-118259460D01*
X144826392Y-118259460D02*
X144882031Y-118370736D01*
X144882031Y-118370736D02*
X144937669Y-118426374D01*
X144937669Y-118426374D02*
X145048945Y-118482012D01*
X145048945Y-118482012D02*
X145160221Y-118482012D01*
X145160221Y-118482012D02*
X145271497Y-118426374D01*
X145271497Y-118426374D02*
X145327135Y-118370736D01*
X145327135Y-118370736D02*
X145382773Y-118259460D01*
X145382773Y-118259460D02*
X145382773Y-117981269D01*
X145382773Y-117981269D02*
X145327135Y-117814355D01*
X155542773Y-122543593D02*
X155542773Y-121764660D01*
X155542773Y-121764660D02*
X154374373Y-122265403D01*
X154430012Y-120484983D02*
X154374373Y-120318069D01*
X154374373Y-120318069D02*
X154374373Y-120039878D01*
X154374373Y-120039878D02*
X154430012Y-119928602D01*
X154430012Y-119928602D02*
X154485650Y-119872964D01*
X154485650Y-119872964D02*
X154596926Y-119817326D01*
X154596926Y-119817326D02*
X154708202Y-119817326D01*
X154708202Y-119817326D02*
X154819478Y-119872964D01*
X154819478Y-119872964D02*
X154875116Y-119928602D01*
X154875116Y-119928602D02*
X154930754Y-120039878D01*
X154930754Y-120039878D02*
X154986392Y-120262431D01*
X154986392Y-120262431D02*
X155042031Y-120373707D01*
X155042031Y-120373707D02*
X155097669Y-120429345D01*
X155097669Y-120429345D02*
X155208945Y-120484983D01*
X155208945Y-120484983D02*
X155320221Y-120484983D01*
X155320221Y-120484983D02*
X155431497Y-120429345D01*
X155431497Y-120429345D02*
X155487135Y-120373707D01*
X155487135Y-120373707D02*
X155542773Y-120262431D01*
X155542773Y-120262431D02*
X155542773Y-119984240D01*
X155542773Y-119984240D02*
X155487135Y-119817326D01*
X154485650Y-118648926D02*
X154430012Y-118704564D01*
X154430012Y-118704564D02*
X154374373Y-118871478D01*
X154374373Y-118871478D02*
X154374373Y-118982754D01*
X154374373Y-118982754D02*
X154430012Y-119149669D01*
X154430012Y-119149669D02*
X154541288Y-119260945D01*
X154541288Y-119260945D02*
X154652564Y-119316583D01*
X154652564Y-119316583D02*
X154875116Y-119372221D01*
X154875116Y-119372221D02*
X155042031Y-119372221D01*
X155042031Y-119372221D02*
X155264583Y-119316583D01*
X155264583Y-119316583D02*
X155375859Y-119260945D01*
X155375859Y-119260945D02*
X155487135Y-119149669D01*
X155487135Y-119149669D02*
X155542773Y-118982754D01*
X155542773Y-118982754D02*
X155542773Y-118871478D01*
X155542773Y-118871478D02*
X155487135Y-118704564D01*
X155487135Y-118704564D02*
X155431497Y-118648926D01*
X154374373Y-117591802D02*
X154374373Y-118148183D01*
X154374373Y-118148183D02*
X155542773Y-118148183D01*
X154374373Y-117202335D02*
X155542773Y-117202335D01*
X154374373Y-116534678D02*
X155042031Y-117035421D01*
X155542773Y-116534678D02*
X154875116Y-117202335D01*
X153002773Y-121931574D02*
X153002773Y-122154127D01*
X153002773Y-122154127D02*
X152947135Y-122265403D01*
X152947135Y-122265403D02*
X152891497Y-122321041D01*
X152891497Y-122321041D02*
X152724583Y-122432317D01*
X152724583Y-122432317D02*
X152502031Y-122487955D01*
X152502031Y-122487955D02*
X152056926Y-122487955D01*
X152056926Y-122487955D02*
X151945650Y-122432317D01*
X151945650Y-122432317D02*
X151890012Y-122376679D01*
X151890012Y-122376679D02*
X151834373Y-122265403D01*
X151834373Y-122265403D02*
X151834373Y-122042850D01*
X151834373Y-122042850D02*
X151890012Y-121931574D01*
X151890012Y-121931574D02*
X151945650Y-121875936D01*
X151945650Y-121875936D02*
X152056926Y-121820298D01*
X152056926Y-121820298D02*
X152335116Y-121820298D01*
X152335116Y-121820298D02*
X152446392Y-121875936D01*
X152446392Y-121875936D02*
X152502031Y-121931574D01*
X152502031Y-121931574D02*
X152557669Y-122042850D01*
X152557669Y-122042850D02*
X152557669Y-122265403D01*
X152557669Y-122265403D02*
X152502031Y-122376679D01*
X152502031Y-122376679D02*
X152446392Y-122432317D01*
X152446392Y-122432317D02*
X152335116Y-122487955D01*
X151834373Y-120429345D02*
X153002773Y-120429345D01*
X153002773Y-120429345D02*
X152168202Y-120039878D01*
X152168202Y-120039878D02*
X153002773Y-119650412D01*
X153002773Y-119650412D02*
X151834373Y-119650412D01*
X153002773Y-118871479D02*
X153002773Y-118648926D01*
X153002773Y-118648926D02*
X152947135Y-118537650D01*
X152947135Y-118537650D02*
X152835859Y-118426374D01*
X152835859Y-118426374D02*
X152613307Y-118370736D01*
X152613307Y-118370736D02*
X152223840Y-118370736D01*
X152223840Y-118370736D02*
X152001288Y-118426374D01*
X152001288Y-118426374D02*
X151890012Y-118537650D01*
X151890012Y-118537650D02*
X151834373Y-118648926D01*
X151834373Y-118648926D02*
X151834373Y-118871479D01*
X151834373Y-118871479D02*
X151890012Y-118982755D01*
X151890012Y-118982755D02*
X152001288Y-119094031D01*
X152001288Y-119094031D02*
X152223840Y-119149669D01*
X152223840Y-119149669D02*
X152613307Y-119149669D01*
X152613307Y-119149669D02*
X152835859Y-119094031D01*
X152835859Y-119094031D02*
X152947135Y-118982755D01*
X152947135Y-118982755D02*
X153002773Y-118871479D01*
X151890012Y-117925631D02*
X151834373Y-117758717D01*
X151834373Y-117758717D02*
X151834373Y-117480526D01*
X151834373Y-117480526D02*
X151890012Y-117369250D01*
X151890012Y-117369250D02*
X151945650Y-117313612D01*
X151945650Y-117313612D02*
X152056926Y-117257974D01*
X152056926Y-117257974D02*
X152168202Y-117257974D01*
X152168202Y-117257974D02*
X152279478Y-117313612D01*
X152279478Y-117313612D02*
X152335116Y-117369250D01*
X152335116Y-117369250D02*
X152390754Y-117480526D01*
X152390754Y-117480526D02*
X152446392Y-117703079D01*
X152446392Y-117703079D02*
X152502031Y-117814355D01*
X152502031Y-117814355D02*
X152557669Y-117869993D01*
X152557669Y-117869993D02*
X152668945Y-117925631D01*
X152668945Y-117925631D02*
X152780221Y-117925631D01*
X152780221Y-117925631D02*
X152891497Y-117869993D01*
X152891497Y-117869993D02*
X152947135Y-117814355D01*
X152947135Y-117814355D02*
X153002773Y-117703079D01*
X153002773Y-117703079D02*
X153002773Y-117424888D01*
X153002773Y-117424888D02*
X152947135Y-117257974D01*
X151834373Y-116757231D02*
X153002773Y-116757231D01*
X167032824Y-105022642D02*
X167032824Y-105801576D01*
X167533567Y-105022642D02*
X167533567Y-105634661D01*
X167533567Y-105634661D02*
X167477929Y-105745938D01*
X167477929Y-105745938D02*
X167366653Y-105801576D01*
X167366653Y-105801576D02*
X167199738Y-105801576D01*
X167199738Y-105801576D02*
X167088462Y-105745938D01*
X167088462Y-105745938D02*
X167032824Y-105690299D01*
X166532081Y-105745938D02*
X166420805Y-105801576D01*
X166420805Y-105801576D02*
X166198253Y-105801576D01*
X166198253Y-105801576D02*
X166086976Y-105745938D01*
X166086976Y-105745938D02*
X166031338Y-105634661D01*
X166031338Y-105634661D02*
X166031338Y-105579023D01*
X166031338Y-105579023D02*
X166086976Y-105467747D01*
X166086976Y-105467747D02*
X166198253Y-105412109D01*
X166198253Y-105412109D02*
X166365167Y-105412109D01*
X166365167Y-105412109D02*
X166476443Y-105356471D01*
X166476443Y-105356471D02*
X166532081Y-105245195D01*
X166532081Y-105245195D02*
X166532081Y-105189557D01*
X166532081Y-105189557D02*
X166476443Y-105078280D01*
X166476443Y-105078280D02*
X166365167Y-105022642D01*
X166365167Y-105022642D02*
X166198253Y-105022642D01*
X166198253Y-105022642D02*
X166086976Y-105078280D01*
X165085490Y-105745938D02*
X165196766Y-105801576D01*
X165196766Y-105801576D02*
X165419319Y-105801576D01*
X165419319Y-105801576D02*
X165530595Y-105745938D01*
X165530595Y-105745938D02*
X165586233Y-105634661D01*
X165586233Y-105634661D02*
X165586233Y-105189557D01*
X165586233Y-105189557D02*
X165530595Y-105078280D01*
X165530595Y-105078280D02*
X165419319Y-105022642D01*
X165419319Y-105022642D02*
X165196766Y-105022642D01*
X165196766Y-105022642D02*
X165085490Y-105078280D01*
X165085490Y-105078280D02*
X165029852Y-105189557D01*
X165029852Y-105189557D02*
X165029852Y-105300833D01*
X165029852Y-105300833D02*
X165586233Y-105412109D01*
X164584747Y-105745938D02*
X164473471Y-105801576D01*
X164473471Y-105801576D02*
X164250919Y-105801576D01*
X164250919Y-105801576D02*
X164139642Y-105745938D01*
X164139642Y-105745938D02*
X164084004Y-105634661D01*
X164084004Y-105634661D02*
X164084004Y-105579023D01*
X164084004Y-105579023D02*
X164139642Y-105467747D01*
X164139642Y-105467747D02*
X164250919Y-105412109D01*
X164250919Y-105412109D02*
X164417833Y-105412109D01*
X164417833Y-105412109D02*
X164529109Y-105356471D01*
X164529109Y-105356471D02*
X164584747Y-105245195D01*
X164584747Y-105245195D02*
X164584747Y-105189557D01*
X164584747Y-105189557D02*
X164529109Y-105078280D01*
X164529109Y-105078280D02*
X164417833Y-105022642D01*
X164417833Y-105022642D02*
X164250919Y-105022642D01*
X164250919Y-105022642D02*
X164139642Y-105078280D01*
X162637413Y-105801576D02*
X162414861Y-105801576D01*
X162414861Y-105801576D02*
X162303584Y-105745938D01*
X162303584Y-105745938D02*
X162247946Y-105690299D01*
X162247946Y-105690299D02*
X162136670Y-105523385D01*
X162136670Y-105523385D02*
X162081032Y-105300833D01*
X162081032Y-105300833D02*
X162081032Y-104855728D01*
X162081032Y-104855728D02*
X162136670Y-104744452D01*
X162136670Y-104744452D02*
X162192308Y-104688814D01*
X162192308Y-104688814D02*
X162303584Y-104633176D01*
X162303584Y-104633176D02*
X162526137Y-104633176D01*
X162526137Y-104633176D02*
X162637413Y-104688814D01*
X162637413Y-104688814D02*
X162693051Y-104744452D01*
X162693051Y-104744452D02*
X162748689Y-104855728D01*
X162748689Y-104855728D02*
X162748689Y-105133918D01*
X162748689Y-105133918D02*
X162693051Y-105245195D01*
X162693051Y-105245195D02*
X162637413Y-105300833D01*
X162637413Y-105300833D02*
X162526137Y-105356471D01*
X162526137Y-105356471D02*
X162303584Y-105356471D01*
X162303584Y-105356471D02*
X162192308Y-105300833D01*
X162192308Y-105300833D02*
X162136670Y-105245195D01*
X162136670Y-105245195D02*
X162081032Y-105133918D01*
X161580289Y-105801576D02*
X161580289Y-104633176D01*
X161580289Y-105078280D02*
X161469013Y-105022642D01*
X161469013Y-105022642D02*
X161246460Y-105022642D01*
X161246460Y-105022642D02*
X161135184Y-105078280D01*
X161135184Y-105078280D02*
X161079546Y-105133918D01*
X161079546Y-105133918D02*
X161023908Y-105245195D01*
X161023908Y-105245195D02*
X161023908Y-105579023D01*
X161023908Y-105579023D02*
X161079546Y-105690299D01*
X161079546Y-105690299D02*
X161135184Y-105745938D01*
X161135184Y-105745938D02*
X161246460Y-105801576D01*
X161246460Y-105801576D02*
X161469013Y-105801576D01*
X161469013Y-105801576D02*
X161580289Y-105745938D01*
X160523165Y-105801576D02*
X160523165Y-105022642D01*
X160523165Y-104633176D02*
X160578803Y-104688814D01*
X160578803Y-104688814D02*
X160523165Y-104744452D01*
X160523165Y-104744452D02*
X160467527Y-104688814D01*
X160467527Y-104688814D02*
X160523165Y-104633176D01*
X160523165Y-104633176D02*
X160523165Y-104744452D01*
X160133698Y-105022642D02*
X159688594Y-105022642D01*
X159966784Y-104633176D02*
X159966784Y-105634661D01*
X159966784Y-105634661D02*
X159911146Y-105745938D01*
X159911146Y-105745938D02*
X159799870Y-105801576D01*
X159799870Y-105801576D02*
X159688594Y-105801576D01*
X158464555Y-105745938D02*
X158297641Y-105801576D01*
X158297641Y-105801576D02*
X158019450Y-105801576D01*
X158019450Y-105801576D02*
X157908174Y-105745938D01*
X157908174Y-105745938D02*
X157852536Y-105690299D01*
X157852536Y-105690299D02*
X157796898Y-105579023D01*
X157796898Y-105579023D02*
X157796898Y-105467747D01*
X157796898Y-105467747D02*
X157852536Y-105356471D01*
X157852536Y-105356471D02*
X157908174Y-105300833D01*
X157908174Y-105300833D02*
X158019450Y-105245195D01*
X158019450Y-105245195D02*
X158242003Y-105189557D01*
X158242003Y-105189557D02*
X158353279Y-105133918D01*
X158353279Y-105133918D02*
X158408917Y-105078280D01*
X158408917Y-105078280D02*
X158464555Y-104967004D01*
X158464555Y-104967004D02*
X158464555Y-104855728D01*
X158464555Y-104855728D02*
X158408917Y-104744452D01*
X158408917Y-104744452D02*
X158353279Y-104688814D01*
X158353279Y-104688814D02*
X158242003Y-104633176D01*
X158242003Y-104633176D02*
X157963812Y-104633176D01*
X157963812Y-104633176D02*
X157796898Y-104688814D01*
X157296155Y-105801576D02*
X157296155Y-104633176D01*
X157296155Y-104633176D02*
X156851050Y-104633176D01*
X156851050Y-104633176D02*
X156739774Y-104688814D01*
X156739774Y-104688814D02*
X156684136Y-104744452D01*
X156684136Y-104744452D02*
X156628498Y-104855728D01*
X156628498Y-104855728D02*
X156628498Y-105022642D01*
X156628498Y-105022642D02*
X156684136Y-105133918D01*
X156684136Y-105133918D02*
X156739774Y-105189557D01*
X156739774Y-105189557D02*
X156851050Y-105245195D01*
X156851050Y-105245195D02*
X157296155Y-105245195D01*
X156127755Y-105801576D02*
X156127755Y-104633176D01*
X154681164Y-105801576D02*
X154681164Y-104633176D01*
X154180421Y-105801576D02*
X154180421Y-105189557D01*
X154180421Y-105189557D02*
X154236059Y-105078280D01*
X154236059Y-105078280D02*
X154347335Y-105022642D01*
X154347335Y-105022642D02*
X154514250Y-105022642D01*
X154514250Y-105022642D02*
X154625526Y-105078280D01*
X154625526Y-105078280D02*
X154681164Y-105133918D01*
X153178935Y-105745938D02*
X153290211Y-105801576D01*
X153290211Y-105801576D02*
X153512764Y-105801576D01*
X153512764Y-105801576D02*
X153624040Y-105745938D01*
X153624040Y-105745938D02*
X153679678Y-105634661D01*
X153679678Y-105634661D02*
X153679678Y-105189557D01*
X153679678Y-105189557D02*
X153624040Y-105078280D01*
X153624040Y-105078280D02*
X153512764Y-105022642D01*
X153512764Y-105022642D02*
X153290211Y-105022642D01*
X153290211Y-105022642D02*
X153178935Y-105078280D01*
X153178935Y-105078280D02*
X153123297Y-105189557D01*
X153123297Y-105189557D02*
X153123297Y-105300833D01*
X153123297Y-105300833D02*
X153679678Y-105412109D01*
X152622554Y-105022642D02*
X152622554Y-105801576D01*
X152622554Y-105133918D02*
X152566916Y-105078280D01*
X152566916Y-105078280D02*
X152455640Y-105022642D01*
X152455640Y-105022642D02*
X152288725Y-105022642D01*
X152288725Y-105022642D02*
X152177449Y-105078280D01*
X152177449Y-105078280D02*
X152121811Y-105189557D01*
X152121811Y-105189557D02*
X152121811Y-105801576D01*
X151064687Y-105745938D02*
X151175963Y-105801576D01*
X151175963Y-105801576D02*
X151398516Y-105801576D01*
X151398516Y-105801576D02*
X151509792Y-105745938D01*
X151509792Y-105745938D02*
X151565430Y-105690299D01*
X151565430Y-105690299D02*
X151621068Y-105579023D01*
X151621068Y-105579023D02*
X151621068Y-105245195D01*
X151621068Y-105245195D02*
X151565430Y-105133918D01*
X151565430Y-105133918D02*
X151509792Y-105078280D01*
X151509792Y-105078280D02*
X151398516Y-105022642D01*
X151398516Y-105022642D02*
X151175963Y-105022642D01*
X151175963Y-105022642D02*
X151064687Y-105078280D01*
X150118839Y-105745938D02*
X150230115Y-105801576D01*
X150230115Y-105801576D02*
X150452668Y-105801576D01*
X150452668Y-105801576D02*
X150563944Y-105745938D01*
X150563944Y-105745938D02*
X150619582Y-105634661D01*
X150619582Y-105634661D02*
X150619582Y-105189557D01*
X150619582Y-105189557D02*
X150563944Y-105078280D01*
X150563944Y-105078280D02*
X150452668Y-105022642D01*
X150452668Y-105022642D02*
X150230115Y-105022642D01*
X150230115Y-105022642D02*
X150118839Y-105078280D01*
X150118839Y-105078280D02*
X150063201Y-105189557D01*
X150063201Y-105189557D02*
X150063201Y-105300833D01*
X150063201Y-105300833D02*
X150619582Y-105412109D01*
X148672248Y-105022642D02*
X148672248Y-106191042D01*
X148672248Y-105078280D02*
X148560972Y-105022642D01*
X148560972Y-105022642D02*
X148338419Y-105022642D01*
X148338419Y-105022642D02*
X148227143Y-105078280D01*
X148227143Y-105078280D02*
X148171505Y-105133918D01*
X148171505Y-105133918D02*
X148115867Y-105245195D01*
X148115867Y-105245195D02*
X148115867Y-105579023D01*
X148115867Y-105579023D02*
X148171505Y-105690299D01*
X148171505Y-105690299D02*
X148227143Y-105745938D01*
X148227143Y-105745938D02*
X148338419Y-105801576D01*
X148338419Y-105801576D02*
X148560972Y-105801576D01*
X148560972Y-105801576D02*
X148672248Y-105745938D01*
X147615124Y-105801576D02*
X147615124Y-105022642D01*
X147615124Y-104633176D02*
X147670762Y-104688814D01*
X147670762Y-104688814D02*
X147615124Y-104744452D01*
X147615124Y-104744452D02*
X147559486Y-104688814D01*
X147559486Y-104688814D02*
X147615124Y-104633176D01*
X147615124Y-104633176D02*
X147615124Y-104744452D01*
X147058743Y-105022642D02*
X147058743Y-105801576D01*
X147058743Y-105133918D02*
X147003105Y-105078280D01*
X147003105Y-105078280D02*
X146891829Y-105022642D01*
X146891829Y-105022642D02*
X146724914Y-105022642D01*
X146724914Y-105022642D02*
X146613638Y-105078280D01*
X146613638Y-105078280D02*
X146558000Y-105189557D01*
X146558000Y-105189557D02*
X146558000Y-105801576D01*
X144555028Y-104633176D02*
X145111409Y-104633176D01*
X145111409Y-104633176D02*
X145167047Y-105189557D01*
X145167047Y-105189557D02*
X145111409Y-105133918D01*
X145111409Y-105133918D02*
X145000133Y-105078280D01*
X145000133Y-105078280D02*
X144721942Y-105078280D01*
X144721942Y-105078280D02*
X144610666Y-105133918D01*
X144610666Y-105133918D02*
X144555028Y-105189557D01*
X144555028Y-105189557D02*
X144499390Y-105300833D01*
X144499390Y-105300833D02*
X144499390Y-105579023D01*
X144499390Y-105579023D02*
X144555028Y-105690299D01*
X144555028Y-105690299D02*
X144610666Y-105745938D01*
X144610666Y-105745938D02*
X144721942Y-105801576D01*
X144721942Y-105801576D02*
X145000133Y-105801576D01*
X145000133Y-105801576D02*
X145111409Y-105745938D01*
X145111409Y-105745938D02*
X145167047Y-105690299D01*
X143108437Y-105801576D02*
X143108437Y-105022642D01*
X143108437Y-104633176D02*
X143164075Y-104688814D01*
X143164075Y-104688814D02*
X143108437Y-104744452D01*
X143108437Y-104744452D02*
X143052799Y-104688814D01*
X143052799Y-104688814D02*
X143108437Y-104633176D01*
X143108437Y-104633176D02*
X143108437Y-104744452D01*
X142607694Y-105745938D02*
X142496418Y-105801576D01*
X142496418Y-105801576D02*
X142273866Y-105801576D01*
X142273866Y-105801576D02*
X142162589Y-105745938D01*
X142162589Y-105745938D02*
X142106951Y-105634661D01*
X142106951Y-105634661D02*
X142106951Y-105579023D01*
X142106951Y-105579023D02*
X142162589Y-105467747D01*
X142162589Y-105467747D02*
X142273866Y-105412109D01*
X142273866Y-105412109D02*
X142440780Y-105412109D01*
X142440780Y-105412109D02*
X142552056Y-105356471D01*
X142552056Y-105356471D02*
X142607694Y-105245195D01*
X142607694Y-105245195D02*
X142607694Y-105189557D01*
X142607694Y-105189557D02*
X142552056Y-105078280D01*
X142552056Y-105078280D02*
X142440780Y-105022642D01*
X142440780Y-105022642D02*
X142273866Y-105022642D01*
X142273866Y-105022642D02*
X142162589Y-105078280D01*
X140715998Y-105801576D02*
X140715998Y-104633176D01*
X140715998Y-104633176D02*
X140048341Y-105801576D01*
X140048341Y-105801576D02*
X140048341Y-104633176D01*
X138657389Y-104577538D02*
X139658874Y-106079766D01*
X137600265Y-105690299D02*
X137655903Y-105745938D01*
X137655903Y-105745938D02*
X137822817Y-105801576D01*
X137822817Y-105801576D02*
X137934093Y-105801576D01*
X137934093Y-105801576D02*
X138101008Y-105745938D01*
X138101008Y-105745938D02*
X138212284Y-105634661D01*
X138212284Y-105634661D02*
X138267922Y-105523385D01*
X138267922Y-105523385D02*
X138323560Y-105300833D01*
X138323560Y-105300833D02*
X138323560Y-105133918D01*
X138323560Y-105133918D02*
X138267922Y-104911366D01*
X138267922Y-104911366D02*
X138212284Y-104800090D01*
X138212284Y-104800090D02*
X138101008Y-104688814D01*
X138101008Y-104688814D02*
X137934093Y-104633176D01*
X137934093Y-104633176D02*
X137822817Y-104633176D01*
X137822817Y-104633176D02*
X137655903Y-104688814D01*
X137655903Y-104688814D02*
X137600265Y-104744452D01*
X139451873Y-121820298D02*
X139451873Y-122487955D01*
X139451873Y-122154127D02*
X140620273Y-122154127D01*
X140620273Y-122154127D02*
X140453359Y-122265403D01*
X140453359Y-122265403D02*
X140342083Y-122376679D01*
X140342083Y-122376679D02*
X140286445Y-122487955D01*
X140620273Y-120596259D02*
X139451873Y-120206793D01*
X139451873Y-120206793D02*
X140620273Y-119817326D01*
X139563150Y-118760202D02*
X139507512Y-118815840D01*
X139507512Y-118815840D02*
X139451873Y-118982754D01*
X139451873Y-118982754D02*
X139451873Y-119094030D01*
X139451873Y-119094030D02*
X139507512Y-119260945D01*
X139507512Y-119260945D02*
X139618788Y-119372221D01*
X139618788Y-119372221D02*
X139730064Y-119427859D01*
X139730064Y-119427859D02*
X139952616Y-119483497D01*
X139952616Y-119483497D02*
X140119531Y-119483497D01*
X140119531Y-119483497D02*
X140342083Y-119427859D01*
X140342083Y-119427859D02*
X140453359Y-119372221D01*
X140453359Y-119372221D02*
X140564635Y-119260945D01*
X140564635Y-119260945D02*
X140620273Y-119094030D01*
X140620273Y-119094030D02*
X140620273Y-118982754D01*
X140620273Y-118982754D02*
X140564635Y-118815840D01*
X140564635Y-118815840D02*
X140508997Y-118760202D01*
X139563150Y-117591802D02*
X139507512Y-117647440D01*
X139507512Y-117647440D02*
X139451873Y-117814354D01*
X139451873Y-117814354D02*
X139451873Y-117925630D01*
X139451873Y-117925630D02*
X139507512Y-118092545D01*
X139507512Y-118092545D02*
X139618788Y-118203821D01*
X139618788Y-118203821D02*
X139730064Y-118259459D01*
X139730064Y-118259459D02*
X139952616Y-118315097D01*
X139952616Y-118315097D02*
X140119531Y-118315097D01*
X140119531Y-118315097D02*
X140342083Y-118259459D01*
X140342083Y-118259459D02*
X140453359Y-118203821D01*
X140453359Y-118203821D02*
X140564635Y-118092545D01*
X140564635Y-118092545D02*
X140620273Y-117925630D01*
X140620273Y-117925630D02*
X140620273Y-117814354D01*
X140620273Y-117814354D02*
X140564635Y-117647440D01*
X140564635Y-117647440D02*
X140508997Y-117591802D01*
X167366653Y-110881576D02*
X167477929Y-110825938D01*
X167477929Y-110825938D02*
X167533567Y-110770299D01*
X167533567Y-110770299D02*
X167589205Y-110659023D01*
X167589205Y-110659023D02*
X167589205Y-110325195D01*
X167589205Y-110325195D02*
X167533567Y-110213918D01*
X167533567Y-110213918D02*
X167477929Y-110158280D01*
X167477929Y-110158280D02*
X167366653Y-110102642D01*
X167366653Y-110102642D02*
X167199738Y-110102642D01*
X167199738Y-110102642D02*
X167088462Y-110158280D01*
X167088462Y-110158280D02*
X167032824Y-110213918D01*
X167032824Y-110213918D02*
X166977186Y-110325195D01*
X166977186Y-110325195D02*
X166977186Y-110659023D01*
X166977186Y-110659023D02*
X167032824Y-110770299D01*
X167032824Y-110770299D02*
X167088462Y-110825938D01*
X167088462Y-110825938D02*
X167199738Y-110881576D01*
X167199738Y-110881576D02*
X167366653Y-110881576D01*
X166476443Y-110881576D02*
X166476443Y-110102642D01*
X166476443Y-110325195D02*
X166420805Y-110213918D01*
X166420805Y-110213918D02*
X166365167Y-110158280D01*
X166365167Y-110158280D02*
X166253891Y-110102642D01*
X166253891Y-110102642D02*
X166142614Y-110102642D01*
X165029852Y-110102642D02*
X164584748Y-110102642D01*
X164862938Y-109713176D02*
X164862938Y-110714661D01*
X164862938Y-110714661D02*
X164807300Y-110825938D01*
X164807300Y-110825938D02*
X164696024Y-110881576D01*
X164696024Y-110881576D02*
X164584748Y-110881576D01*
X164195281Y-110881576D02*
X164195281Y-110102642D01*
X164195281Y-110325195D02*
X164139643Y-110213918D01*
X164139643Y-110213918D02*
X164084005Y-110158280D01*
X164084005Y-110158280D02*
X163972729Y-110102642D01*
X163972729Y-110102642D02*
X163861452Y-110102642D01*
X162971243Y-110881576D02*
X162971243Y-110269557D01*
X162971243Y-110269557D02*
X163026881Y-110158280D01*
X163026881Y-110158280D02*
X163138157Y-110102642D01*
X163138157Y-110102642D02*
X163360710Y-110102642D01*
X163360710Y-110102642D02*
X163471986Y-110158280D01*
X162971243Y-110825938D02*
X163082519Y-110881576D01*
X163082519Y-110881576D02*
X163360710Y-110881576D01*
X163360710Y-110881576D02*
X163471986Y-110825938D01*
X163471986Y-110825938D02*
X163527624Y-110714661D01*
X163527624Y-110714661D02*
X163527624Y-110603385D01*
X163527624Y-110603385D02*
X163471986Y-110492109D01*
X163471986Y-110492109D02*
X163360710Y-110436471D01*
X163360710Y-110436471D02*
X163082519Y-110436471D01*
X163082519Y-110436471D02*
X162971243Y-110380833D01*
X162414862Y-110102642D02*
X162414862Y-110881576D01*
X162414862Y-110213918D02*
X162359224Y-110158280D01*
X162359224Y-110158280D02*
X162247948Y-110102642D01*
X162247948Y-110102642D02*
X162081033Y-110102642D01*
X162081033Y-110102642D02*
X161969757Y-110158280D01*
X161969757Y-110158280D02*
X161914119Y-110269557D01*
X161914119Y-110269557D02*
X161914119Y-110881576D01*
X161413376Y-110825938D02*
X161302100Y-110881576D01*
X161302100Y-110881576D02*
X161079548Y-110881576D01*
X161079548Y-110881576D02*
X160968271Y-110825938D01*
X160968271Y-110825938D02*
X160912633Y-110714661D01*
X160912633Y-110714661D02*
X160912633Y-110659023D01*
X160912633Y-110659023D02*
X160968271Y-110547747D01*
X160968271Y-110547747D02*
X161079548Y-110492109D01*
X161079548Y-110492109D02*
X161246462Y-110492109D01*
X161246462Y-110492109D02*
X161357738Y-110436471D01*
X161357738Y-110436471D02*
X161413376Y-110325195D01*
X161413376Y-110325195D02*
X161413376Y-110269557D01*
X161413376Y-110269557D02*
X161357738Y-110158280D01*
X161357738Y-110158280D02*
X161246462Y-110102642D01*
X161246462Y-110102642D02*
X161079548Y-110102642D01*
X161079548Y-110102642D02*
X160968271Y-110158280D01*
X160411890Y-110881576D02*
X160411890Y-110102642D01*
X160411890Y-109713176D02*
X160467528Y-109768814D01*
X160467528Y-109768814D02*
X160411890Y-109824452D01*
X160411890Y-109824452D02*
X160356252Y-109768814D01*
X160356252Y-109768814D02*
X160411890Y-109713176D01*
X160411890Y-109713176D02*
X160411890Y-109824452D01*
X159911147Y-110825938D02*
X159799871Y-110881576D01*
X159799871Y-110881576D02*
X159577319Y-110881576D01*
X159577319Y-110881576D02*
X159466042Y-110825938D01*
X159466042Y-110825938D02*
X159410404Y-110714661D01*
X159410404Y-110714661D02*
X159410404Y-110659023D01*
X159410404Y-110659023D02*
X159466042Y-110547747D01*
X159466042Y-110547747D02*
X159577319Y-110492109D01*
X159577319Y-110492109D02*
X159744233Y-110492109D01*
X159744233Y-110492109D02*
X159855509Y-110436471D01*
X159855509Y-110436471D02*
X159911147Y-110325195D01*
X159911147Y-110325195D02*
X159911147Y-110269557D01*
X159911147Y-110269557D02*
X159855509Y-110158280D01*
X159855509Y-110158280D02*
X159744233Y-110102642D01*
X159744233Y-110102642D02*
X159577319Y-110102642D01*
X159577319Y-110102642D02*
X159466042Y-110158280D01*
X159076575Y-110102642D02*
X158631471Y-110102642D01*
X158909661Y-109713176D02*
X158909661Y-110714661D01*
X158909661Y-110714661D02*
X158854023Y-110825938D01*
X158854023Y-110825938D02*
X158742747Y-110881576D01*
X158742747Y-110881576D02*
X158631471Y-110881576D01*
X158075090Y-110881576D02*
X158186366Y-110825938D01*
X158186366Y-110825938D02*
X158242004Y-110770299D01*
X158242004Y-110770299D02*
X158297642Y-110659023D01*
X158297642Y-110659023D02*
X158297642Y-110325195D01*
X158297642Y-110325195D02*
X158242004Y-110213918D01*
X158242004Y-110213918D02*
X158186366Y-110158280D01*
X158186366Y-110158280D02*
X158075090Y-110102642D01*
X158075090Y-110102642D02*
X157908175Y-110102642D01*
X157908175Y-110102642D02*
X157796899Y-110158280D01*
X157796899Y-110158280D02*
X157741261Y-110213918D01*
X157741261Y-110213918D02*
X157685623Y-110325195D01*
X157685623Y-110325195D02*
X157685623Y-110659023D01*
X157685623Y-110659023D02*
X157741261Y-110770299D01*
X157741261Y-110770299D02*
X157796899Y-110825938D01*
X157796899Y-110825938D02*
X157908175Y-110881576D01*
X157908175Y-110881576D02*
X158075090Y-110881576D01*
X157184880Y-110881576D02*
X157184880Y-110102642D01*
X157184880Y-110325195D02*
X157129242Y-110213918D01*
X157129242Y-110213918D02*
X157073604Y-110158280D01*
X157073604Y-110158280D02*
X156962328Y-110102642D01*
X156962328Y-110102642D02*
X156851051Y-110102642D01*
X155571375Y-110881576D02*
X155571375Y-109713176D01*
X155571375Y-110158280D02*
X155460099Y-110102642D01*
X155460099Y-110102642D02*
X155237546Y-110102642D01*
X155237546Y-110102642D02*
X155126270Y-110158280D01*
X155126270Y-110158280D02*
X155070632Y-110213918D01*
X155070632Y-110213918D02*
X155014994Y-110325195D01*
X155014994Y-110325195D02*
X155014994Y-110659023D01*
X155014994Y-110659023D02*
X155070632Y-110770299D01*
X155070632Y-110770299D02*
X155126270Y-110825938D01*
X155126270Y-110825938D02*
X155237546Y-110881576D01*
X155237546Y-110881576D02*
X155460099Y-110881576D01*
X155460099Y-110881576D02*
X155571375Y-110825938D01*
X154013508Y-110881576D02*
X154013508Y-110269557D01*
X154013508Y-110269557D02*
X154069146Y-110158280D01*
X154069146Y-110158280D02*
X154180422Y-110102642D01*
X154180422Y-110102642D02*
X154402975Y-110102642D01*
X154402975Y-110102642D02*
X154514251Y-110158280D01*
X154013508Y-110825938D02*
X154124784Y-110881576D01*
X154124784Y-110881576D02*
X154402975Y-110881576D01*
X154402975Y-110881576D02*
X154514251Y-110825938D01*
X154514251Y-110825938D02*
X154569889Y-110714661D01*
X154569889Y-110714661D02*
X154569889Y-110603385D01*
X154569889Y-110603385D02*
X154514251Y-110492109D01*
X154514251Y-110492109D02*
X154402975Y-110436471D01*
X154402975Y-110436471D02*
X154124784Y-110436471D01*
X154124784Y-110436471D02*
X154013508Y-110380833D01*
X153512765Y-110825938D02*
X153401489Y-110881576D01*
X153401489Y-110881576D02*
X153178937Y-110881576D01*
X153178937Y-110881576D02*
X153067660Y-110825938D01*
X153067660Y-110825938D02*
X153012022Y-110714661D01*
X153012022Y-110714661D02*
X153012022Y-110659023D01*
X153012022Y-110659023D02*
X153067660Y-110547747D01*
X153067660Y-110547747D02*
X153178937Y-110492109D01*
X153178937Y-110492109D02*
X153345851Y-110492109D01*
X153345851Y-110492109D02*
X153457127Y-110436471D01*
X153457127Y-110436471D02*
X153512765Y-110325195D01*
X153512765Y-110325195D02*
X153512765Y-110269557D01*
X153512765Y-110269557D02*
X153457127Y-110158280D01*
X153457127Y-110158280D02*
X153345851Y-110102642D01*
X153345851Y-110102642D02*
X153178937Y-110102642D01*
X153178937Y-110102642D02*
X153067660Y-110158280D01*
X152066174Y-110825938D02*
X152177450Y-110881576D01*
X152177450Y-110881576D02*
X152400003Y-110881576D01*
X152400003Y-110881576D02*
X152511279Y-110825938D01*
X152511279Y-110825938D02*
X152566917Y-110714661D01*
X152566917Y-110714661D02*
X152566917Y-110269557D01*
X152566917Y-110269557D02*
X152511279Y-110158280D01*
X152511279Y-110158280D02*
X152400003Y-110102642D01*
X152400003Y-110102642D02*
X152177450Y-110102642D01*
X152177450Y-110102642D02*
X152066174Y-110158280D01*
X152066174Y-110158280D02*
X152010536Y-110269557D01*
X152010536Y-110269557D02*
X152010536Y-110380833D01*
X152010536Y-110380833D02*
X152566917Y-110492109D01*
X151509793Y-110770299D02*
X151454155Y-110825938D01*
X151454155Y-110825938D02*
X151509793Y-110881576D01*
X151509793Y-110881576D02*
X151565431Y-110825938D01*
X151565431Y-110825938D02*
X151509793Y-110770299D01*
X151509793Y-110770299D02*
X151509793Y-110881576D01*
X167533567Y-108976576D02*
X167533567Y-107808176D01*
X167533567Y-107808176D02*
X167088462Y-107808176D01*
X167088462Y-107808176D02*
X166977186Y-107863814D01*
X166977186Y-107863814D02*
X166921548Y-107919452D01*
X166921548Y-107919452D02*
X166865910Y-108030728D01*
X166865910Y-108030728D02*
X166865910Y-108197642D01*
X166865910Y-108197642D02*
X166921548Y-108308918D01*
X166921548Y-108308918D02*
X166977186Y-108364557D01*
X166977186Y-108364557D02*
X167088462Y-108420195D01*
X167088462Y-108420195D02*
X167533567Y-108420195D01*
X166365167Y-108976576D02*
X166365167Y-108197642D01*
X166365167Y-107808176D02*
X166420805Y-107863814D01*
X166420805Y-107863814D02*
X166365167Y-107919452D01*
X166365167Y-107919452D02*
X166309529Y-107863814D01*
X166309529Y-107863814D02*
X166365167Y-107808176D01*
X166365167Y-107808176D02*
X166365167Y-107919452D01*
X165808786Y-108197642D02*
X165808786Y-108976576D01*
X165808786Y-108308918D02*
X165753148Y-108253280D01*
X165753148Y-108253280D02*
X165641872Y-108197642D01*
X165641872Y-108197642D02*
X165474957Y-108197642D01*
X165474957Y-108197642D02*
X165363681Y-108253280D01*
X165363681Y-108253280D02*
X165308043Y-108364557D01*
X165308043Y-108364557D02*
X165308043Y-108976576D01*
X163694538Y-108308918D02*
X163805814Y-108253280D01*
X163805814Y-108253280D02*
X163861452Y-108197642D01*
X163861452Y-108197642D02*
X163917090Y-108086366D01*
X163917090Y-108086366D02*
X163917090Y-108030728D01*
X163917090Y-108030728D02*
X163861452Y-107919452D01*
X163861452Y-107919452D02*
X163805814Y-107863814D01*
X163805814Y-107863814D02*
X163694538Y-107808176D01*
X163694538Y-107808176D02*
X163471985Y-107808176D01*
X163471985Y-107808176D02*
X163360709Y-107863814D01*
X163360709Y-107863814D02*
X163305071Y-107919452D01*
X163305071Y-107919452D02*
X163249433Y-108030728D01*
X163249433Y-108030728D02*
X163249433Y-108086366D01*
X163249433Y-108086366D02*
X163305071Y-108197642D01*
X163305071Y-108197642D02*
X163360709Y-108253280D01*
X163360709Y-108253280D02*
X163471985Y-108308918D01*
X163471985Y-108308918D02*
X163694538Y-108308918D01*
X163694538Y-108308918D02*
X163805814Y-108364557D01*
X163805814Y-108364557D02*
X163861452Y-108420195D01*
X163861452Y-108420195D02*
X163917090Y-108531471D01*
X163917090Y-108531471D02*
X163917090Y-108754023D01*
X163917090Y-108754023D02*
X163861452Y-108865299D01*
X163861452Y-108865299D02*
X163805814Y-108920938D01*
X163805814Y-108920938D02*
X163694538Y-108976576D01*
X163694538Y-108976576D02*
X163471985Y-108976576D01*
X163471985Y-108976576D02*
X163360709Y-108920938D01*
X163360709Y-108920938D02*
X163305071Y-108865299D01*
X163305071Y-108865299D02*
X163249433Y-108754023D01*
X163249433Y-108754023D02*
X163249433Y-108531471D01*
X163249433Y-108531471D02*
X163305071Y-108420195D01*
X163305071Y-108420195D02*
X163360709Y-108364557D01*
X163360709Y-108364557D02*
X163471985Y-108308918D01*
X161524651Y-109421680D02*
X161580290Y-109366042D01*
X161580290Y-109366042D02*
X161691566Y-109199128D01*
X161691566Y-109199128D02*
X161747204Y-109087852D01*
X161747204Y-109087852D02*
X161802842Y-108920938D01*
X161802842Y-108920938D02*
X161858480Y-108642747D01*
X161858480Y-108642747D02*
X161858480Y-108420195D01*
X161858480Y-108420195D02*
X161802842Y-108142004D01*
X161802842Y-108142004D02*
X161747204Y-107975090D01*
X161747204Y-107975090D02*
X161691566Y-107863814D01*
X161691566Y-107863814D02*
X161580290Y-107696899D01*
X161580290Y-107696899D02*
X161524651Y-107641261D01*
X160523166Y-108976576D02*
X161079547Y-108976576D01*
X161079547Y-108976576D02*
X161079547Y-107808176D01*
X160133699Y-108364557D02*
X159744232Y-108364557D01*
X159577318Y-108976576D02*
X160133699Y-108976576D01*
X160133699Y-108976576D02*
X160133699Y-107808176D01*
X160133699Y-107808176D02*
X159577318Y-107808176D01*
X159076575Y-108976576D02*
X159076575Y-107808176D01*
X159076575Y-107808176D02*
X158798385Y-107808176D01*
X158798385Y-107808176D02*
X158631470Y-107863814D01*
X158631470Y-107863814D02*
X158520194Y-107975090D01*
X158520194Y-107975090D02*
X158464556Y-108086366D01*
X158464556Y-108086366D02*
X158408918Y-108308918D01*
X158408918Y-108308918D02*
X158408918Y-108475833D01*
X158408918Y-108475833D02*
X158464556Y-108698385D01*
X158464556Y-108698385D02*
X158520194Y-108809661D01*
X158520194Y-108809661D02*
X158631470Y-108920938D01*
X158631470Y-108920938D02*
X158798385Y-108976576D01*
X158798385Y-108976576D02*
X159076575Y-108976576D01*
X156628498Y-108364557D02*
X156461584Y-108420195D01*
X156461584Y-108420195D02*
X156405946Y-108475833D01*
X156405946Y-108475833D02*
X156350308Y-108587109D01*
X156350308Y-108587109D02*
X156350308Y-108754023D01*
X156350308Y-108754023D02*
X156405946Y-108865299D01*
X156405946Y-108865299D02*
X156461584Y-108920938D01*
X156461584Y-108920938D02*
X156572860Y-108976576D01*
X156572860Y-108976576D02*
X157017965Y-108976576D01*
X157017965Y-108976576D02*
X157017965Y-107808176D01*
X157017965Y-107808176D02*
X156628498Y-107808176D01*
X156628498Y-107808176D02*
X156517222Y-107863814D01*
X156517222Y-107863814D02*
X156461584Y-107919452D01*
X156461584Y-107919452D02*
X156405946Y-108030728D01*
X156405946Y-108030728D02*
X156405946Y-108142004D01*
X156405946Y-108142004D02*
X156461584Y-108253280D01*
X156461584Y-108253280D02*
X156517222Y-108308918D01*
X156517222Y-108308918D02*
X156628498Y-108364557D01*
X156628498Y-108364557D02*
X157017965Y-108364557D01*
X155293184Y-108976576D02*
X155849565Y-108976576D01*
X155849565Y-108976576D02*
X155849565Y-107808176D01*
X155014993Y-109421680D02*
X154959355Y-109366042D01*
X154959355Y-109366042D02*
X154848079Y-109199128D01*
X154848079Y-109199128D02*
X154792441Y-109087852D01*
X154792441Y-109087852D02*
X154736803Y-108920938D01*
X154736803Y-108920938D02*
X154681165Y-108642747D01*
X154681165Y-108642747D02*
X154681165Y-108420195D01*
X154681165Y-108420195D02*
X154736803Y-108142004D01*
X154736803Y-108142004D02*
X154792441Y-107975090D01*
X154792441Y-107975090D02*
X154848079Y-107863814D01*
X154848079Y-107863814D02*
X154959355Y-107696899D01*
X154959355Y-107696899D02*
X155014993Y-107641261D01*
X152733831Y-108920938D02*
X152845107Y-108976576D01*
X152845107Y-108976576D02*
X153067660Y-108976576D01*
X153067660Y-108976576D02*
X153178936Y-108920938D01*
X153178936Y-108920938D02*
X153234574Y-108865299D01*
X153234574Y-108865299D02*
X153290212Y-108754023D01*
X153290212Y-108754023D02*
X153290212Y-108420195D01*
X153290212Y-108420195D02*
X153234574Y-108308918D01*
X153234574Y-108308918D02*
X153178936Y-108253280D01*
X153178936Y-108253280D02*
X153067660Y-108197642D01*
X153067660Y-108197642D02*
X152845107Y-108197642D01*
X152845107Y-108197642D02*
X152733831Y-108253280D01*
X151732345Y-108976576D02*
X151732345Y-108364557D01*
X151732345Y-108364557D02*
X151787983Y-108253280D01*
X151787983Y-108253280D02*
X151899259Y-108197642D01*
X151899259Y-108197642D02*
X152121812Y-108197642D01*
X152121812Y-108197642D02*
X152233088Y-108253280D01*
X151732345Y-108920938D02*
X151843621Y-108976576D01*
X151843621Y-108976576D02*
X152121812Y-108976576D01*
X152121812Y-108976576D02*
X152233088Y-108920938D01*
X152233088Y-108920938D02*
X152288726Y-108809661D01*
X152288726Y-108809661D02*
X152288726Y-108698385D01*
X152288726Y-108698385D02*
X152233088Y-108587109D01*
X152233088Y-108587109D02*
X152121812Y-108531471D01*
X152121812Y-108531471D02*
X151843621Y-108531471D01*
X151843621Y-108531471D02*
X151732345Y-108475833D01*
X151175964Y-108197642D02*
X151175964Y-108976576D01*
X151175964Y-108308918D02*
X151120326Y-108253280D01*
X151120326Y-108253280D02*
X151009050Y-108197642D01*
X151009050Y-108197642D02*
X150842135Y-108197642D01*
X150842135Y-108197642D02*
X150730859Y-108253280D01*
X150730859Y-108253280D02*
X150675221Y-108364557D01*
X150675221Y-108364557D02*
X150675221Y-108976576D01*
X149228630Y-108976576D02*
X149228630Y-107808176D01*
X149228630Y-108253280D02*
X149117354Y-108197642D01*
X149117354Y-108197642D02*
X148894801Y-108197642D01*
X148894801Y-108197642D02*
X148783525Y-108253280D01*
X148783525Y-108253280D02*
X148727887Y-108308918D01*
X148727887Y-108308918D02*
X148672249Y-108420195D01*
X148672249Y-108420195D02*
X148672249Y-108754023D01*
X148672249Y-108754023D02*
X148727887Y-108865299D01*
X148727887Y-108865299D02*
X148783525Y-108920938D01*
X148783525Y-108920938D02*
X148894801Y-108976576D01*
X148894801Y-108976576D02*
X149117354Y-108976576D01*
X149117354Y-108976576D02*
X149228630Y-108920938D01*
X147726401Y-108920938D02*
X147837677Y-108976576D01*
X147837677Y-108976576D02*
X148060230Y-108976576D01*
X148060230Y-108976576D02*
X148171506Y-108920938D01*
X148171506Y-108920938D02*
X148227144Y-108809661D01*
X148227144Y-108809661D02*
X148227144Y-108364557D01*
X148227144Y-108364557D02*
X148171506Y-108253280D01*
X148171506Y-108253280D02*
X148060230Y-108197642D01*
X148060230Y-108197642D02*
X147837677Y-108197642D01*
X147837677Y-108197642D02*
X147726401Y-108253280D01*
X147726401Y-108253280D02*
X147670763Y-108364557D01*
X147670763Y-108364557D02*
X147670763Y-108475833D01*
X147670763Y-108475833D02*
X148227144Y-108587109D01*
X145723429Y-108976576D02*
X146279810Y-108976576D01*
X146279810Y-108976576D02*
X146279810Y-107808176D01*
X145333962Y-108364557D02*
X144944495Y-108364557D01*
X144777581Y-108976576D02*
X145333962Y-108976576D01*
X145333962Y-108976576D02*
X145333962Y-107808176D01*
X145333962Y-107808176D02*
X144777581Y-107808176D01*
X144276838Y-108976576D02*
X144276838Y-107808176D01*
X144276838Y-107808176D02*
X143998648Y-107808176D01*
X143998648Y-107808176D02*
X143831733Y-107863814D01*
X143831733Y-107863814D02*
X143720457Y-107975090D01*
X143720457Y-107975090D02*
X143664819Y-108086366D01*
X143664819Y-108086366D02*
X143609181Y-108308918D01*
X143609181Y-108308918D02*
X143609181Y-108475833D01*
X143609181Y-108475833D02*
X143664819Y-108698385D01*
X143664819Y-108698385D02*
X143720457Y-108809661D01*
X143720457Y-108809661D02*
X143831733Y-108920938D01*
X143831733Y-108920938D02*
X143998648Y-108976576D01*
X143998648Y-108976576D02*
X144276838Y-108976576D01*
X141717485Y-108920938D02*
X141828761Y-108976576D01*
X141828761Y-108976576D02*
X142051314Y-108976576D01*
X142051314Y-108976576D02*
X142162590Y-108920938D01*
X142162590Y-108920938D02*
X142218228Y-108865299D01*
X142218228Y-108865299D02*
X142273866Y-108754023D01*
X142273866Y-108754023D02*
X142273866Y-108420195D01*
X142273866Y-108420195D02*
X142218228Y-108308918D01*
X142218228Y-108308918D02*
X142162590Y-108253280D01*
X142162590Y-108253280D02*
X142051314Y-108197642D01*
X142051314Y-108197642D02*
X141828761Y-108197642D01*
X141828761Y-108197642D02*
X141717485Y-108253280D01*
X140715999Y-108976576D02*
X140715999Y-108364557D01*
X140715999Y-108364557D02*
X140771637Y-108253280D01*
X140771637Y-108253280D02*
X140882913Y-108197642D01*
X140882913Y-108197642D02*
X141105466Y-108197642D01*
X141105466Y-108197642D02*
X141216742Y-108253280D01*
X140715999Y-108920938D02*
X140827275Y-108976576D01*
X140827275Y-108976576D02*
X141105466Y-108976576D01*
X141105466Y-108976576D02*
X141216742Y-108920938D01*
X141216742Y-108920938D02*
X141272380Y-108809661D01*
X141272380Y-108809661D02*
X141272380Y-108698385D01*
X141272380Y-108698385D02*
X141216742Y-108587109D01*
X141216742Y-108587109D02*
X141105466Y-108531471D01*
X141105466Y-108531471D02*
X140827275Y-108531471D01*
X140827275Y-108531471D02*
X140715999Y-108475833D01*
X140326532Y-108197642D02*
X139881428Y-108197642D01*
X140159618Y-107808176D02*
X140159618Y-108809661D01*
X140159618Y-108809661D02*
X140103980Y-108920938D01*
X140103980Y-108920938D02*
X139992704Y-108976576D01*
X139992704Y-108976576D02*
X139881428Y-108976576D01*
X139491961Y-108976576D02*
X139491961Y-107808176D01*
X138991218Y-108976576D02*
X138991218Y-108364557D01*
X138991218Y-108364557D02*
X139046856Y-108253280D01*
X139046856Y-108253280D02*
X139158132Y-108197642D01*
X139158132Y-108197642D02*
X139325047Y-108197642D01*
X139325047Y-108197642D02*
X139436323Y-108253280D01*
X139436323Y-108253280D02*
X139491961Y-108308918D01*
X138267923Y-108976576D02*
X138379199Y-108920938D01*
X138379199Y-108920938D02*
X138434837Y-108865299D01*
X138434837Y-108865299D02*
X138490475Y-108754023D01*
X138490475Y-108754023D02*
X138490475Y-108420195D01*
X138490475Y-108420195D02*
X138434837Y-108308918D01*
X138434837Y-108308918D02*
X138379199Y-108253280D01*
X138379199Y-108253280D02*
X138267923Y-108197642D01*
X138267923Y-108197642D02*
X138101008Y-108197642D01*
X138101008Y-108197642D02*
X137989732Y-108253280D01*
X137989732Y-108253280D02*
X137934094Y-108308918D01*
X137934094Y-108308918D02*
X137878456Y-108420195D01*
X137878456Y-108420195D02*
X137878456Y-108754023D01*
X137878456Y-108754023D02*
X137934094Y-108865299D01*
X137934094Y-108865299D02*
X137989732Y-108920938D01*
X137989732Y-108920938D02*
X138101008Y-108976576D01*
X138101008Y-108976576D02*
X138267923Y-108976576D01*
X136876970Y-108976576D02*
X136876970Y-107808176D01*
X136876970Y-108920938D02*
X136988246Y-108976576D01*
X136988246Y-108976576D02*
X137210799Y-108976576D01*
X137210799Y-108976576D02*
X137322075Y-108920938D01*
X137322075Y-108920938D02*
X137377713Y-108865299D01*
X137377713Y-108865299D02*
X137433351Y-108754023D01*
X137433351Y-108754023D02*
X137433351Y-108420195D01*
X137433351Y-108420195D02*
X137377713Y-108308918D01*
X137377713Y-108308918D02*
X137322075Y-108253280D01*
X137322075Y-108253280D02*
X137210799Y-108197642D01*
X137210799Y-108197642D02*
X136988246Y-108197642D01*
X136988246Y-108197642D02*
X136876970Y-108253280D01*
X135875484Y-108920938D02*
X135986760Y-108976576D01*
X135986760Y-108976576D02*
X136209313Y-108976576D01*
X136209313Y-108976576D02*
X136320589Y-108920938D01*
X136320589Y-108920938D02*
X136376227Y-108809661D01*
X136376227Y-108809661D02*
X136376227Y-108364557D01*
X136376227Y-108364557D02*
X136320589Y-108253280D01*
X136320589Y-108253280D02*
X136209313Y-108197642D01*
X136209313Y-108197642D02*
X135986760Y-108197642D01*
X135986760Y-108197642D02*
X135875484Y-108253280D01*
X135875484Y-108253280D02*
X135819846Y-108364557D01*
X135819846Y-108364557D02*
X135819846Y-108475833D01*
X135819846Y-108475833D02*
X136376227Y-108587109D01*
X147533307Y-121931574D02*
X146754373Y-121931574D01*
X147978412Y-122209765D02*
X147143840Y-122487955D01*
X147143840Y-122487955D02*
X147143840Y-121764660D01*
X147199478Y-120596259D02*
X147255116Y-120540621D01*
X147255116Y-120540621D02*
X147310754Y-120429345D01*
X147310754Y-120429345D02*
X147199478Y-120206793D01*
X147199478Y-120206793D02*
X147255116Y-120095516D01*
X147255116Y-120095516D02*
X147310754Y-120039878D01*
X146754373Y-118927117D02*
X147310754Y-119316584D01*
X146754373Y-119594774D02*
X147922773Y-119594774D01*
X147922773Y-119594774D02*
X147922773Y-119149669D01*
X147922773Y-119149669D02*
X147867135Y-119038393D01*
X147867135Y-119038393D02*
X147811497Y-118982755D01*
X147811497Y-118982755D02*
X147700221Y-118927117D01*
X147700221Y-118927117D02*
X147533307Y-118927117D01*
X147533307Y-118927117D02*
X147422031Y-118982755D01*
X147422031Y-118982755D02*
X147366392Y-119038393D01*
X147366392Y-119038393D02*
X147310754Y-119149669D01*
X147310754Y-119149669D02*
X147310754Y-119594774D01*
X147366392Y-118426374D02*
X147366392Y-118036907D01*
X146754373Y-117869993D02*
X146754373Y-118426374D01*
X146754373Y-118426374D02*
X147922773Y-118426374D01*
X147922773Y-118426374D02*
X147922773Y-117869993D01*
X146810012Y-117424888D02*
X146754373Y-117257974D01*
X146754373Y-117257974D02*
X146754373Y-116979783D01*
X146754373Y-116979783D02*
X146810012Y-116868507D01*
X146810012Y-116868507D02*
X146865650Y-116812869D01*
X146865650Y-116812869D02*
X146976926Y-116757231D01*
X146976926Y-116757231D02*
X147088202Y-116757231D01*
X147088202Y-116757231D02*
X147199478Y-116812869D01*
X147199478Y-116812869D02*
X147255116Y-116868507D01*
X147255116Y-116868507D02*
X147310754Y-116979783D01*
X147310754Y-116979783D02*
X147366392Y-117202336D01*
X147366392Y-117202336D02*
X147422031Y-117313612D01*
X147422031Y-117313612D02*
X147477669Y-117369250D01*
X147477669Y-117369250D02*
X147588945Y-117424888D01*
X147588945Y-117424888D02*
X147700221Y-117424888D01*
X147700221Y-117424888D02*
X147811497Y-117369250D01*
X147811497Y-117369250D02*
X147867135Y-117313612D01*
X147867135Y-117313612D02*
X147922773Y-117202336D01*
X147922773Y-117202336D02*
X147922773Y-116924145D01*
X147922773Y-116924145D02*
X147867135Y-116757231D01*
X147366392Y-116256488D02*
X147366392Y-115867021D01*
X146754373Y-115700107D02*
X146754373Y-116256488D01*
X146754373Y-116256488D02*
X147922773Y-116256488D01*
X147922773Y-116256488D02*
X147922773Y-115700107D01*
X147922773Y-115366278D02*
X147922773Y-114698621D01*
X146754373Y-115032450D02*
X147922773Y-115032450D01*
X142731497Y-122487955D02*
X142787135Y-122432317D01*
X142787135Y-122432317D02*
X142842773Y-122321041D01*
X142842773Y-122321041D02*
X142842773Y-122042850D01*
X142842773Y-122042850D02*
X142787135Y-121931574D01*
X142787135Y-121931574D02*
X142731497Y-121875936D01*
X142731497Y-121875936D02*
X142620221Y-121820298D01*
X142620221Y-121820298D02*
X142508945Y-121820298D01*
X142508945Y-121820298D02*
X142342031Y-121875936D01*
X142342031Y-121875936D02*
X141674373Y-122543593D01*
X141674373Y-122543593D02*
X141674373Y-121820298D01*
X142787135Y-119817326D02*
X142842773Y-119928602D01*
X142842773Y-119928602D02*
X142842773Y-120095516D01*
X142842773Y-120095516D02*
X142787135Y-120262431D01*
X142787135Y-120262431D02*
X142675859Y-120373707D01*
X142675859Y-120373707D02*
X142564583Y-120429345D01*
X142564583Y-120429345D02*
X142342031Y-120484983D01*
X142342031Y-120484983D02*
X142175116Y-120484983D01*
X142175116Y-120484983D02*
X141952564Y-120429345D01*
X141952564Y-120429345D02*
X141841288Y-120373707D01*
X141841288Y-120373707D02*
X141730012Y-120262431D01*
X141730012Y-120262431D02*
X141674373Y-120095516D01*
X141674373Y-120095516D02*
X141674373Y-119984240D01*
X141674373Y-119984240D02*
X141730012Y-119817326D01*
X141730012Y-119817326D02*
X141785650Y-119761688D01*
X141785650Y-119761688D02*
X142175116Y-119761688D01*
X142175116Y-119761688D02*
X142175116Y-119984240D01*
X141674373Y-119260945D02*
X142842773Y-119260945D01*
X142842773Y-119260945D02*
X141674373Y-118593288D01*
X141674373Y-118593288D02*
X142842773Y-118593288D01*
X141674373Y-118036907D02*
X142842773Y-118036907D01*
X142842773Y-118036907D02*
X142842773Y-117758717D01*
X142842773Y-117758717D02*
X142787135Y-117591802D01*
X142787135Y-117591802D02*
X142675859Y-117480526D01*
X142675859Y-117480526D02*
X142564583Y-117424888D01*
X142564583Y-117424888D02*
X142342031Y-117369250D01*
X142342031Y-117369250D02*
X142175116Y-117369250D01*
X142175116Y-117369250D02*
X141952564Y-117424888D01*
X141952564Y-117424888D02*
X141841288Y-117480526D01*
X141841288Y-117480526D02*
X141730012Y-117591802D01*
X141730012Y-117591802D02*
X141674373Y-117758717D01*
X141674373Y-117758717D02*
X141674373Y-118036907D01*
X167700481Y-97648176D02*
X167311015Y-98816576D01*
X167311015Y-98816576D02*
X166921548Y-97648176D01*
X165920062Y-98816576D02*
X166587719Y-98816576D01*
X166253891Y-98816576D02*
X166253891Y-97648176D01*
X166253891Y-97648176D02*
X166365167Y-97815090D01*
X166365167Y-97815090D02*
X166476443Y-97926366D01*
X166476443Y-97926366D02*
X166587719Y-97982004D01*
X165419319Y-98705299D02*
X165363681Y-98760938D01*
X165363681Y-98760938D02*
X165419319Y-98816576D01*
X165419319Y-98816576D02*
X165474957Y-98760938D01*
X165474957Y-98760938D02*
X165419319Y-98705299D01*
X165419319Y-98705299D02*
X165419319Y-98816576D01*
X164250919Y-98816576D02*
X164918576Y-98816576D01*
X164584748Y-98816576D02*
X164584748Y-97648176D01*
X164584748Y-97648176D02*
X164696024Y-97815090D01*
X164696024Y-97815090D02*
X164807300Y-97926366D01*
X164807300Y-97926366D02*
X164918576Y-97982004D01*
X162526137Y-97648176D02*
X162526137Y-98482747D01*
X162526137Y-98482747D02*
X162581776Y-98649661D01*
X162581776Y-98649661D02*
X162693052Y-98760938D01*
X162693052Y-98760938D02*
X162859966Y-98816576D01*
X162859966Y-98816576D02*
X162971242Y-98816576D01*
X161469013Y-98037642D02*
X161469013Y-98816576D01*
X161969756Y-98037642D02*
X161969756Y-98649661D01*
X161969756Y-98649661D02*
X161914118Y-98760938D01*
X161914118Y-98760938D02*
X161802842Y-98816576D01*
X161802842Y-98816576D02*
X161635927Y-98816576D01*
X161635927Y-98816576D02*
X161524651Y-98760938D01*
X161524651Y-98760938D02*
X161469013Y-98705299D01*
X160745718Y-98816576D02*
X160856994Y-98760938D01*
X160856994Y-98760938D02*
X160912632Y-98649661D01*
X160912632Y-98649661D02*
X160912632Y-97648176D01*
X160411889Y-98037642D02*
X160133699Y-98816576D01*
X159855508Y-98037642D02*
X160133699Y-98816576D01*
X160133699Y-98816576D02*
X160244975Y-99094766D01*
X160244975Y-99094766D02*
X160300613Y-99150404D01*
X160300613Y-99150404D02*
X160411889Y-99206042D01*
X158575831Y-97759452D02*
X158520193Y-97703814D01*
X158520193Y-97703814D02*
X158408917Y-97648176D01*
X158408917Y-97648176D02*
X158130726Y-97648176D01*
X158130726Y-97648176D02*
X158019450Y-97703814D01*
X158019450Y-97703814D02*
X157963812Y-97759452D01*
X157963812Y-97759452D02*
X157908174Y-97870728D01*
X157908174Y-97870728D02*
X157908174Y-97982004D01*
X157908174Y-97982004D02*
X157963812Y-98148918D01*
X157963812Y-98148918D02*
X158631469Y-98816576D01*
X158631469Y-98816576D02*
X157908174Y-98816576D01*
X157184879Y-97648176D02*
X157073602Y-97648176D01*
X157073602Y-97648176D02*
X156962326Y-97703814D01*
X156962326Y-97703814D02*
X156906688Y-97759452D01*
X156906688Y-97759452D02*
X156851050Y-97870728D01*
X156851050Y-97870728D02*
X156795412Y-98093280D01*
X156795412Y-98093280D02*
X156795412Y-98371471D01*
X156795412Y-98371471D02*
X156851050Y-98594023D01*
X156851050Y-98594023D02*
X156906688Y-98705299D01*
X156906688Y-98705299D02*
X156962326Y-98760938D01*
X156962326Y-98760938D02*
X157073602Y-98816576D01*
X157073602Y-98816576D02*
X157184879Y-98816576D01*
X157184879Y-98816576D02*
X157296155Y-98760938D01*
X157296155Y-98760938D02*
X157351793Y-98705299D01*
X157351793Y-98705299D02*
X157407431Y-98594023D01*
X157407431Y-98594023D02*
X157463069Y-98371471D01*
X157463069Y-98371471D02*
X157463069Y-98093280D01*
X157463069Y-98093280D02*
X157407431Y-97870728D01*
X157407431Y-97870728D02*
X157351793Y-97759452D01*
X157351793Y-97759452D02*
X157296155Y-97703814D01*
X157296155Y-97703814D02*
X157184879Y-97648176D01*
X155682650Y-98816576D02*
X156350307Y-98816576D01*
X156016479Y-98816576D02*
X156016479Y-97648176D01*
X156016479Y-97648176D02*
X156127755Y-97815090D01*
X156127755Y-97815090D02*
X156239031Y-97926366D01*
X156239031Y-97926366D02*
X156350307Y-97982004D01*
X155293183Y-97648176D02*
X154569888Y-97648176D01*
X154569888Y-97648176D02*
X154959355Y-98093280D01*
X154959355Y-98093280D02*
X154792440Y-98093280D01*
X154792440Y-98093280D02*
X154681164Y-98148918D01*
X154681164Y-98148918D02*
X154625526Y-98204557D01*
X154625526Y-98204557D02*
X154569888Y-98315833D01*
X154569888Y-98315833D02*
X154569888Y-98594023D01*
X154569888Y-98594023D02*
X154625526Y-98705299D01*
X154625526Y-98705299D02*
X154681164Y-98760938D01*
X154681164Y-98760938D02*
X154792440Y-98816576D01*
X154792440Y-98816576D02*
X155126269Y-98816576D01*
X155126269Y-98816576D02*
X155237545Y-98760938D01*
X155237545Y-98760938D02*
X155293183Y-98705299D01*
X153178935Y-98816576D02*
X153178935Y-97648176D01*
X152678192Y-98816576D02*
X152678192Y-98204557D01*
X152678192Y-98204557D02*
X152733830Y-98093280D01*
X152733830Y-98093280D02*
X152845106Y-98037642D01*
X152845106Y-98037642D02*
X153012021Y-98037642D01*
X153012021Y-98037642D02*
X153123297Y-98093280D01*
X153123297Y-98093280D02*
X153178935Y-98148918D01*
X152288725Y-98037642D02*
X151843621Y-98037642D01*
X152121811Y-97648176D02*
X152121811Y-98649661D01*
X152121811Y-98649661D02*
X152066173Y-98760938D01*
X152066173Y-98760938D02*
X151954897Y-98816576D01*
X151954897Y-98816576D02*
X151843621Y-98816576D01*
X151621068Y-98037642D02*
X151175964Y-98037642D01*
X151454154Y-97648176D02*
X151454154Y-98649661D01*
X151454154Y-98649661D02*
X151398516Y-98760938D01*
X151398516Y-98760938D02*
X151287240Y-98816576D01*
X151287240Y-98816576D02*
X151175964Y-98816576D01*
X150786497Y-98037642D02*
X150786497Y-99206042D01*
X150786497Y-98093280D02*
X150675221Y-98037642D01*
X150675221Y-98037642D02*
X150452668Y-98037642D01*
X150452668Y-98037642D02*
X150341392Y-98093280D01*
X150341392Y-98093280D02*
X150285754Y-98148918D01*
X150285754Y-98148918D02*
X150230116Y-98260195D01*
X150230116Y-98260195D02*
X150230116Y-98594023D01*
X150230116Y-98594023D02*
X150285754Y-98705299D01*
X150285754Y-98705299D02*
X150341392Y-98760938D01*
X150341392Y-98760938D02*
X150452668Y-98816576D01*
X150452668Y-98816576D02*
X150675221Y-98816576D01*
X150675221Y-98816576D02*
X150786497Y-98760938D01*
X149729373Y-98705299D02*
X149673735Y-98760938D01*
X149673735Y-98760938D02*
X149729373Y-98816576D01*
X149729373Y-98816576D02*
X149785011Y-98760938D01*
X149785011Y-98760938D02*
X149729373Y-98705299D01*
X149729373Y-98705299D02*
X149729373Y-98816576D01*
X149729373Y-98093280D02*
X149673735Y-98148918D01*
X149673735Y-98148918D02*
X149729373Y-98204557D01*
X149729373Y-98204557D02*
X149785011Y-98148918D01*
X149785011Y-98148918D02*
X149729373Y-98093280D01*
X149729373Y-98093280D02*
X149729373Y-98204557D01*
X148338421Y-97592538D02*
X149339906Y-99094766D01*
X147114383Y-97592538D02*
X148115868Y-99094766D01*
X146224173Y-98760938D02*
X146335449Y-98816576D01*
X146335449Y-98816576D02*
X146558002Y-98816576D01*
X146558002Y-98816576D02*
X146669278Y-98760938D01*
X146669278Y-98760938D02*
X146724916Y-98705299D01*
X146724916Y-98705299D02*
X146780554Y-98594023D01*
X146780554Y-98594023D02*
X146780554Y-98260195D01*
X146780554Y-98260195D02*
X146724916Y-98148918D01*
X146724916Y-98148918D02*
X146669278Y-98093280D01*
X146669278Y-98093280D02*
X146558002Y-98037642D01*
X146558002Y-98037642D02*
X146335449Y-98037642D01*
X146335449Y-98037642D02*
X146224173Y-98093280D01*
X145222687Y-98816576D02*
X145222687Y-98204557D01*
X145222687Y-98204557D02*
X145278325Y-98093280D01*
X145278325Y-98093280D02*
X145389601Y-98037642D01*
X145389601Y-98037642D02*
X145612154Y-98037642D01*
X145612154Y-98037642D02*
X145723430Y-98093280D01*
X145222687Y-98760938D02*
X145333963Y-98816576D01*
X145333963Y-98816576D02*
X145612154Y-98816576D01*
X145612154Y-98816576D02*
X145723430Y-98760938D01*
X145723430Y-98760938D02*
X145779068Y-98649661D01*
X145779068Y-98649661D02*
X145779068Y-98538385D01*
X145779068Y-98538385D02*
X145723430Y-98427109D01*
X145723430Y-98427109D02*
X145612154Y-98371471D01*
X145612154Y-98371471D02*
X145333963Y-98371471D01*
X145333963Y-98371471D02*
X145222687Y-98315833D01*
X144833220Y-98037642D02*
X144388116Y-98037642D01*
X144666306Y-97648176D02*
X144666306Y-98649661D01*
X144666306Y-98649661D02*
X144610668Y-98760938D01*
X144610668Y-98760938D02*
X144499392Y-98816576D01*
X144499392Y-98816576D02*
X144388116Y-98816576D01*
X143998649Y-98816576D02*
X143998649Y-98037642D01*
X143998649Y-98148918D02*
X143943011Y-98093280D01*
X143943011Y-98093280D02*
X143831735Y-98037642D01*
X143831735Y-98037642D02*
X143664820Y-98037642D01*
X143664820Y-98037642D02*
X143553544Y-98093280D01*
X143553544Y-98093280D02*
X143497906Y-98204557D01*
X143497906Y-98204557D02*
X143497906Y-98816576D01*
X143497906Y-98204557D02*
X143442268Y-98093280D01*
X143442268Y-98093280D02*
X143330992Y-98037642D01*
X143330992Y-98037642D02*
X143164078Y-98037642D01*
X143164078Y-98037642D02*
X143052801Y-98093280D01*
X143052801Y-98093280D02*
X142997163Y-98204557D01*
X142997163Y-98204557D02*
X142997163Y-98816576D01*
X141940039Y-98816576D02*
X141940039Y-98204557D01*
X141940039Y-98204557D02*
X141995677Y-98093280D01*
X141995677Y-98093280D02*
X142106953Y-98037642D01*
X142106953Y-98037642D02*
X142329506Y-98037642D01*
X142329506Y-98037642D02*
X142440782Y-98093280D01*
X141940039Y-98760938D02*
X142051315Y-98816576D01*
X142051315Y-98816576D02*
X142329506Y-98816576D01*
X142329506Y-98816576D02*
X142440782Y-98760938D01*
X142440782Y-98760938D02*
X142496420Y-98649661D01*
X142496420Y-98649661D02*
X142496420Y-98538385D01*
X142496420Y-98538385D02*
X142440782Y-98427109D01*
X142440782Y-98427109D02*
X142329506Y-98371471D01*
X142329506Y-98371471D02*
X142051315Y-98371471D01*
X142051315Y-98371471D02*
X141940039Y-98315833D01*
X140882915Y-98760938D02*
X140994191Y-98816576D01*
X140994191Y-98816576D02*
X141216744Y-98816576D01*
X141216744Y-98816576D02*
X141328020Y-98760938D01*
X141328020Y-98760938D02*
X141383658Y-98705299D01*
X141383658Y-98705299D02*
X141439296Y-98594023D01*
X141439296Y-98594023D02*
X141439296Y-98260195D01*
X141439296Y-98260195D02*
X141383658Y-98148918D01*
X141383658Y-98148918D02*
X141328020Y-98093280D01*
X141328020Y-98093280D02*
X141216744Y-98037642D01*
X141216744Y-98037642D02*
X140994191Y-98037642D01*
X140994191Y-98037642D02*
X140882915Y-98093280D01*
X139937067Y-98760938D02*
X140048343Y-98816576D01*
X140048343Y-98816576D02*
X140270896Y-98816576D01*
X140270896Y-98816576D02*
X140382172Y-98760938D01*
X140382172Y-98760938D02*
X140437810Y-98649661D01*
X140437810Y-98649661D02*
X140437810Y-98204557D01*
X140437810Y-98204557D02*
X140382172Y-98093280D01*
X140382172Y-98093280D02*
X140270896Y-98037642D01*
X140270896Y-98037642D02*
X140048343Y-98037642D01*
X140048343Y-98037642D02*
X139937067Y-98093280D01*
X139937067Y-98093280D02*
X139881429Y-98204557D01*
X139881429Y-98204557D02*
X139881429Y-98315833D01*
X139881429Y-98315833D02*
X140437810Y-98427109D01*
X139491962Y-98037642D02*
X139213772Y-98816576D01*
X138935581Y-98037642D02*
X139213772Y-98816576D01*
X139213772Y-98816576D02*
X139325048Y-99094766D01*
X139325048Y-99094766D02*
X139380686Y-99150404D01*
X139380686Y-99150404D02*
X139491962Y-99206042D01*
X138490476Y-98705299D02*
X138434838Y-98760938D01*
X138434838Y-98760938D02*
X138490476Y-98816576D01*
X138490476Y-98816576D02*
X138546114Y-98760938D01*
X138546114Y-98760938D02*
X138490476Y-98705299D01*
X138490476Y-98705299D02*
X138490476Y-98816576D01*
X137433352Y-98760938D02*
X137544628Y-98816576D01*
X137544628Y-98816576D02*
X137767181Y-98816576D01*
X137767181Y-98816576D02*
X137878457Y-98760938D01*
X137878457Y-98760938D02*
X137934095Y-98705299D01*
X137934095Y-98705299D02*
X137989733Y-98594023D01*
X137989733Y-98594023D02*
X137989733Y-98260195D01*
X137989733Y-98260195D02*
X137934095Y-98148918D01*
X137934095Y-98148918D02*
X137878457Y-98093280D01*
X137878457Y-98093280D02*
X137767181Y-98037642D01*
X137767181Y-98037642D02*
X137544628Y-98037642D01*
X137544628Y-98037642D02*
X137433352Y-98093280D01*
X136765695Y-98816576D02*
X136876971Y-98760938D01*
X136876971Y-98760938D02*
X136932609Y-98705299D01*
X136932609Y-98705299D02*
X136988247Y-98594023D01*
X136988247Y-98594023D02*
X136988247Y-98260195D01*
X136988247Y-98260195D02*
X136932609Y-98148918D01*
X136932609Y-98148918D02*
X136876971Y-98093280D01*
X136876971Y-98093280D02*
X136765695Y-98037642D01*
X136765695Y-98037642D02*
X136598780Y-98037642D01*
X136598780Y-98037642D02*
X136487504Y-98093280D01*
X136487504Y-98093280D02*
X136431866Y-98148918D01*
X136431866Y-98148918D02*
X136376228Y-98260195D01*
X136376228Y-98260195D02*
X136376228Y-98594023D01*
X136376228Y-98594023D02*
X136431866Y-98705299D01*
X136431866Y-98705299D02*
X136487504Y-98760938D01*
X136487504Y-98760938D02*
X136598780Y-98816576D01*
X136598780Y-98816576D02*
X136765695Y-98816576D01*
X135875485Y-98816576D02*
X135875485Y-98037642D01*
X135875485Y-98148918D02*
X135819847Y-98093280D01*
X135819847Y-98093280D02*
X135708571Y-98037642D01*
X135708571Y-98037642D02*
X135541656Y-98037642D01*
X135541656Y-98037642D02*
X135430380Y-98093280D01*
X135430380Y-98093280D02*
X135374742Y-98204557D01*
X135374742Y-98204557D02*
X135374742Y-98816576D01*
X135374742Y-98204557D02*
X135319104Y-98093280D01*
X135319104Y-98093280D02*
X135207828Y-98037642D01*
X135207828Y-98037642D02*
X135040914Y-98037642D01*
X135040914Y-98037642D02*
X134929637Y-98093280D01*
X134929637Y-98093280D02*
X134873999Y-98204557D01*
X134873999Y-98204557D02*
X134873999Y-98816576D01*
D11*
X167471081Y-96884724D02*
X167471081Y-95504724D01*
X167471081Y-95504724D02*
X166682510Y-96884724D01*
X166682510Y-96884724D02*
X166682510Y-95504724D01*
X165828224Y-96884724D02*
X165959653Y-96819010D01*
X165959653Y-96819010D02*
X166025367Y-96753295D01*
X166025367Y-96753295D02*
X166091081Y-96621867D01*
X166091081Y-96621867D02*
X166091081Y-96227581D01*
X166091081Y-96227581D02*
X166025367Y-96096152D01*
X166025367Y-96096152D02*
X165959653Y-96030438D01*
X165959653Y-96030438D02*
X165828224Y-95964724D01*
X165828224Y-95964724D02*
X165631081Y-95964724D01*
X165631081Y-95964724D02*
X165499653Y-96030438D01*
X165499653Y-96030438D02*
X165433939Y-96096152D01*
X165433939Y-96096152D02*
X165368224Y-96227581D01*
X165368224Y-96227581D02*
X165368224Y-96621867D01*
X165368224Y-96621867D02*
X165433939Y-96753295D01*
X165433939Y-96753295D02*
X165499653Y-96819010D01*
X165499653Y-96819010D02*
X165631081Y-96884724D01*
X165631081Y-96884724D02*
X165828224Y-96884724D01*
X164776796Y-96884724D02*
X164776796Y-95504724D01*
X164645368Y-96359010D02*
X164251082Y-96884724D01*
X164251082Y-95964724D02*
X164776796Y-96490438D01*
X163659653Y-96884724D02*
X163659653Y-95964724D01*
X163659653Y-95504724D02*
X163725367Y-95570438D01*
X163725367Y-95570438D02*
X163659653Y-95636152D01*
X163659653Y-95636152D02*
X163593939Y-95570438D01*
X163593939Y-95570438D02*
X163659653Y-95504724D01*
X163659653Y-95504724D02*
X163659653Y-95636152D01*
X162411082Y-96884724D02*
X162411082Y-96161867D01*
X162411082Y-96161867D02*
X162476796Y-96030438D01*
X162476796Y-96030438D02*
X162608224Y-95964724D01*
X162608224Y-95964724D02*
X162871082Y-95964724D01*
X162871082Y-95964724D02*
X163002510Y-96030438D01*
X162411082Y-96819010D02*
X162542510Y-96884724D01*
X162542510Y-96884724D02*
X162871082Y-96884724D01*
X162871082Y-96884724D02*
X163002510Y-96819010D01*
X163002510Y-96819010D02*
X163068224Y-96687581D01*
X163068224Y-96687581D02*
X163068224Y-96556152D01*
X163068224Y-96556152D02*
X163002510Y-96424724D01*
X163002510Y-96424724D02*
X162871082Y-96359010D01*
X162871082Y-96359010D02*
X162542510Y-96359010D01*
X162542510Y-96359010D02*
X162411082Y-96293295D01*
X159979653Y-96884724D02*
X160768224Y-96884724D01*
X160373939Y-96884724D02*
X160373939Y-95504724D01*
X160373939Y-95504724D02*
X160505367Y-95701867D01*
X160505367Y-95701867D02*
X160636796Y-95833295D01*
X160636796Y-95833295D02*
X160768224Y-95899010D01*
X159453938Y-95636152D02*
X159388224Y-95570438D01*
X159388224Y-95570438D02*
X159256796Y-95504724D01*
X159256796Y-95504724D02*
X158928224Y-95504724D01*
X158928224Y-95504724D02*
X158796796Y-95570438D01*
X158796796Y-95570438D02*
X158731081Y-95636152D01*
X158731081Y-95636152D02*
X158665367Y-95767581D01*
X158665367Y-95767581D02*
X158665367Y-95899010D01*
X158665367Y-95899010D02*
X158731081Y-96096152D01*
X158731081Y-96096152D02*
X159519653Y-96884724D01*
X159519653Y-96884724D02*
X158665367Y-96884724D01*
X157811081Y-95504724D02*
X157679652Y-95504724D01*
X157679652Y-95504724D02*
X157548224Y-95570438D01*
X157548224Y-95570438D02*
X157482510Y-95636152D01*
X157482510Y-95636152D02*
X157416795Y-95767581D01*
X157416795Y-95767581D02*
X157351081Y-96030438D01*
X157351081Y-96030438D02*
X157351081Y-96359010D01*
X157351081Y-96359010D02*
X157416795Y-96621867D01*
X157416795Y-96621867D02*
X157482510Y-96753295D01*
X157482510Y-96753295D02*
X157548224Y-96819010D01*
X157548224Y-96819010D02*
X157679652Y-96884724D01*
X157679652Y-96884724D02*
X157811081Y-96884724D01*
X157811081Y-96884724D02*
X157942510Y-96819010D01*
X157942510Y-96819010D02*
X158008224Y-96753295D01*
X158008224Y-96753295D02*
X158073938Y-96621867D01*
X158073938Y-96621867D02*
X158139652Y-96359010D01*
X158139652Y-96359010D02*
X158139652Y-96030438D01*
X158139652Y-96030438D02*
X158073938Y-95767581D01*
X158073938Y-95767581D02*
X158008224Y-95636152D01*
X158008224Y-95636152D02*
X157942510Y-95570438D01*
X157942510Y-95570438D02*
X157811081Y-95504724D01*
X156825366Y-95636152D02*
X156759652Y-95570438D01*
X156759652Y-95570438D02*
X156628224Y-95504724D01*
X156628224Y-95504724D02*
X156299652Y-95504724D01*
X156299652Y-95504724D02*
X156168224Y-95570438D01*
X156168224Y-95570438D02*
X156102509Y-95636152D01*
X156102509Y-95636152D02*
X156036795Y-95767581D01*
X156036795Y-95767581D02*
X156036795Y-95899010D01*
X156036795Y-95899010D02*
X156102509Y-96096152D01*
X156102509Y-96096152D02*
X156891081Y-96884724D01*
X156891081Y-96884724D02*
X156036795Y-96884724D01*
X153736794Y-96884724D02*
X154393937Y-96884724D01*
X154393937Y-96884724D02*
X154393937Y-95504724D01*
X152488223Y-96753295D02*
X152553937Y-96819010D01*
X152553937Y-96819010D02*
X152751080Y-96884724D01*
X152751080Y-96884724D02*
X152882508Y-96884724D01*
X152882508Y-96884724D02*
X153079651Y-96819010D01*
X153079651Y-96819010D02*
X153211080Y-96687581D01*
X153211080Y-96687581D02*
X153276794Y-96556152D01*
X153276794Y-96556152D02*
X153342508Y-96293295D01*
X153342508Y-96293295D02*
X153342508Y-96096152D01*
X153342508Y-96096152D02*
X153276794Y-95833295D01*
X153276794Y-95833295D02*
X153211080Y-95701867D01*
X153211080Y-95701867D02*
X153079651Y-95570438D01*
X153079651Y-95570438D02*
X152882508Y-95504724D01*
X152882508Y-95504724D02*
X152751080Y-95504724D01*
X152751080Y-95504724D02*
X152553937Y-95570438D01*
X152553937Y-95570438D02*
X152488223Y-95636152D01*
X151896794Y-96884724D02*
X151896794Y-95504724D01*
X151896794Y-95504724D02*
X151568223Y-95504724D01*
X151568223Y-95504724D02*
X151371080Y-95570438D01*
X151371080Y-95570438D02*
X151239651Y-95701867D01*
X151239651Y-95701867D02*
X151173937Y-95833295D01*
X151173937Y-95833295D02*
X151108223Y-96096152D01*
X151108223Y-96096152D02*
X151108223Y-96293295D01*
X151108223Y-96293295D02*
X151173937Y-96556152D01*
X151173937Y-96556152D02*
X151239651Y-96687581D01*
X151239651Y-96687581D02*
X151371080Y-96819010D01*
X151371080Y-96819010D02*
X151568223Y-96884724D01*
X151568223Y-96884724D02*
X151896794Y-96884724D01*
X149465365Y-96884724D02*
X149465365Y-95504724D01*
X149465365Y-96030438D02*
X149333937Y-95964724D01*
X149333937Y-95964724D02*
X149071079Y-95964724D01*
X149071079Y-95964724D02*
X148939651Y-96030438D01*
X148939651Y-96030438D02*
X148873937Y-96096152D01*
X148873937Y-96096152D02*
X148808222Y-96227581D01*
X148808222Y-96227581D02*
X148808222Y-96621867D01*
X148808222Y-96621867D02*
X148873937Y-96753295D01*
X148873937Y-96753295D02*
X148939651Y-96819010D01*
X148939651Y-96819010D02*
X149071079Y-96884724D01*
X149071079Y-96884724D02*
X149333937Y-96884724D01*
X149333937Y-96884724D02*
X149465365Y-96819010D01*
X148216794Y-96884724D02*
X148216794Y-95964724D01*
X148216794Y-96227581D02*
X148151080Y-96096152D01*
X148151080Y-96096152D02*
X148085366Y-96030438D01*
X148085366Y-96030438D02*
X147953937Y-95964724D01*
X147953937Y-95964724D02*
X147822508Y-95964724D01*
X146836794Y-96819010D02*
X146968222Y-96884724D01*
X146968222Y-96884724D02*
X147231080Y-96884724D01*
X147231080Y-96884724D02*
X147362508Y-96819010D01*
X147362508Y-96819010D02*
X147428222Y-96687581D01*
X147428222Y-96687581D02*
X147428222Y-96161867D01*
X147428222Y-96161867D02*
X147362508Y-96030438D01*
X147362508Y-96030438D02*
X147231080Y-95964724D01*
X147231080Y-95964724D02*
X146968222Y-95964724D01*
X146968222Y-95964724D02*
X146836794Y-96030438D01*
X146836794Y-96030438D02*
X146771080Y-96161867D01*
X146771080Y-96161867D02*
X146771080Y-96293295D01*
X146771080Y-96293295D02*
X147428222Y-96424724D01*
X145588223Y-96884724D02*
X145588223Y-96161867D01*
X145588223Y-96161867D02*
X145653937Y-96030438D01*
X145653937Y-96030438D02*
X145785365Y-95964724D01*
X145785365Y-95964724D02*
X146048223Y-95964724D01*
X146048223Y-95964724D02*
X146179651Y-96030438D01*
X145588223Y-96819010D02*
X145719651Y-96884724D01*
X145719651Y-96884724D02*
X146048223Y-96884724D01*
X146048223Y-96884724D02*
X146179651Y-96819010D01*
X146179651Y-96819010D02*
X146245365Y-96687581D01*
X146245365Y-96687581D02*
X146245365Y-96556152D01*
X146245365Y-96556152D02*
X146179651Y-96424724D01*
X146179651Y-96424724D02*
X146048223Y-96359010D01*
X146048223Y-96359010D02*
X145719651Y-96359010D01*
X145719651Y-96359010D02*
X145588223Y-96293295D01*
X144931080Y-96884724D02*
X144931080Y-95504724D01*
X144799652Y-96359010D02*
X144405366Y-96884724D01*
X144405366Y-95964724D02*
X144931080Y-96490438D01*
X143616794Y-96884724D02*
X143748223Y-96819010D01*
X143748223Y-96819010D02*
X143813937Y-96753295D01*
X143813937Y-96753295D02*
X143879651Y-96621867D01*
X143879651Y-96621867D02*
X143879651Y-96227581D01*
X143879651Y-96227581D02*
X143813937Y-96096152D01*
X143813937Y-96096152D02*
X143748223Y-96030438D01*
X143748223Y-96030438D02*
X143616794Y-95964724D01*
X143616794Y-95964724D02*
X143419651Y-95964724D01*
X143419651Y-95964724D02*
X143288223Y-96030438D01*
X143288223Y-96030438D02*
X143222509Y-96096152D01*
X143222509Y-96096152D02*
X143156794Y-96227581D01*
X143156794Y-96227581D02*
X143156794Y-96621867D01*
X143156794Y-96621867D02*
X143222509Y-96753295D01*
X143222509Y-96753295D02*
X143288223Y-96819010D01*
X143288223Y-96819010D02*
X143419651Y-96884724D01*
X143419651Y-96884724D02*
X143616794Y-96884724D01*
X141973938Y-95964724D02*
X141973938Y-96884724D01*
X142565366Y-95964724D02*
X142565366Y-96687581D01*
X142565366Y-96687581D02*
X142499652Y-96819010D01*
X142499652Y-96819010D02*
X142368223Y-96884724D01*
X142368223Y-96884724D02*
X142171080Y-96884724D01*
X142171080Y-96884724D02*
X142039652Y-96819010D01*
X142039652Y-96819010D02*
X141973938Y-96753295D01*
X141513938Y-95964724D02*
X140988224Y-95964724D01*
X141316795Y-95504724D02*
X141316795Y-96687581D01*
X141316795Y-96687581D02*
X141251081Y-96819010D01*
X141251081Y-96819010D02*
X141119652Y-96884724D01*
X141119652Y-96884724D02*
X140988224Y-96884724D01*
X139476795Y-96884724D02*
X139476795Y-95504724D01*
X139476795Y-96030438D02*
X139345367Y-95964724D01*
X139345367Y-95964724D02*
X139082509Y-95964724D01*
X139082509Y-95964724D02*
X138951081Y-96030438D01*
X138951081Y-96030438D02*
X138885367Y-96096152D01*
X138885367Y-96096152D02*
X138819652Y-96227581D01*
X138819652Y-96227581D02*
X138819652Y-96621867D01*
X138819652Y-96621867D02*
X138885367Y-96753295D01*
X138885367Y-96753295D02*
X138951081Y-96819010D01*
X138951081Y-96819010D02*
X139082509Y-96884724D01*
X139082509Y-96884724D02*
X139345367Y-96884724D01*
X139345367Y-96884724D02*
X139476795Y-96819010D01*
X138031081Y-96884724D02*
X138162510Y-96819010D01*
X138162510Y-96819010D02*
X138228224Y-96753295D01*
X138228224Y-96753295D02*
X138293938Y-96621867D01*
X138293938Y-96621867D02*
X138293938Y-96227581D01*
X138293938Y-96227581D02*
X138228224Y-96096152D01*
X138228224Y-96096152D02*
X138162510Y-96030438D01*
X138162510Y-96030438D02*
X138031081Y-95964724D01*
X138031081Y-95964724D02*
X137833938Y-95964724D01*
X137833938Y-95964724D02*
X137702510Y-96030438D01*
X137702510Y-96030438D02*
X137636796Y-96096152D01*
X137636796Y-96096152D02*
X137571081Y-96227581D01*
X137571081Y-96227581D02*
X137571081Y-96621867D01*
X137571081Y-96621867D02*
X137636796Y-96753295D01*
X137636796Y-96753295D02*
X137702510Y-96819010D01*
X137702510Y-96819010D02*
X137833938Y-96884724D01*
X137833938Y-96884724D02*
X138031081Y-96884724D01*
X136388225Y-96884724D02*
X136388225Y-96161867D01*
X136388225Y-96161867D02*
X136453939Y-96030438D01*
X136453939Y-96030438D02*
X136585367Y-95964724D01*
X136585367Y-95964724D02*
X136848225Y-95964724D01*
X136848225Y-95964724D02*
X136979653Y-96030438D01*
X136388225Y-96819010D02*
X136519653Y-96884724D01*
X136519653Y-96884724D02*
X136848225Y-96884724D01*
X136848225Y-96884724D02*
X136979653Y-96819010D01*
X136979653Y-96819010D02*
X137045367Y-96687581D01*
X137045367Y-96687581D02*
X137045367Y-96556152D01*
X137045367Y-96556152D02*
X136979653Y-96424724D01*
X136979653Y-96424724D02*
X136848225Y-96359010D01*
X136848225Y-96359010D02*
X136519653Y-96359010D01*
X136519653Y-96359010D02*
X136388225Y-96293295D01*
X135731082Y-96884724D02*
X135731082Y-95964724D01*
X135731082Y-96227581D02*
X135665368Y-96096152D01*
X135665368Y-96096152D02*
X135599654Y-96030438D01*
X135599654Y-96030438D02*
X135468225Y-95964724D01*
X135468225Y-95964724D02*
X135336796Y-95964724D01*
X134285368Y-96884724D02*
X134285368Y-95504724D01*
X134285368Y-96819010D02*
X134416796Y-96884724D01*
X134416796Y-96884724D02*
X134679653Y-96884724D01*
X134679653Y-96884724D02*
X134811082Y-96819010D01*
X134811082Y-96819010D02*
X134876796Y-96753295D01*
X134876796Y-96753295D02*
X134942510Y-96621867D01*
X134942510Y-96621867D02*
X134942510Y-96227581D01*
X134942510Y-96227581D02*
X134876796Y-96096152D01*
X134876796Y-96096152D02*
X134811082Y-96030438D01*
X134811082Y-96030438D02*
X134679653Y-95964724D01*
X134679653Y-95964724D02*
X134416796Y-95964724D01*
X134416796Y-95964724D02*
X134285368Y-96030438D01*
D10*
X167533567Y-101991576D02*
X167533567Y-100823176D01*
X167533567Y-101379557D02*
X166865910Y-101379557D01*
X166865910Y-101991576D02*
X166865910Y-100823176D01*
X165808786Y-101991576D02*
X165808786Y-101379557D01*
X165808786Y-101379557D02*
X165864424Y-101268280D01*
X165864424Y-101268280D02*
X165975700Y-101212642D01*
X165975700Y-101212642D02*
X166198253Y-101212642D01*
X166198253Y-101212642D02*
X166309529Y-101268280D01*
X165808786Y-101935938D02*
X165920062Y-101991576D01*
X165920062Y-101991576D02*
X166198253Y-101991576D01*
X166198253Y-101991576D02*
X166309529Y-101935938D01*
X166309529Y-101935938D02*
X166365167Y-101824661D01*
X166365167Y-101824661D02*
X166365167Y-101713385D01*
X166365167Y-101713385D02*
X166309529Y-101602109D01*
X166309529Y-101602109D02*
X166198253Y-101546471D01*
X166198253Y-101546471D02*
X165920062Y-101546471D01*
X165920062Y-101546471D02*
X165808786Y-101490833D01*
X165308043Y-101935938D02*
X165196767Y-101991576D01*
X165196767Y-101991576D02*
X164974215Y-101991576D01*
X164974215Y-101991576D02*
X164862938Y-101935938D01*
X164862938Y-101935938D02*
X164807300Y-101824661D01*
X164807300Y-101824661D02*
X164807300Y-101769023D01*
X164807300Y-101769023D02*
X164862938Y-101657747D01*
X164862938Y-101657747D02*
X164974215Y-101602109D01*
X164974215Y-101602109D02*
X165141129Y-101602109D01*
X165141129Y-101602109D02*
X165252405Y-101546471D01*
X165252405Y-101546471D02*
X165308043Y-101435195D01*
X165308043Y-101435195D02*
X165308043Y-101379557D01*
X165308043Y-101379557D02*
X165252405Y-101268280D01*
X165252405Y-101268280D02*
X165141129Y-101212642D01*
X165141129Y-101212642D02*
X164974215Y-101212642D01*
X164974215Y-101212642D02*
X164862938Y-101268280D01*
X163471985Y-101935938D02*
X163360709Y-101991576D01*
X163360709Y-101991576D02*
X163138157Y-101991576D01*
X163138157Y-101991576D02*
X163026880Y-101935938D01*
X163026880Y-101935938D02*
X162971242Y-101824661D01*
X162971242Y-101824661D02*
X162971242Y-101769023D01*
X162971242Y-101769023D02*
X163026880Y-101657747D01*
X163026880Y-101657747D02*
X163138157Y-101602109D01*
X163138157Y-101602109D02*
X163305071Y-101602109D01*
X163305071Y-101602109D02*
X163416347Y-101546471D01*
X163416347Y-101546471D02*
X163471985Y-101435195D01*
X163471985Y-101435195D02*
X163471985Y-101379557D01*
X163471985Y-101379557D02*
X163416347Y-101268280D01*
X163416347Y-101268280D02*
X163305071Y-101212642D01*
X163305071Y-101212642D02*
X163138157Y-101212642D01*
X163138157Y-101212642D02*
X163026880Y-101268280D01*
X161969756Y-101991576D02*
X161969756Y-101379557D01*
X161969756Y-101379557D02*
X162025394Y-101268280D01*
X162025394Y-101268280D02*
X162136670Y-101212642D01*
X162136670Y-101212642D02*
X162359223Y-101212642D01*
X162359223Y-101212642D02*
X162470499Y-101268280D01*
X161969756Y-101935938D02*
X162081032Y-101991576D01*
X162081032Y-101991576D02*
X162359223Y-101991576D01*
X162359223Y-101991576D02*
X162470499Y-101935938D01*
X162470499Y-101935938D02*
X162526137Y-101824661D01*
X162526137Y-101824661D02*
X162526137Y-101713385D01*
X162526137Y-101713385D02*
X162470499Y-101602109D01*
X162470499Y-101602109D02*
X162359223Y-101546471D01*
X162359223Y-101546471D02*
X162081032Y-101546471D01*
X162081032Y-101546471D02*
X161969756Y-101490833D01*
X161413375Y-101991576D02*
X161413375Y-101212642D01*
X161413375Y-101323918D02*
X161357737Y-101268280D01*
X161357737Y-101268280D02*
X161246461Y-101212642D01*
X161246461Y-101212642D02*
X161079546Y-101212642D01*
X161079546Y-101212642D02*
X160968270Y-101268280D01*
X160968270Y-101268280D02*
X160912632Y-101379557D01*
X160912632Y-101379557D02*
X160912632Y-101991576D01*
X160912632Y-101379557D02*
X160856994Y-101268280D01*
X160856994Y-101268280D02*
X160745718Y-101212642D01*
X160745718Y-101212642D02*
X160578804Y-101212642D01*
X160578804Y-101212642D02*
X160467527Y-101268280D01*
X160467527Y-101268280D02*
X160411889Y-101379557D01*
X160411889Y-101379557D02*
X160411889Y-101991576D01*
X159410403Y-101935938D02*
X159521679Y-101991576D01*
X159521679Y-101991576D02*
X159744232Y-101991576D01*
X159744232Y-101991576D02*
X159855508Y-101935938D01*
X159855508Y-101935938D02*
X159911146Y-101824661D01*
X159911146Y-101824661D02*
X159911146Y-101379557D01*
X159911146Y-101379557D02*
X159855508Y-101268280D01*
X159855508Y-101268280D02*
X159744232Y-101212642D01*
X159744232Y-101212642D02*
X159521679Y-101212642D01*
X159521679Y-101212642D02*
X159410403Y-101268280D01*
X159410403Y-101268280D02*
X159354765Y-101379557D01*
X159354765Y-101379557D02*
X159354765Y-101490833D01*
X159354765Y-101490833D02*
X159911146Y-101602109D01*
X158130726Y-101212642D02*
X157685622Y-101212642D01*
X157963812Y-101991576D02*
X157963812Y-100990090D01*
X157963812Y-100990090D02*
X157908174Y-100878814D01*
X157908174Y-100878814D02*
X157796898Y-100823176D01*
X157796898Y-100823176D02*
X157685622Y-100823176D01*
X157129241Y-101991576D02*
X157240517Y-101935938D01*
X157240517Y-101935938D02*
X157296155Y-101880299D01*
X157296155Y-101880299D02*
X157351793Y-101769023D01*
X157351793Y-101769023D02*
X157351793Y-101435195D01*
X157351793Y-101435195D02*
X157296155Y-101323918D01*
X157296155Y-101323918D02*
X157240517Y-101268280D01*
X157240517Y-101268280D02*
X157129241Y-101212642D01*
X157129241Y-101212642D02*
X156962326Y-101212642D01*
X156962326Y-101212642D02*
X156851050Y-101268280D01*
X156851050Y-101268280D02*
X156795412Y-101323918D01*
X156795412Y-101323918D02*
X156739774Y-101435195D01*
X156739774Y-101435195D02*
X156739774Y-101769023D01*
X156739774Y-101769023D02*
X156795412Y-101880299D01*
X156795412Y-101880299D02*
X156851050Y-101935938D01*
X156851050Y-101935938D02*
X156962326Y-101991576D01*
X156962326Y-101991576D02*
X157129241Y-101991576D01*
X156072117Y-101991576D02*
X156183393Y-101935938D01*
X156183393Y-101935938D02*
X156239031Y-101880299D01*
X156239031Y-101880299D02*
X156294669Y-101769023D01*
X156294669Y-101769023D02*
X156294669Y-101435195D01*
X156294669Y-101435195D02*
X156239031Y-101323918D01*
X156239031Y-101323918D02*
X156183393Y-101268280D01*
X156183393Y-101268280D02*
X156072117Y-101212642D01*
X156072117Y-101212642D02*
X155905202Y-101212642D01*
X155905202Y-101212642D02*
X155793926Y-101268280D01*
X155793926Y-101268280D02*
X155738288Y-101323918D01*
X155738288Y-101323918D02*
X155682650Y-101435195D01*
X155682650Y-101435195D02*
X155682650Y-101769023D01*
X155682650Y-101769023D02*
X155738288Y-101880299D01*
X155738288Y-101880299D02*
X155793926Y-101935938D01*
X155793926Y-101935938D02*
X155905202Y-101991576D01*
X155905202Y-101991576D02*
X156072117Y-101991576D01*
X155348821Y-101212642D02*
X154903717Y-101212642D01*
X155181907Y-100823176D02*
X155181907Y-101824661D01*
X155181907Y-101824661D02*
X155126269Y-101935938D01*
X155126269Y-101935938D02*
X155014993Y-101991576D01*
X155014993Y-101991576D02*
X154903717Y-101991576D01*
X154514250Y-101212642D02*
X154514250Y-102381042D01*
X154514250Y-101268280D02*
X154402974Y-101212642D01*
X154402974Y-101212642D02*
X154180421Y-101212642D01*
X154180421Y-101212642D02*
X154069145Y-101268280D01*
X154069145Y-101268280D02*
X154013507Y-101323918D01*
X154013507Y-101323918D02*
X153957869Y-101435195D01*
X153957869Y-101435195D02*
X153957869Y-101769023D01*
X153957869Y-101769023D02*
X154013507Y-101880299D01*
X154013507Y-101880299D02*
X154069145Y-101935938D01*
X154069145Y-101935938D02*
X154180421Y-101991576D01*
X154180421Y-101991576D02*
X154402974Y-101991576D01*
X154402974Y-101991576D02*
X154514250Y-101935938D01*
X153457126Y-101991576D02*
X153457126Y-101212642D01*
X153457126Y-101435195D02*
X153401488Y-101323918D01*
X153401488Y-101323918D02*
X153345850Y-101268280D01*
X153345850Y-101268280D02*
X153234574Y-101212642D01*
X153234574Y-101212642D02*
X153123297Y-101212642D01*
X152733831Y-101991576D02*
X152733831Y-101212642D01*
X152733831Y-100823176D02*
X152789469Y-100878814D01*
X152789469Y-100878814D02*
X152733831Y-100934452D01*
X152733831Y-100934452D02*
X152678193Y-100878814D01*
X152678193Y-100878814D02*
X152733831Y-100823176D01*
X152733831Y-100823176D02*
X152733831Y-100934452D01*
X152177450Y-101212642D02*
X152177450Y-101991576D01*
X152177450Y-101323918D02*
X152121812Y-101268280D01*
X152121812Y-101268280D02*
X152010536Y-101212642D01*
X152010536Y-101212642D02*
X151843621Y-101212642D01*
X151843621Y-101212642D02*
X151732345Y-101268280D01*
X151732345Y-101268280D02*
X151676707Y-101379557D01*
X151676707Y-101379557D02*
X151676707Y-101991576D01*
X151287240Y-101212642D02*
X150842136Y-101212642D01*
X151120326Y-100823176D02*
X151120326Y-101824661D01*
X151120326Y-101824661D02*
X151064688Y-101935938D01*
X151064688Y-101935938D02*
X150953412Y-101991576D01*
X150953412Y-101991576D02*
X150842136Y-101991576D01*
X148616611Y-101991576D02*
X148672250Y-101991576D01*
X148672250Y-101991576D02*
X148783526Y-101935938D01*
X148783526Y-101935938D02*
X148950440Y-101769023D01*
X148950440Y-101769023D02*
X149228630Y-101435195D01*
X149228630Y-101435195D02*
X149339907Y-101268280D01*
X149339907Y-101268280D02*
X149395545Y-101101366D01*
X149395545Y-101101366D02*
X149395545Y-100990090D01*
X149395545Y-100990090D02*
X149339907Y-100878814D01*
X149339907Y-100878814D02*
X149228630Y-100823176D01*
X149228630Y-100823176D02*
X149172992Y-100823176D01*
X149172992Y-100823176D02*
X149061716Y-100878814D01*
X149061716Y-100878814D02*
X149006078Y-100990090D01*
X149006078Y-100990090D02*
X149006078Y-101045728D01*
X149006078Y-101045728D02*
X149061716Y-101157004D01*
X149061716Y-101157004D02*
X149117354Y-101212642D01*
X149117354Y-101212642D02*
X149451183Y-101435195D01*
X149451183Y-101435195D02*
X149506821Y-101490833D01*
X149506821Y-101490833D02*
X149562459Y-101602109D01*
X149562459Y-101602109D02*
X149562459Y-101769023D01*
X149562459Y-101769023D02*
X149506821Y-101880299D01*
X149506821Y-101880299D02*
X149451183Y-101935938D01*
X149451183Y-101935938D02*
X149339907Y-101991576D01*
X149339907Y-101991576D02*
X149172992Y-101991576D01*
X149172992Y-101991576D02*
X149061716Y-101935938D01*
X149061716Y-101935938D02*
X149006078Y-101880299D01*
X149006078Y-101880299D02*
X148839164Y-101657747D01*
X148839164Y-101657747D02*
X148783526Y-101490833D01*
X148783526Y-101490833D02*
X148783526Y-101379557D01*
X147225659Y-101212642D02*
X147225659Y-102381042D01*
X147225659Y-101268280D02*
X147114383Y-101212642D01*
X147114383Y-101212642D02*
X146891830Y-101212642D01*
X146891830Y-101212642D02*
X146780554Y-101268280D01*
X146780554Y-101268280D02*
X146724916Y-101323918D01*
X146724916Y-101323918D02*
X146669278Y-101435195D01*
X146669278Y-101435195D02*
X146669278Y-101769023D01*
X146669278Y-101769023D02*
X146724916Y-101880299D01*
X146724916Y-101880299D02*
X146780554Y-101935938D01*
X146780554Y-101935938D02*
X146891830Y-101991576D01*
X146891830Y-101991576D02*
X147114383Y-101991576D01*
X147114383Y-101991576D02*
X147225659Y-101935938D01*
X146168535Y-101991576D02*
X146168535Y-101212642D01*
X146168535Y-100823176D02*
X146224173Y-100878814D01*
X146224173Y-100878814D02*
X146168535Y-100934452D01*
X146168535Y-100934452D02*
X146112897Y-100878814D01*
X146112897Y-100878814D02*
X146168535Y-100823176D01*
X146168535Y-100823176D02*
X146168535Y-100934452D01*
X145612154Y-101212642D02*
X145612154Y-101991576D01*
X145612154Y-101323918D02*
X145556516Y-101268280D01*
X145556516Y-101268280D02*
X145445240Y-101212642D01*
X145445240Y-101212642D02*
X145278325Y-101212642D01*
X145278325Y-101212642D02*
X145167049Y-101268280D01*
X145167049Y-101268280D02*
X145111411Y-101379557D01*
X145111411Y-101379557D02*
X145111411Y-101991576D01*
X144388116Y-101991576D02*
X144499392Y-101935938D01*
X144499392Y-101935938D02*
X144555030Y-101880299D01*
X144555030Y-101880299D02*
X144610668Y-101769023D01*
X144610668Y-101769023D02*
X144610668Y-101435195D01*
X144610668Y-101435195D02*
X144555030Y-101323918D01*
X144555030Y-101323918D02*
X144499392Y-101268280D01*
X144499392Y-101268280D02*
X144388116Y-101212642D01*
X144388116Y-101212642D02*
X144221201Y-101212642D01*
X144221201Y-101212642D02*
X144109925Y-101268280D01*
X144109925Y-101268280D02*
X144054287Y-101323918D01*
X144054287Y-101323918D02*
X143998649Y-101435195D01*
X143998649Y-101435195D02*
X143998649Y-101769023D01*
X143998649Y-101769023D02*
X144054287Y-101880299D01*
X144054287Y-101880299D02*
X144109925Y-101935938D01*
X144109925Y-101935938D02*
X144221201Y-101991576D01*
X144221201Y-101991576D02*
X144388116Y-101991576D01*
X142997163Y-101212642D02*
X142997163Y-101991576D01*
X143497906Y-101212642D02*
X143497906Y-101824661D01*
X143497906Y-101824661D02*
X143442268Y-101935938D01*
X143442268Y-101935938D02*
X143330992Y-101991576D01*
X143330992Y-101991576D02*
X143164077Y-101991576D01*
X143164077Y-101991576D02*
X143052801Y-101935938D01*
X143052801Y-101935938D02*
X142997163Y-101880299D01*
X142607696Y-101212642D02*
X142162592Y-101212642D01*
X142440782Y-100823176D02*
X142440782Y-101824661D01*
X142440782Y-101824661D02*
X142385144Y-101935938D01*
X142385144Y-101935938D02*
X142273868Y-101991576D01*
X142273868Y-101991576D02*
X142162592Y-101991576D01*
X140382172Y-101991576D02*
X140382172Y-101379557D01*
X140382172Y-101379557D02*
X140437810Y-101268280D01*
X140437810Y-101268280D02*
X140549086Y-101212642D01*
X140549086Y-101212642D02*
X140771639Y-101212642D01*
X140771639Y-101212642D02*
X140882915Y-101268280D01*
X140382172Y-101935938D02*
X140493448Y-101991576D01*
X140493448Y-101991576D02*
X140771639Y-101991576D01*
X140771639Y-101991576D02*
X140882915Y-101935938D01*
X140882915Y-101935938D02*
X140938553Y-101824661D01*
X140938553Y-101824661D02*
X140938553Y-101713385D01*
X140938553Y-101713385D02*
X140882915Y-101602109D01*
X140882915Y-101602109D02*
X140771639Y-101546471D01*
X140771639Y-101546471D02*
X140493448Y-101546471D01*
X140493448Y-101546471D02*
X140382172Y-101490833D01*
X139881429Y-101935938D02*
X139770153Y-101991576D01*
X139770153Y-101991576D02*
X139547601Y-101991576D01*
X139547601Y-101991576D02*
X139436324Y-101935938D01*
X139436324Y-101935938D02*
X139380686Y-101824661D01*
X139380686Y-101824661D02*
X139380686Y-101769023D01*
X139380686Y-101769023D02*
X139436324Y-101657747D01*
X139436324Y-101657747D02*
X139547601Y-101602109D01*
X139547601Y-101602109D02*
X139714515Y-101602109D01*
X139714515Y-101602109D02*
X139825791Y-101546471D01*
X139825791Y-101546471D02*
X139881429Y-101435195D01*
X139881429Y-101435195D02*
X139881429Y-101379557D01*
X139881429Y-101379557D02*
X139825791Y-101268280D01*
X139825791Y-101268280D02*
X139714515Y-101212642D01*
X139714515Y-101212642D02*
X139547601Y-101212642D01*
X139547601Y-101212642D02*
X139436324Y-101268280D01*
X150462773Y-121875936D02*
X150462773Y-122432317D01*
X150462773Y-122432317D02*
X149906392Y-122487955D01*
X149906392Y-122487955D02*
X149962031Y-122432317D01*
X149962031Y-122432317D02*
X150017669Y-122321041D01*
X150017669Y-122321041D02*
X150017669Y-122042850D01*
X150017669Y-122042850D02*
X149962031Y-121931574D01*
X149962031Y-121931574D02*
X149906392Y-121875936D01*
X149906392Y-121875936D02*
X149795116Y-121820298D01*
X149795116Y-121820298D02*
X149516926Y-121820298D01*
X149516926Y-121820298D02*
X149405650Y-121875936D01*
X149405650Y-121875936D02*
X149350012Y-121931574D01*
X149350012Y-121931574D02*
X149294373Y-122042850D01*
X149294373Y-122042850D02*
X149294373Y-122321041D01*
X149294373Y-122321041D02*
X149350012Y-122432317D01*
X149350012Y-122432317D02*
X149405650Y-122487955D01*
X149294373Y-120429345D02*
X150462773Y-120429345D01*
X150462773Y-120429345D02*
X149294373Y-119761688D01*
X149294373Y-119761688D02*
X150462773Y-119761688D01*
X149405650Y-118537650D02*
X149350012Y-118593288D01*
X149350012Y-118593288D02*
X149294373Y-118760202D01*
X149294373Y-118760202D02*
X149294373Y-118871478D01*
X149294373Y-118871478D02*
X149350012Y-119038393D01*
X149350012Y-119038393D02*
X149461288Y-119149669D01*
X149461288Y-119149669D02*
X149572564Y-119205307D01*
X149572564Y-119205307D02*
X149795116Y-119260945D01*
X149795116Y-119260945D02*
X149962031Y-119260945D01*
X149962031Y-119260945D02*
X150184583Y-119205307D01*
X150184583Y-119205307D02*
X150295859Y-119149669D01*
X150295859Y-119149669D02*
X150407135Y-119038393D01*
X150407135Y-119038393D02*
X150462773Y-118871478D01*
X150462773Y-118871478D02*
X150462773Y-118760202D01*
X150462773Y-118760202D02*
X150407135Y-118593288D01*
X150407135Y-118593288D02*
X150351497Y-118537650D01*
M02*
