%TF.GenerationSoftware,KiCad,Pcbnew,9.0.5*%
%TF.CreationDate,2025-10-17T16:28:32+07:00*%
%TF.ProjectId,Nokia 1202 breakout,4e6f6b69-6120-4313-9230-322062726561,rev?*%
%TF.SameCoordinates,Original*%
%TF.FileFunction,Drillmap*%
%TF.FilePolarity,Positive*%
%FSLAX45Y45*%
G04 Gerber Fmt 4.5, Leading zero omitted, Abs format (unit mm)*
G04 Created by KiCad (PCBNEW 9.0.5) date 2025-10-17 16:28:32*
%MOMM*%
%LPD*%
G01*
G04 APERTURE LIST*
%ADD10C,0.100000*%
%ADD11C,0.200000*%
%ADD12C,0.101600*%
G04 APERTURE END LIST*
D10*
X16903360Y-8183235D02*
X12796860Y-8183235D01*
X12796860Y-12817485D02*
X16903360Y-12817485D01*
X12533360Y-8446735D02*
X12533360Y-12553985D01*
X17166860Y-12553985D02*
X17166860Y-8446735D01*
X16903360Y-8183235D02*
G75*
G02*
X17166865Y-8446735I0J-263505D01*
G01*
X17166860Y-12553985D02*
G75*
G02*
X16903360Y-12817480I-263500J5D01*
G01*
X12533360Y-8446735D02*
G75*
G02*
X12796860Y-8183240I263500J-5D01*
G01*
X12796860Y-12817485D02*
G75*
G02*
X12533355Y-12553985I0J263505D01*
G01*
D11*
D10*
X12757360Y-8850485D02*
X12817360Y-8910485D01*
X12817360Y-8850485D02*
X12757360Y-8910485D01*
X12757360Y-12088985D02*
X12817360Y-12148985D01*
X12817360Y-12088985D02*
X12757360Y-12148985D01*
X13201860Y-12533485D02*
X13261860Y-12593485D01*
X13261860Y-12533485D02*
X13201860Y-12593485D01*
X14027360Y-9421985D02*
X14087360Y-9481985D01*
X14087360Y-9421985D02*
X14027360Y-9481985D01*
X14344860Y-9040985D02*
X14404860Y-9100985D01*
X14404860Y-9040985D02*
X14344860Y-9100985D01*
X16440360Y-8405985D02*
X16500360Y-8465985D01*
X16500360Y-8405985D02*
X16440360Y-8465985D01*
X16440360Y-12533485D02*
X16500360Y-12593485D01*
X16500360Y-12533485D02*
X16440360Y-12593485D01*
X16884860Y-8850485D02*
X16944860Y-8910485D01*
X16944860Y-8850485D02*
X16884860Y-8910485D01*
X16884860Y-12088985D02*
X16944860Y-12148985D01*
X16944860Y-12088985D02*
X16884860Y-12148985D01*
D12*
X14012910Y-12531735D02*
G75*
G02*
X13911310Y-12531735I-50800J0D01*
G01*
X13911310Y-12531735D02*
G75*
G02*
X14012910Y-12531735I50800J0D01*
G01*
X14266910Y-12531735D02*
G75*
G02*
X14165310Y-12531735I-50800J0D01*
G01*
X14165310Y-12531735D02*
G75*
G02*
X14266910Y-12531735I50800J0D01*
G01*
X14520910Y-12531735D02*
G75*
G02*
X14419310Y-12531735I-50800J0D01*
G01*
X14419310Y-12531735D02*
G75*
G02*
X14520910Y-12531735I50800J0D01*
G01*
X14774910Y-12531735D02*
G75*
G02*
X14673310Y-12531735I-50800J0D01*
G01*
X14673310Y-12531735D02*
G75*
G02*
X14774910Y-12531735I50800J0D01*
G01*
X15028910Y-12531735D02*
G75*
G02*
X14927310Y-12531735I-50800J0D01*
G01*
X14927310Y-12531735D02*
G75*
G02*
X15028910Y-12531735I50800J0D01*
G01*
X15282910Y-12531735D02*
G75*
G02*
X15181310Y-12531735I-50800J0D01*
G01*
X15181310Y-12531735D02*
G75*
G02*
X15282910Y-12531735I50800J0D01*
G01*
X15536910Y-12531735D02*
G75*
G02*
X15435310Y-12531735I-50800J0D01*
G01*
X15435310Y-12531735D02*
G75*
G02*
X15536910Y-12531735I50800J0D01*
G01*
X15790910Y-12531735D02*
G75*
G02*
X15689310Y-12531735I-50800J0D01*
G01*
X15689310Y-12531735D02*
G75*
G02*
X15790910Y-12531735I50800J0D01*
G01*
D11*
X12789137Y-13133969D02*
X12789137Y-12933969D01*
X12789137Y-12933969D02*
X12836756Y-12933969D01*
X12836756Y-12933969D02*
X12865327Y-12943493D01*
X12865327Y-12943493D02*
X12884375Y-12962540D01*
X12884375Y-12962540D02*
X12893899Y-12981588D01*
X12893899Y-12981588D02*
X12903422Y-13019683D01*
X12903422Y-13019683D02*
X12903422Y-13048254D01*
X12903422Y-13048254D02*
X12893899Y-13086350D01*
X12893899Y-13086350D02*
X12884375Y-13105397D01*
X12884375Y-13105397D02*
X12865327Y-13124445D01*
X12865327Y-13124445D02*
X12836756Y-13133969D01*
X12836756Y-13133969D02*
X12789137Y-13133969D01*
X12989137Y-13133969D02*
X12989137Y-13000635D01*
X12989137Y-13038731D02*
X12998661Y-13019683D01*
X12998661Y-13019683D02*
X13008184Y-13010159D01*
X13008184Y-13010159D02*
X13027232Y-13000635D01*
X13027232Y-13000635D02*
X13046280Y-13000635D01*
X13112946Y-13133969D02*
X13112946Y-13000635D01*
X13112946Y-12933969D02*
X13103422Y-12943493D01*
X13103422Y-12943493D02*
X13112946Y-12953016D01*
X13112946Y-12953016D02*
X13122470Y-12943493D01*
X13122470Y-12943493D02*
X13112946Y-12933969D01*
X13112946Y-12933969D02*
X13112946Y-12953016D01*
X13236756Y-13133969D02*
X13217708Y-13124445D01*
X13217708Y-13124445D02*
X13208184Y-13105397D01*
X13208184Y-13105397D02*
X13208184Y-12933969D01*
X13341518Y-13133969D02*
X13322470Y-13124445D01*
X13322470Y-13124445D02*
X13312946Y-13105397D01*
X13312946Y-13105397D02*
X13312946Y-12933969D01*
X13570089Y-13133969D02*
X13570089Y-12933969D01*
X13570089Y-12933969D02*
X13636756Y-13076826D01*
X13636756Y-13076826D02*
X13703422Y-12933969D01*
X13703422Y-12933969D02*
X13703422Y-13133969D01*
X13884375Y-13133969D02*
X13884375Y-13029207D01*
X13884375Y-13029207D02*
X13874851Y-13010159D01*
X13874851Y-13010159D02*
X13855803Y-13000635D01*
X13855803Y-13000635D02*
X13817708Y-13000635D01*
X13817708Y-13000635D02*
X13798661Y-13010159D01*
X13884375Y-13124445D02*
X13865327Y-13133969D01*
X13865327Y-13133969D02*
X13817708Y-13133969D01*
X13817708Y-13133969D02*
X13798661Y-13124445D01*
X13798661Y-13124445D02*
X13789137Y-13105397D01*
X13789137Y-13105397D02*
X13789137Y-13086350D01*
X13789137Y-13086350D02*
X13798661Y-13067302D01*
X13798661Y-13067302D02*
X13817708Y-13057778D01*
X13817708Y-13057778D02*
X13865327Y-13057778D01*
X13865327Y-13057778D02*
X13884375Y-13048254D01*
X13979613Y-13000635D02*
X13979613Y-13200635D01*
X13979613Y-13010159D02*
X13998661Y-13000635D01*
X13998661Y-13000635D02*
X14036756Y-13000635D01*
X14036756Y-13000635D02*
X14055803Y-13010159D01*
X14055803Y-13010159D02*
X14065327Y-13019683D01*
X14065327Y-13019683D02*
X14074851Y-13038731D01*
X14074851Y-13038731D02*
X14074851Y-13095873D01*
X14074851Y-13095873D02*
X14065327Y-13114921D01*
X14065327Y-13114921D02*
X14055803Y-13124445D01*
X14055803Y-13124445D02*
X14036756Y-13133969D01*
X14036756Y-13133969D02*
X13998661Y-13133969D01*
X13998661Y-13133969D02*
X13979613Y-13124445D01*
X14160565Y-13114921D02*
X14170089Y-13124445D01*
X14170089Y-13124445D02*
X14160565Y-13133969D01*
X14160565Y-13133969D02*
X14151042Y-13124445D01*
X14151042Y-13124445D02*
X14160565Y-13114921D01*
X14160565Y-13114921D02*
X14160565Y-13133969D01*
X14160565Y-13010159D02*
X14170089Y-13019683D01*
X14170089Y-13019683D02*
X14160565Y-13029207D01*
X14160565Y-13029207D02*
X14151042Y-13019683D01*
X14151042Y-13019683D02*
X14160565Y-13010159D01*
X14160565Y-13010159D02*
X14160565Y-13029207D01*
D10*
X12468360Y-13432485D02*
X12528360Y-13492485D01*
X12528360Y-13432485D02*
X12468360Y-13492485D01*
D11*
X12827232Y-13353969D02*
X12846280Y-13353969D01*
X12846280Y-13353969D02*
X12865327Y-13363493D01*
X12865327Y-13363493D02*
X12874851Y-13373016D01*
X12874851Y-13373016D02*
X12884375Y-13392064D01*
X12884375Y-13392064D02*
X12893899Y-13430159D01*
X12893899Y-13430159D02*
X12893899Y-13477778D01*
X12893899Y-13477778D02*
X12884375Y-13515873D01*
X12884375Y-13515873D02*
X12874851Y-13534921D01*
X12874851Y-13534921D02*
X12865327Y-13544445D01*
X12865327Y-13544445D02*
X12846280Y-13553969D01*
X12846280Y-13553969D02*
X12827232Y-13553969D01*
X12827232Y-13553969D02*
X12808184Y-13544445D01*
X12808184Y-13544445D02*
X12798661Y-13534921D01*
X12798661Y-13534921D02*
X12789137Y-13515873D01*
X12789137Y-13515873D02*
X12779613Y-13477778D01*
X12779613Y-13477778D02*
X12779613Y-13430159D01*
X12779613Y-13430159D02*
X12789137Y-13392064D01*
X12789137Y-13392064D02*
X12798661Y-13373016D01*
X12798661Y-13373016D02*
X12808184Y-13363493D01*
X12808184Y-13363493D02*
X12827232Y-13353969D01*
X12979613Y-13534921D02*
X12989137Y-13544445D01*
X12989137Y-13544445D02*
X12979613Y-13553969D01*
X12979613Y-13553969D02*
X12970089Y-13544445D01*
X12970089Y-13544445D02*
X12979613Y-13534921D01*
X12979613Y-13534921D02*
X12979613Y-13553969D01*
X13160565Y-13353969D02*
X13122470Y-13353969D01*
X13122470Y-13353969D02*
X13103422Y-13363493D01*
X13103422Y-13363493D02*
X13093899Y-13373016D01*
X13093899Y-13373016D02*
X13074851Y-13401588D01*
X13074851Y-13401588D02*
X13065327Y-13439683D01*
X13065327Y-13439683D02*
X13065327Y-13515873D01*
X13065327Y-13515873D02*
X13074851Y-13534921D01*
X13074851Y-13534921D02*
X13084375Y-13544445D01*
X13084375Y-13544445D02*
X13103422Y-13553969D01*
X13103422Y-13553969D02*
X13141518Y-13553969D01*
X13141518Y-13553969D02*
X13160565Y-13544445D01*
X13160565Y-13544445D02*
X13170089Y-13534921D01*
X13170089Y-13534921D02*
X13179613Y-13515873D01*
X13179613Y-13515873D02*
X13179613Y-13468254D01*
X13179613Y-13468254D02*
X13170089Y-13449207D01*
X13170089Y-13449207D02*
X13160565Y-13439683D01*
X13160565Y-13439683D02*
X13141518Y-13430159D01*
X13141518Y-13430159D02*
X13103422Y-13430159D01*
X13103422Y-13430159D02*
X13084375Y-13439683D01*
X13084375Y-13439683D02*
X13074851Y-13449207D01*
X13074851Y-13449207D02*
X13065327Y-13468254D01*
X13303422Y-13353969D02*
X13322470Y-13353969D01*
X13322470Y-13353969D02*
X13341518Y-13363493D01*
X13341518Y-13363493D02*
X13351042Y-13373016D01*
X13351042Y-13373016D02*
X13360565Y-13392064D01*
X13360565Y-13392064D02*
X13370089Y-13430159D01*
X13370089Y-13430159D02*
X13370089Y-13477778D01*
X13370089Y-13477778D02*
X13360565Y-13515873D01*
X13360565Y-13515873D02*
X13351042Y-13534921D01*
X13351042Y-13534921D02*
X13341518Y-13544445D01*
X13341518Y-13544445D02*
X13322470Y-13553969D01*
X13322470Y-13553969D02*
X13303422Y-13553969D01*
X13303422Y-13553969D02*
X13284375Y-13544445D01*
X13284375Y-13544445D02*
X13274851Y-13534921D01*
X13274851Y-13534921D02*
X13265327Y-13515873D01*
X13265327Y-13515873D02*
X13255803Y-13477778D01*
X13255803Y-13477778D02*
X13255803Y-13430159D01*
X13255803Y-13430159D02*
X13265327Y-13392064D01*
X13265327Y-13392064D02*
X13274851Y-13373016D01*
X13274851Y-13373016D02*
X13284375Y-13363493D01*
X13284375Y-13363493D02*
X13303422Y-13353969D01*
X13493899Y-13353969D02*
X13512946Y-13353969D01*
X13512946Y-13353969D02*
X13531994Y-13363493D01*
X13531994Y-13363493D02*
X13541518Y-13373016D01*
X13541518Y-13373016D02*
X13551042Y-13392064D01*
X13551042Y-13392064D02*
X13560565Y-13430159D01*
X13560565Y-13430159D02*
X13560565Y-13477778D01*
X13560565Y-13477778D02*
X13551042Y-13515873D01*
X13551042Y-13515873D02*
X13541518Y-13534921D01*
X13541518Y-13534921D02*
X13531994Y-13544445D01*
X13531994Y-13544445D02*
X13512946Y-13553969D01*
X13512946Y-13553969D02*
X13493899Y-13553969D01*
X13493899Y-13553969D02*
X13474851Y-13544445D01*
X13474851Y-13544445D02*
X13465327Y-13534921D01*
X13465327Y-13534921D02*
X13455803Y-13515873D01*
X13455803Y-13515873D02*
X13446280Y-13477778D01*
X13446280Y-13477778D02*
X13446280Y-13430159D01*
X13446280Y-13430159D02*
X13455803Y-13392064D01*
X13455803Y-13392064D02*
X13465327Y-13373016D01*
X13465327Y-13373016D02*
X13474851Y-13363493D01*
X13474851Y-13363493D02*
X13493899Y-13353969D01*
X13646280Y-13553969D02*
X13646280Y-13420635D01*
X13646280Y-13439683D02*
X13655803Y-13430159D01*
X13655803Y-13430159D02*
X13674851Y-13420635D01*
X13674851Y-13420635D02*
X13703423Y-13420635D01*
X13703423Y-13420635D02*
X13722470Y-13430159D01*
X13722470Y-13430159D02*
X13731994Y-13449207D01*
X13731994Y-13449207D02*
X13731994Y-13553969D01*
X13731994Y-13449207D02*
X13741518Y-13430159D01*
X13741518Y-13430159D02*
X13760565Y-13420635D01*
X13760565Y-13420635D02*
X13789137Y-13420635D01*
X13789137Y-13420635D02*
X13808184Y-13430159D01*
X13808184Y-13430159D02*
X13817708Y-13449207D01*
X13817708Y-13449207D02*
X13817708Y-13553969D01*
X13912946Y-13553969D02*
X13912946Y-13420635D01*
X13912946Y-13439683D02*
X13922470Y-13430159D01*
X13922470Y-13430159D02*
X13941518Y-13420635D01*
X13941518Y-13420635D02*
X13970089Y-13420635D01*
X13970089Y-13420635D02*
X13989137Y-13430159D01*
X13989137Y-13430159D02*
X13998661Y-13449207D01*
X13998661Y-13449207D02*
X13998661Y-13553969D01*
X13998661Y-13449207D02*
X14008184Y-13430159D01*
X14008184Y-13430159D02*
X14027232Y-13420635D01*
X14027232Y-13420635D02*
X14055803Y-13420635D01*
X14055803Y-13420635D02*
X14074851Y-13430159D01*
X14074851Y-13430159D02*
X14084375Y-13449207D01*
X14084375Y-13449207D02*
X14084375Y-13553969D01*
X14474851Y-13344445D02*
X14303423Y-13601588D01*
X14731994Y-13353969D02*
X14751042Y-13353969D01*
X14751042Y-13353969D02*
X14770089Y-13363493D01*
X14770089Y-13363493D02*
X14779613Y-13373016D01*
X14779613Y-13373016D02*
X14789137Y-13392064D01*
X14789137Y-13392064D02*
X14798661Y-13430159D01*
X14798661Y-13430159D02*
X14798661Y-13477778D01*
X14798661Y-13477778D02*
X14789137Y-13515873D01*
X14789137Y-13515873D02*
X14779613Y-13534921D01*
X14779613Y-13534921D02*
X14770089Y-13544445D01*
X14770089Y-13544445D02*
X14751042Y-13553969D01*
X14751042Y-13553969D02*
X14731994Y-13553969D01*
X14731994Y-13553969D02*
X14712946Y-13544445D01*
X14712946Y-13544445D02*
X14703423Y-13534921D01*
X14703423Y-13534921D02*
X14693899Y-13515873D01*
X14693899Y-13515873D02*
X14684375Y-13477778D01*
X14684375Y-13477778D02*
X14684375Y-13430159D01*
X14684375Y-13430159D02*
X14693899Y-13392064D01*
X14693899Y-13392064D02*
X14703423Y-13373016D01*
X14703423Y-13373016D02*
X14712946Y-13363493D01*
X14712946Y-13363493D02*
X14731994Y-13353969D01*
X14884375Y-13534921D02*
X14893899Y-13544445D01*
X14893899Y-13544445D02*
X14884375Y-13553969D01*
X14884375Y-13553969D02*
X14874851Y-13544445D01*
X14874851Y-13544445D02*
X14884375Y-13534921D01*
X14884375Y-13534921D02*
X14884375Y-13553969D01*
X15017708Y-13353969D02*
X15036756Y-13353969D01*
X15036756Y-13353969D02*
X15055804Y-13363493D01*
X15055804Y-13363493D02*
X15065327Y-13373016D01*
X15065327Y-13373016D02*
X15074851Y-13392064D01*
X15074851Y-13392064D02*
X15084375Y-13430159D01*
X15084375Y-13430159D02*
X15084375Y-13477778D01*
X15084375Y-13477778D02*
X15074851Y-13515873D01*
X15074851Y-13515873D02*
X15065327Y-13534921D01*
X15065327Y-13534921D02*
X15055804Y-13544445D01*
X15055804Y-13544445D02*
X15036756Y-13553969D01*
X15036756Y-13553969D02*
X15017708Y-13553969D01*
X15017708Y-13553969D02*
X14998661Y-13544445D01*
X14998661Y-13544445D02*
X14989137Y-13534921D01*
X14989137Y-13534921D02*
X14979613Y-13515873D01*
X14979613Y-13515873D02*
X14970089Y-13477778D01*
X14970089Y-13477778D02*
X14970089Y-13430159D01*
X14970089Y-13430159D02*
X14979613Y-13392064D01*
X14979613Y-13392064D02*
X14989137Y-13373016D01*
X14989137Y-13373016D02*
X14998661Y-13363493D01*
X14998661Y-13363493D02*
X15017708Y-13353969D01*
X15160566Y-13373016D02*
X15170089Y-13363493D01*
X15170089Y-13363493D02*
X15189137Y-13353969D01*
X15189137Y-13353969D02*
X15236756Y-13353969D01*
X15236756Y-13353969D02*
X15255804Y-13363493D01*
X15255804Y-13363493D02*
X15265327Y-13373016D01*
X15265327Y-13373016D02*
X15274851Y-13392064D01*
X15274851Y-13392064D02*
X15274851Y-13411112D01*
X15274851Y-13411112D02*
X15265327Y-13439683D01*
X15265327Y-13439683D02*
X15151042Y-13553969D01*
X15151042Y-13553969D02*
X15274851Y-13553969D01*
X15341518Y-13353969D02*
X15465327Y-13353969D01*
X15465327Y-13353969D02*
X15398661Y-13430159D01*
X15398661Y-13430159D02*
X15427232Y-13430159D01*
X15427232Y-13430159D02*
X15446280Y-13439683D01*
X15446280Y-13439683D02*
X15455804Y-13449207D01*
X15455804Y-13449207D02*
X15465327Y-13468254D01*
X15465327Y-13468254D02*
X15465327Y-13515873D01*
X15465327Y-13515873D02*
X15455804Y-13534921D01*
X15455804Y-13534921D02*
X15446280Y-13544445D01*
X15446280Y-13544445D02*
X15427232Y-13553969D01*
X15427232Y-13553969D02*
X15370089Y-13553969D01*
X15370089Y-13553969D02*
X15351042Y-13544445D01*
X15351042Y-13544445D02*
X15341518Y-13534921D01*
X15636756Y-13353969D02*
X15598661Y-13353969D01*
X15598661Y-13353969D02*
X15579613Y-13363493D01*
X15579613Y-13363493D02*
X15570089Y-13373016D01*
X15570089Y-13373016D02*
X15551042Y-13401588D01*
X15551042Y-13401588D02*
X15541518Y-13439683D01*
X15541518Y-13439683D02*
X15541518Y-13515873D01*
X15541518Y-13515873D02*
X15551042Y-13534921D01*
X15551042Y-13534921D02*
X15560566Y-13544445D01*
X15560566Y-13544445D02*
X15579613Y-13553969D01*
X15579613Y-13553969D02*
X15617708Y-13553969D01*
X15617708Y-13553969D02*
X15636756Y-13544445D01*
X15636756Y-13544445D02*
X15646280Y-13534921D01*
X15646280Y-13534921D02*
X15655804Y-13515873D01*
X15655804Y-13515873D02*
X15655804Y-13468254D01*
X15655804Y-13468254D02*
X15646280Y-13449207D01*
X15646280Y-13449207D02*
X15636756Y-13439683D01*
X15636756Y-13439683D02*
X15617708Y-13430159D01*
X15617708Y-13430159D02*
X15579613Y-13430159D01*
X15579613Y-13430159D02*
X15560566Y-13439683D01*
X15560566Y-13439683D02*
X15551042Y-13449207D01*
X15551042Y-13449207D02*
X15541518Y-13468254D01*
X15731994Y-13353969D02*
X15731994Y-13392064D01*
X15808185Y-13353969D02*
X15808185Y-13392064D01*
X16103423Y-13630159D02*
X16093899Y-13620635D01*
X16093899Y-13620635D02*
X16074851Y-13592064D01*
X16074851Y-13592064D02*
X16065328Y-13573016D01*
X16065328Y-13573016D02*
X16055804Y-13544445D01*
X16055804Y-13544445D02*
X16046280Y-13496826D01*
X16046280Y-13496826D02*
X16046280Y-13458731D01*
X16046280Y-13458731D02*
X16055804Y-13411112D01*
X16055804Y-13411112D02*
X16065328Y-13382540D01*
X16065328Y-13382540D02*
X16074851Y-13363493D01*
X16074851Y-13363493D02*
X16093899Y-13334921D01*
X16093899Y-13334921D02*
X16103423Y-13325397D01*
X16189137Y-13553969D02*
X16227232Y-13553969D01*
X16227232Y-13553969D02*
X16246280Y-13544445D01*
X16246280Y-13544445D02*
X16255804Y-13534921D01*
X16255804Y-13534921D02*
X16274851Y-13506350D01*
X16274851Y-13506350D02*
X16284375Y-13468254D01*
X16284375Y-13468254D02*
X16284375Y-13392064D01*
X16284375Y-13392064D02*
X16274851Y-13373016D01*
X16274851Y-13373016D02*
X16265328Y-13363493D01*
X16265328Y-13363493D02*
X16246280Y-13353969D01*
X16246280Y-13353969D02*
X16208185Y-13353969D01*
X16208185Y-13353969D02*
X16189137Y-13363493D01*
X16189137Y-13363493D02*
X16179613Y-13373016D01*
X16179613Y-13373016D02*
X16170089Y-13392064D01*
X16170089Y-13392064D02*
X16170089Y-13439683D01*
X16170089Y-13439683D02*
X16179613Y-13458731D01*
X16179613Y-13458731D02*
X16189137Y-13468254D01*
X16189137Y-13468254D02*
X16208185Y-13477778D01*
X16208185Y-13477778D02*
X16246280Y-13477778D01*
X16246280Y-13477778D02*
X16265328Y-13468254D01*
X16265328Y-13468254D02*
X16274851Y-13458731D01*
X16274851Y-13458731D02*
X16284375Y-13439683D01*
X16522470Y-13553969D02*
X16522470Y-13353969D01*
X16608185Y-13553969D02*
X16608185Y-13449207D01*
X16608185Y-13449207D02*
X16598661Y-13430159D01*
X16598661Y-13430159D02*
X16579613Y-13420635D01*
X16579613Y-13420635D02*
X16551042Y-13420635D01*
X16551042Y-13420635D02*
X16531994Y-13430159D01*
X16531994Y-13430159D02*
X16522470Y-13439683D01*
X16731994Y-13553969D02*
X16712947Y-13544445D01*
X16712947Y-13544445D02*
X16703423Y-13534921D01*
X16703423Y-13534921D02*
X16693899Y-13515873D01*
X16693899Y-13515873D02*
X16693899Y-13458731D01*
X16693899Y-13458731D02*
X16703423Y-13439683D01*
X16703423Y-13439683D02*
X16712947Y-13430159D01*
X16712947Y-13430159D02*
X16731994Y-13420635D01*
X16731994Y-13420635D02*
X16760566Y-13420635D01*
X16760566Y-13420635D02*
X16779613Y-13430159D01*
X16779613Y-13430159D02*
X16789137Y-13439683D01*
X16789137Y-13439683D02*
X16798661Y-13458731D01*
X16798661Y-13458731D02*
X16798661Y-13515873D01*
X16798661Y-13515873D02*
X16789137Y-13534921D01*
X16789137Y-13534921D02*
X16779613Y-13544445D01*
X16779613Y-13544445D02*
X16760566Y-13553969D01*
X16760566Y-13553969D02*
X16731994Y-13553969D01*
X16912947Y-13553969D02*
X16893899Y-13544445D01*
X16893899Y-13544445D02*
X16884375Y-13525397D01*
X16884375Y-13525397D02*
X16884375Y-13353969D01*
X17065328Y-13544445D02*
X17046280Y-13553969D01*
X17046280Y-13553969D02*
X17008185Y-13553969D01*
X17008185Y-13553969D02*
X16989137Y-13544445D01*
X16989137Y-13544445D02*
X16979613Y-13525397D01*
X16979613Y-13525397D02*
X16979613Y-13449207D01*
X16979613Y-13449207D02*
X16989137Y-13430159D01*
X16989137Y-13430159D02*
X17008185Y-13420635D01*
X17008185Y-13420635D02*
X17046280Y-13420635D01*
X17046280Y-13420635D02*
X17065328Y-13430159D01*
X17065328Y-13430159D02*
X17074852Y-13449207D01*
X17074852Y-13449207D02*
X17074852Y-13468254D01*
X17074852Y-13468254D02*
X16979613Y-13487302D01*
X17151042Y-13544445D02*
X17170090Y-13553969D01*
X17170090Y-13553969D02*
X17208185Y-13553969D01*
X17208185Y-13553969D02*
X17227233Y-13544445D01*
X17227233Y-13544445D02*
X17236756Y-13525397D01*
X17236756Y-13525397D02*
X17236756Y-13515873D01*
X17236756Y-13515873D02*
X17227233Y-13496826D01*
X17227233Y-13496826D02*
X17208185Y-13487302D01*
X17208185Y-13487302D02*
X17179613Y-13487302D01*
X17179613Y-13487302D02*
X17160566Y-13477778D01*
X17160566Y-13477778D02*
X17151042Y-13458731D01*
X17151042Y-13458731D02*
X17151042Y-13449207D01*
X17151042Y-13449207D02*
X17160566Y-13430159D01*
X17160566Y-13430159D02*
X17179613Y-13420635D01*
X17179613Y-13420635D02*
X17208185Y-13420635D01*
X17208185Y-13420635D02*
X17227233Y-13430159D01*
X17303423Y-13630159D02*
X17312947Y-13620635D01*
X17312947Y-13620635D02*
X17331994Y-13592064D01*
X17331994Y-13592064D02*
X17341518Y-13573016D01*
X17341518Y-13573016D02*
X17351042Y-13544445D01*
X17351042Y-13544445D02*
X17360566Y-13496826D01*
X17360566Y-13496826D02*
X17360566Y-13458731D01*
X17360566Y-13458731D02*
X17351042Y-13411112D01*
X17351042Y-13411112D02*
X17341518Y-13382540D01*
X17341518Y-13382540D02*
X17331994Y-13363493D01*
X17331994Y-13363493D02*
X17312947Y-13334921D01*
X17312947Y-13334921D02*
X17303423Y-13325397D01*
D12*
X12528360Y-13726485D02*
G75*
G02*
X12426760Y-13726485I-50800J0D01*
G01*
X12426760Y-13726485D02*
G75*
G02*
X12528360Y-13726485I50800J0D01*
G01*
D11*
X12893899Y-13817969D02*
X12779613Y-13817969D01*
X12836756Y-13817969D02*
X12836756Y-13617969D01*
X12836756Y-13617969D02*
X12817708Y-13646540D01*
X12817708Y-13646540D02*
X12798661Y-13665588D01*
X12798661Y-13665588D02*
X12779613Y-13675112D01*
X12979613Y-13798921D02*
X12989137Y-13808445D01*
X12989137Y-13808445D02*
X12979613Y-13817969D01*
X12979613Y-13817969D02*
X12970089Y-13808445D01*
X12970089Y-13808445D02*
X12979613Y-13798921D01*
X12979613Y-13798921D02*
X12979613Y-13817969D01*
X13112946Y-13617969D02*
X13131994Y-13617969D01*
X13131994Y-13617969D02*
X13151042Y-13627493D01*
X13151042Y-13627493D02*
X13160565Y-13637016D01*
X13160565Y-13637016D02*
X13170089Y-13656064D01*
X13170089Y-13656064D02*
X13179613Y-13694159D01*
X13179613Y-13694159D02*
X13179613Y-13741778D01*
X13179613Y-13741778D02*
X13170089Y-13779873D01*
X13170089Y-13779873D02*
X13160565Y-13798921D01*
X13160565Y-13798921D02*
X13151042Y-13808445D01*
X13151042Y-13808445D02*
X13131994Y-13817969D01*
X13131994Y-13817969D02*
X13112946Y-13817969D01*
X13112946Y-13817969D02*
X13093899Y-13808445D01*
X13093899Y-13808445D02*
X13084375Y-13798921D01*
X13084375Y-13798921D02*
X13074851Y-13779873D01*
X13074851Y-13779873D02*
X13065327Y-13741778D01*
X13065327Y-13741778D02*
X13065327Y-13694159D01*
X13065327Y-13694159D02*
X13074851Y-13656064D01*
X13074851Y-13656064D02*
X13084375Y-13637016D01*
X13084375Y-13637016D02*
X13093899Y-13627493D01*
X13093899Y-13627493D02*
X13112946Y-13617969D01*
X13370089Y-13817969D02*
X13255803Y-13817969D01*
X13312946Y-13817969D02*
X13312946Y-13617969D01*
X13312946Y-13617969D02*
X13293899Y-13646540D01*
X13293899Y-13646540D02*
X13274851Y-13665588D01*
X13274851Y-13665588D02*
X13255803Y-13675112D01*
X13541518Y-13617969D02*
X13503422Y-13617969D01*
X13503422Y-13617969D02*
X13484375Y-13627493D01*
X13484375Y-13627493D02*
X13474851Y-13637016D01*
X13474851Y-13637016D02*
X13455803Y-13665588D01*
X13455803Y-13665588D02*
X13446280Y-13703683D01*
X13446280Y-13703683D02*
X13446280Y-13779873D01*
X13446280Y-13779873D02*
X13455803Y-13798921D01*
X13455803Y-13798921D02*
X13465327Y-13808445D01*
X13465327Y-13808445D02*
X13484375Y-13817969D01*
X13484375Y-13817969D02*
X13522470Y-13817969D01*
X13522470Y-13817969D02*
X13541518Y-13808445D01*
X13541518Y-13808445D02*
X13551042Y-13798921D01*
X13551042Y-13798921D02*
X13560565Y-13779873D01*
X13560565Y-13779873D02*
X13560565Y-13732254D01*
X13560565Y-13732254D02*
X13551042Y-13713207D01*
X13551042Y-13713207D02*
X13541518Y-13703683D01*
X13541518Y-13703683D02*
X13522470Y-13694159D01*
X13522470Y-13694159D02*
X13484375Y-13694159D01*
X13484375Y-13694159D02*
X13465327Y-13703683D01*
X13465327Y-13703683D02*
X13455803Y-13713207D01*
X13455803Y-13713207D02*
X13446280Y-13732254D01*
X13646280Y-13817969D02*
X13646280Y-13684635D01*
X13646280Y-13703683D02*
X13655803Y-13694159D01*
X13655803Y-13694159D02*
X13674851Y-13684635D01*
X13674851Y-13684635D02*
X13703423Y-13684635D01*
X13703423Y-13684635D02*
X13722470Y-13694159D01*
X13722470Y-13694159D02*
X13731994Y-13713207D01*
X13731994Y-13713207D02*
X13731994Y-13817969D01*
X13731994Y-13713207D02*
X13741518Y-13694159D01*
X13741518Y-13694159D02*
X13760565Y-13684635D01*
X13760565Y-13684635D02*
X13789137Y-13684635D01*
X13789137Y-13684635D02*
X13808184Y-13694159D01*
X13808184Y-13694159D02*
X13817708Y-13713207D01*
X13817708Y-13713207D02*
X13817708Y-13817969D01*
X13912946Y-13817969D02*
X13912946Y-13684635D01*
X13912946Y-13703683D02*
X13922470Y-13694159D01*
X13922470Y-13694159D02*
X13941518Y-13684635D01*
X13941518Y-13684635D02*
X13970089Y-13684635D01*
X13970089Y-13684635D02*
X13989137Y-13694159D01*
X13989137Y-13694159D02*
X13998661Y-13713207D01*
X13998661Y-13713207D02*
X13998661Y-13817969D01*
X13998661Y-13713207D02*
X14008184Y-13694159D01*
X14008184Y-13694159D02*
X14027232Y-13684635D01*
X14027232Y-13684635D02*
X14055803Y-13684635D01*
X14055803Y-13684635D02*
X14074851Y-13694159D01*
X14074851Y-13694159D02*
X14084375Y-13713207D01*
X14084375Y-13713207D02*
X14084375Y-13817969D01*
X14474851Y-13608445D02*
X14303423Y-13865588D01*
X14731994Y-13617969D02*
X14751042Y-13617969D01*
X14751042Y-13617969D02*
X14770089Y-13627493D01*
X14770089Y-13627493D02*
X14779613Y-13637016D01*
X14779613Y-13637016D02*
X14789137Y-13656064D01*
X14789137Y-13656064D02*
X14798661Y-13694159D01*
X14798661Y-13694159D02*
X14798661Y-13741778D01*
X14798661Y-13741778D02*
X14789137Y-13779873D01*
X14789137Y-13779873D02*
X14779613Y-13798921D01*
X14779613Y-13798921D02*
X14770089Y-13808445D01*
X14770089Y-13808445D02*
X14751042Y-13817969D01*
X14751042Y-13817969D02*
X14731994Y-13817969D01*
X14731994Y-13817969D02*
X14712946Y-13808445D01*
X14712946Y-13808445D02*
X14703423Y-13798921D01*
X14703423Y-13798921D02*
X14693899Y-13779873D01*
X14693899Y-13779873D02*
X14684375Y-13741778D01*
X14684375Y-13741778D02*
X14684375Y-13694159D01*
X14684375Y-13694159D02*
X14693899Y-13656064D01*
X14693899Y-13656064D02*
X14703423Y-13637016D01*
X14703423Y-13637016D02*
X14712946Y-13627493D01*
X14712946Y-13627493D02*
X14731994Y-13617969D01*
X14884375Y-13798921D02*
X14893899Y-13808445D01*
X14893899Y-13808445D02*
X14884375Y-13817969D01*
X14884375Y-13817969D02*
X14874851Y-13808445D01*
X14874851Y-13808445D02*
X14884375Y-13798921D01*
X14884375Y-13798921D02*
X14884375Y-13817969D01*
X15017708Y-13617969D02*
X15036756Y-13617969D01*
X15036756Y-13617969D02*
X15055804Y-13627493D01*
X15055804Y-13627493D02*
X15065327Y-13637016D01*
X15065327Y-13637016D02*
X15074851Y-13656064D01*
X15074851Y-13656064D02*
X15084375Y-13694159D01*
X15084375Y-13694159D02*
X15084375Y-13741778D01*
X15084375Y-13741778D02*
X15074851Y-13779873D01*
X15074851Y-13779873D02*
X15065327Y-13798921D01*
X15065327Y-13798921D02*
X15055804Y-13808445D01*
X15055804Y-13808445D02*
X15036756Y-13817969D01*
X15036756Y-13817969D02*
X15017708Y-13817969D01*
X15017708Y-13817969D02*
X14998661Y-13808445D01*
X14998661Y-13808445D02*
X14989137Y-13798921D01*
X14989137Y-13798921D02*
X14979613Y-13779873D01*
X14979613Y-13779873D02*
X14970089Y-13741778D01*
X14970089Y-13741778D02*
X14970089Y-13694159D01*
X14970089Y-13694159D02*
X14979613Y-13656064D01*
X14979613Y-13656064D02*
X14989137Y-13637016D01*
X14989137Y-13637016D02*
X14998661Y-13627493D01*
X14998661Y-13627493D02*
X15017708Y-13617969D01*
X15255804Y-13684635D02*
X15255804Y-13817969D01*
X15208185Y-13608445D02*
X15160566Y-13751302D01*
X15160566Y-13751302D02*
X15284375Y-13751302D01*
X15398661Y-13617969D02*
X15417708Y-13617969D01*
X15417708Y-13617969D02*
X15436756Y-13627493D01*
X15436756Y-13627493D02*
X15446280Y-13637016D01*
X15446280Y-13637016D02*
X15455804Y-13656064D01*
X15455804Y-13656064D02*
X15465327Y-13694159D01*
X15465327Y-13694159D02*
X15465327Y-13741778D01*
X15465327Y-13741778D02*
X15455804Y-13779873D01*
X15455804Y-13779873D02*
X15446280Y-13798921D01*
X15446280Y-13798921D02*
X15436756Y-13808445D01*
X15436756Y-13808445D02*
X15417708Y-13817969D01*
X15417708Y-13817969D02*
X15398661Y-13817969D01*
X15398661Y-13817969D02*
X15379613Y-13808445D01*
X15379613Y-13808445D02*
X15370089Y-13798921D01*
X15370089Y-13798921D02*
X15360566Y-13779873D01*
X15360566Y-13779873D02*
X15351042Y-13741778D01*
X15351042Y-13741778D02*
X15351042Y-13694159D01*
X15351042Y-13694159D02*
X15360566Y-13656064D01*
X15360566Y-13656064D02*
X15370089Y-13637016D01*
X15370089Y-13637016D02*
X15379613Y-13627493D01*
X15379613Y-13627493D02*
X15398661Y-13617969D01*
X15589137Y-13617969D02*
X15608185Y-13617969D01*
X15608185Y-13617969D02*
X15627232Y-13627493D01*
X15627232Y-13627493D02*
X15636756Y-13637016D01*
X15636756Y-13637016D02*
X15646280Y-13656064D01*
X15646280Y-13656064D02*
X15655804Y-13694159D01*
X15655804Y-13694159D02*
X15655804Y-13741778D01*
X15655804Y-13741778D02*
X15646280Y-13779873D01*
X15646280Y-13779873D02*
X15636756Y-13798921D01*
X15636756Y-13798921D02*
X15627232Y-13808445D01*
X15627232Y-13808445D02*
X15608185Y-13817969D01*
X15608185Y-13817969D02*
X15589137Y-13817969D01*
X15589137Y-13817969D02*
X15570089Y-13808445D01*
X15570089Y-13808445D02*
X15560566Y-13798921D01*
X15560566Y-13798921D02*
X15551042Y-13779873D01*
X15551042Y-13779873D02*
X15541518Y-13741778D01*
X15541518Y-13741778D02*
X15541518Y-13694159D01*
X15541518Y-13694159D02*
X15551042Y-13656064D01*
X15551042Y-13656064D02*
X15560566Y-13637016D01*
X15560566Y-13637016D02*
X15570089Y-13627493D01*
X15570089Y-13627493D02*
X15589137Y-13617969D01*
X15731994Y-13617969D02*
X15731994Y-13656064D01*
X15808185Y-13617969D02*
X15808185Y-13656064D01*
X16103423Y-13894159D02*
X16093899Y-13884635D01*
X16093899Y-13884635D02*
X16074851Y-13856064D01*
X16074851Y-13856064D02*
X16065328Y-13837016D01*
X16065328Y-13837016D02*
X16055804Y-13808445D01*
X16055804Y-13808445D02*
X16046280Y-13760826D01*
X16046280Y-13760826D02*
X16046280Y-13722731D01*
X16046280Y-13722731D02*
X16055804Y-13675112D01*
X16055804Y-13675112D02*
X16065328Y-13646540D01*
X16065328Y-13646540D02*
X16074851Y-13627493D01*
X16074851Y-13627493D02*
X16093899Y-13598921D01*
X16093899Y-13598921D02*
X16103423Y-13589397D01*
X16208185Y-13703683D02*
X16189137Y-13694159D01*
X16189137Y-13694159D02*
X16179613Y-13684635D01*
X16179613Y-13684635D02*
X16170089Y-13665588D01*
X16170089Y-13665588D02*
X16170089Y-13656064D01*
X16170089Y-13656064D02*
X16179613Y-13637016D01*
X16179613Y-13637016D02*
X16189137Y-13627493D01*
X16189137Y-13627493D02*
X16208185Y-13617969D01*
X16208185Y-13617969D02*
X16246280Y-13617969D01*
X16246280Y-13617969D02*
X16265328Y-13627493D01*
X16265328Y-13627493D02*
X16274851Y-13637016D01*
X16274851Y-13637016D02*
X16284375Y-13656064D01*
X16284375Y-13656064D02*
X16284375Y-13665588D01*
X16284375Y-13665588D02*
X16274851Y-13684635D01*
X16274851Y-13684635D02*
X16265328Y-13694159D01*
X16265328Y-13694159D02*
X16246280Y-13703683D01*
X16246280Y-13703683D02*
X16208185Y-13703683D01*
X16208185Y-13703683D02*
X16189137Y-13713207D01*
X16189137Y-13713207D02*
X16179613Y-13722731D01*
X16179613Y-13722731D02*
X16170089Y-13741778D01*
X16170089Y-13741778D02*
X16170089Y-13779873D01*
X16170089Y-13779873D02*
X16179613Y-13798921D01*
X16179613Y-13798921D02*
X16189137Y-13808445D01*
X16189137Y-13808445D02*
X16208185Y-13817969D01*
X16208185Y-13817969D02*
X16246280Y-13817969D01*
X16246280Y-13817969D02*
X16265328Y-13808445D01*
X16265328Y-13808445D02*
X16274851Y-13798921D01*
X16274851Y-13798921D02*
X16284375Y-13779873D01*
X16284375Y-13779873D02*
X16284375Y-13741778D01*
X16284375Y-13741778D02*
X16274851Y-13722731D01*
X16274851Y-13722731D02*
X16265328Y-13713207D01*
X16265328Y-13713207D02*
X16246280Y-13703683D01*
X16522470Y-13817969D02*
X16522470Y-13617969D01*
X16608185Y-13817969D02*
X16608185Y-13713207D01*
X16608185Y-13713207D02*
X16598661Y-13694159D01*
X16598661Y-13694159D02*
X16579613Y-13684635D01*
X16579613Y-13684635D02*
X16551042Y-13684635D01*
X16551042Y-13684635D02*
X16531994Y-13694159D01*
X16531994Y-13694159D02*
X16522470Y-13703683D01*
X16731994Y-13817969D02*
X16712947Y-13808445D01*
X16712947Y-13808445D02*
X16703423Y-13798921D01*
X16703423Y-13798921D02*
X16693899Y-13779873D01*
X16693899Y-13779873D02*
X16693899Y-13722731D01*
X16693899Y-13722731D02*
X16703423Y-13703683D01*
X16703423Y-13703683D02*
X16712947Y-13694159D01*
X16712947Y-13694159D02*
X16731994Y-13684635D01*
X16731994Y-13684635D02*
X16760566Y-13684635D01*
X16760566Y-13684635D02*
X16779613Y-13694159D01*
X16779613Y-13694159D02*
X16789137Y-13703683D01*
X16789137Y-13703683D02*
X16798661Y-13722731D01*
X16798661Y-13722731D02*
X16798661Y-13779873D01*
X16798661Y-13779873D02*
X16789137Y-13798921D01*
X16789137Y-13798921D02*
X16779613Y-13808445D01*
X16779613Y-13808445D02*
X16760566Y-13817969D01*
X16760566Y-13817969D02*
X16731994Y-13817969D01*
X16912947Y-13817969D02*
X16893899Y-13808445D01*
X16893899Y-13808445D02*
X16884375Y-13789397D01*
X16884375Y-13789397D02*
X16884375Y-13617969D01*
X17065328Y-13808445D02*
X17046280Y-13817969D01*
X17046280Y-13817969D02*
X17008185Y-13817969D01*
X17008185Y-13817969D02*
X16989137Y-13808445D01*
X16989137Y-13808445D02*
X16979613Y-13789397D01*
X16979613Y-13789397D02*
X16979613Y-13713207D01*
X16979613Y-13713207D02*
X16989137Y-13694159D01*
X16989137Y-13694159D02*
X17008185Y-13684635D01*
X17008185Y-13684635D02*
X17046280Y-13684635D01*
X17046280Y-13684635D02*
X17065328Y-13694159D01*
X17065328Y-13694159D02*
X17074852Y-13713207D01*
X17074852Y-13713207D02*
X17074852Y-13732254D01*
X17074852Y-13732254D02*
X16979613Y-13751302D01*
X17151042Y-13808445D02*
X17170090Y-13817969D01*
X17170090Y-13817969D02*
X17208185Y-13817969D01*
X17208185Y-13817969D02*
X17227233Y-13808445D01*
X17227233Y-13808445D02*
X17236756Y-13789397D01*
X17236756Y-13789397D02*
X17236756Y-13779873D01*
X17236756Y-13779873D02*
X17227233Y-13760826D01*
X17227233Y-13760826D02*
X17208185Y-13751302D01*
X17208185Y-13751302D02*
X17179613Y-13751302D01*
X17179613Y-13751302D02*
X17160566Y-13741778D01*
X17160566Y-13741778D02*
X17151042Y-13722731D01*
X17151042Y-13722731D02*
X17151042Y-13713207D01*
X17151042Y-13713207D02*
X17160566Y-13694159D01*
X17160566Y-13694159D02*
X17179613Y-13684635D01*
X17179613Y-13684635D02*
X17208185Y-13684635D01*
X17208185Y-13684635D02*
X17227233Y-13694159D01*
X17303423Y-13894159D02*
X17312947Y-13884635D01*
X17312947Y-13884635D02*
X17331994Y-13856064D01*
X17331994Y-13856064D02*
X17341518Y-13837016D01*
X17341518Y-13837016D02*
X17351042Y-13808445D01*
X17351042Y-13808445D02*
X17360566Y-13760826D01*
X17360566Y-13760826D02*
X17360566Y-13722731D01*
X17360566Y-13722731D02*
X17351042Y-13675112D01*
X17351042Y-13675112D02*
X17341518Y-13646540D01*
X17341518Y-13646540D02*
X17331994Y-13627493D01*
X17331994Y-13627493D02*
X17312947Y-13598921D01*
X17312947Y-13598921D02*
X17303423Y-13589397D01*
M02*
