%TF.GenerationSoftware,KiCad,Pcbnew,9.0.5*%
%TF.CreationDate,2025-10-17T16:28:27+07:00*%
%TF.ProjectId,Nokia 1202 breakout,4e6f6b69-6120-4313-9230-322062726561,rev?*%
%TF.SameCoordinates,Original*%
%TF.FileFunction,Copper,L1,Top*%
%TF.FilePolarity,Positive*%
%FSLAX46Y46*%
G04 Gerber Fmt 4.6, Leading zero omitted, Abs format (unit mm)*
G04 Created by KiCad (PCBNEW 9.0.5) date 2025-10-17 16:28:27*
%MOMM*%
%LPD*%
G01*
G04 APERTURE LIST*
G04 Aperture macros list*
%AMRoundRect*
0 Rectangle with rounded corners*
0 $1 Rounding radius*
0 $2 $3 $4 $5 $6 $7 $8 $9 X,Y pos of 4 corners*
0 Add a 4 corners polygon primitive as box body*
4,1,4,$2,$3,$4,$5,$6,$7,$8,$9,$2,$3,0*
0 Add four circle primitives for the rounded corners*
1,1,$1+$1,$2,$3*
1,1,$1+$1,$4,$5*
1,1,$1+$1,$6,$7*
1,1,$1+$1,$8,$9*
0 Add four rect primitives between the rounded corners*
20,1,$1+$1,$2,$3,$4,$5,0*
20,1,$1+$1,$4,$5,$6,$7,0*
20,1,$1+$1,$6,$7,$8,$9,0*
20,1,$1+$1,$8,$9,$2,$3,0*%
%AMOutline5P*
0 Free polygon, 5 corners , with rotation*
0 The origin of the aperture is its center*
0 number of corners: always 5*
0 $1 to $10 corner X, Y*
0 $11 Rotation angle, in degrees counterclockwise*
0 create outline with 5 corners*
4,1,5,$1,$2,$3,$4,$5,$6,$7,$8,$9,$10,$1,$2,$11*%
%AMOutline6P*
0 Free polygon, 6 corners , with rotation*
0 The origin of the aperture is its center*
0 number of corners: always 6*
0 $1 to $12 corner X, Y*
0 $13 Rotation angle, in degrees counterclockwise*
0 create outline with 6 corners*
4,1,6,$1,$2,$3,$4,$5,$6,$7,$8,$9,$10,$11,$12,$1,$2,$13*%
%AMOutline7P*
0 Free polygon, 7 corners , with rotation*
0 The origin of the aperture is its center*
0 number of corners: always 7*
0 $1 to $14 corner X, Y*
0 $15 Rotation angle, in degrees counterclockwise*
0 create outline with 7 corners*
4,1,7,$1,$2,$3,$4,$5,$6,$7,$8,$9,$10,$11,$12,$13,$14,$1,$2,$15*%
%AMOutline8P*
0 Free polygon, 8 corners , with rotation*
0 The origin of the aperture is its center*
0 number of corners: always 8*
0 $1 to $16 corner X, Y*
0 $17 Rotation angle, in degrees counterclockwise*
0 create outline with 8 corners*
4,1,8,$1,$2,$3,$4,$5,$6,$7,$8,$9,$10,$11,$12,$13,$14,$15,$16,$1,$2,$17*%
G04 Aperture macros list end*
%TA.AperFunction,SMDPad,CuDef*%
%ADD10RoundRect,0.250000X-0.650000X0.412500X-0.650000X-0.412500X0.650000X-0.412500X0.650000X0.412500X0*%
%TD*%
%TA.AperFunction,SMDPad,CuDef*%
%ADD11RoundRect,0.250000X-0.625000X0.400000X-0.625000X-0.400000X0.625000X-0.400000X0.625000X0.400000X0*%
%TD*%
%TA.AperFunction,ComponentPad*%
%ADD12Outline8P,-0.889000X0.368236X-0.368236X0.889000X0.368236X0.889000X0.889000X0.368236X0.889000X-0.368236X0.368236X-0.889000X-0.368236X-0.889000X-0.889000X-0.368236X90.000000*%
%TD*%
%TA.AperFunction,SMDPad,CuDef*%
%ADD13R,0.320000X3.000000*%
%TD*%
%TA.AperFunction,SMDPad,CuDef*%
%ADD14R,0.320000X2.800000*%
%TD*%
%TA.AperFunction,SMDPad,CuDef*%
%ADD15R,1.000000X1.400000*%
%TD*%
%TA.AperFunction,ViaPad*%
%ADD16C,0.904800*%
%TD*%
%TA.AperFunction,Conductor*%
%ADD17C,0.500000*%
%TD*%
%TA.AperFunction,Conductor*%
%ADD18C,1.000000*%
%TD*%
%TA.AperFunction,Conductor*%
%ADD19C,0.300000*%
%TD*%
%TA.AperFunction,Conductor*%
%ADD20C,0.800000*%
%TD*%
%TA.AperFunction,Conductor*%
%ADD21C,0.254000*%
%TD*%
G04 APERTURE END LIST*
D10*
%TO.P,C1,1*%
%TO.N,+3V3*%
X133271100Y-85337350D03*
%TO.P,C1,2*%
%TO.N,GND*%
X133271100Y-88462350D03*
%TD*%
D11*
%TO.P,R1,1*%
%TO.N,N$8*%
X149781100Y-85032350D03*
%TO.P,R1,2*%
%TO.N,BL*%
X149781100Y-88132350D03*
%TD*%
%TO.P,R2,1*%
%TO.N,N$8*%
X153908600Y-85032350D03*
%TO.P,R2,2*%
%TO.N,N$10*%
X153908600Y-88132350D03*
%TD*%
%TO.P,R3,1*%
%TO.N,N$9*%
X161846100Y-85032350D03*
%TO.P,R3,2*%
%TO.N,BL*%
X161846100Y-88132350D03*
%TD*%
D12*
%TO.P,JP1,1*%
%TO.N,+3V3*%
X139621100Y-125317350D03*
%TO.P,JP1,2*%
%TO.N,GND*%
X142161100Y-125317350D03*
%TO.P,JP1,3*%
%TO.N,N$1*%
X144701100Y-125317350D03*
%TO.P,JP1,4*%
%TO.N,N$2*%
X147241100Y-125317350D03*
%TO.P,JP1,5*%
%TO.N,N/C*%
X149781100Y-125317350D03*
%TO.P,JP1,6*%
%TO.N,MOSI*%
X152321100Y-125317350D03*
%TO.P,JP1,7*%
%TO.N,SCLK*%
X154861100Y-125317350D03*
%TO.P,JP1,8*%
%TO.N,BL*%
X157401100Y-125317350D03*
%TD*%
D13*
%TO.P,LCD0,0*%
%TO.N,N/C*%
X138421100Y-86128350D03*
D14*
%TO.P,LCD0,1*%
%TO.N,N$2*%
X139021100Y-86128350D03*
%TO.P,LCD0,2*%
%TO.N,N$1*%
X139621100Y-86128350D03*
%TO.P,LCD0,3*%
%TO.N,GND*%
X140221100Y-86128350D03*
%TO.P,LCD0,4*%
%TO.N,MOSI*%
X140821100Y-86128350D03*
%TO.P,LCD0,5*%
%TO.N,SCLK*%
X141421100Y-86128350D03*
%TO.P,LCD0,6*%
%TO.N,+3V3*%
X142021100Y-86128350D03*
%TO.P,LCD0,7*%
X142621100Y-86128350D03*
%TO.P,LCD0,8*%
%TO.N,GND*%
X143221100Y-86128350D03*
%TO.P,LCD0,9*%
%TO.N,N$8*%
X143821100Y-86128350D03*
%TO.P,LCD0,10*%
%TO.N,+3V3*%
X144421100Y-86128350D03*
D13*
%TO.P,LCD0,11*%
%TO.N,N/C*%
X145021100Y-86128350D03*
%TD*%
D15*
%TO.P,Q1,1*%
%TO.N,N$9*%
X158668600Y-85482350D03*
%TO.P,Q1,2*%
%TO.N,GND*%
X156768600Y-85482350D03*
%TO.P,Q1,3*%
%TO.N,N$10*%
X157718600Y-87682350D03*
%TD*%
D16*
%TO.N,GND*%
X164703600Y-84359850D03*
X169148600Y-88804850D03*
X169148600Y-121189850D03*
X140573600Y-94519850D03*
X127873600Y-88804850D03*
X143748600Y-90709850D03*
X127873600Y-121189850D03*
X132318600Y-125634850D03*
X164703600Y-125634850D03*
%TD*%
D17*
%TO.N,N$8*%
X143821100Y-88877350D02*
X144383600Y-89439850D01*
D18*
%TO.N,+3V3*%
X135811100Y-84359850D02*
X135811100Y-85883850D01*
X144100000Y-82800000D02*
X137370950Y-82800000D01*
D19*
X144100000Y-82800000D02*
X144421100Y-83121100D01*
D18*
X137370950Y-82800000D02*
X135811100Y-84359850D01*
D19*
X144421100Y-83121100D02*
X144421100Y-86128350D01*
X142621100Y-82821100D02*
X142600000Y-82800000D01*
X142621100Y-86128350D02*
X142621100Y-82821100D01*
X142021100Y-86128350D02*
X142021100Y-82800000D01*
D17*
%TO.N,SCLK*%
X141421100Y-90922350D02*
X154861100Y-104362350D01*
D19*
X141421100Y-90922350D02*
X141421100Y-86128350D01*
D17*
X154861100Y-104362350D02*
X154861100Y-125317350D01*
%TO.N,MOSI*%
X140821100Y-92227350D02*
X152321100Y-103727350D01*
X152321100Y-103727350D02*
X152321100Y-125317350D01*
D19*
X140821100Y-92227350D02*
X140821100Y-86128350D01*
%TO.N,N$2*%
X139021100Y-86128350D02*
X139021100Y-89600000D01*
D17*
X139021100Y-89600000D02*
X139021100Y-95507350D01*
X139021100Y-95507350D02*
X147241100Y-103727350D01*
X147241100Y-103727350D02*
X147241100Y-125317350D01*
D19*
%TO.N,N$1*%
X137081100Y-84677350D02*
X137716100Y-84042350D01*
D17*
%TO.N,+3V3*%
X133308450Y-85300000D02*
X133271100Y-85337350D01*
D18*
X135811100Y-85300000D02*
X133308450Y-85300000D01*
X135811100Y-85883850D02*
X135811100Y-85300000D01*
D20*
%TO.N,N$9*%
X161778450Y-85100000D02*
X161846100Y-85032350D01*
X159917650Y-85482350D02*
X160300000Y-85100000D01*
X160300000Y-85100000D02*
X161778450Y-85100000D01*
X158668600Y-85482350D02*
X159917650Y-85482350D01*
%TO.N,N$10*%
X155700000Y-88100000D02*
X156117650Y-87682350D01*
X156117650Y-87682350D02*
X157718600Y-87682350D01*
X153908600Y-88132350D02*
X153940950Y-88100000D01*
X153940950Y-88100000D02*
X155700000Y-88100000D01*
%TO.N,N$8*%
X146923600Y-88804850D02*
X146288600Y-89439850D01*
X146923600Y-86582350D02*
X146923600Y-88804850D01*
X148473600Y-85032350D02*
X146923600Y-86582350D01*
X146288600Y-89439850D02*
X144383600Y-89439850D01*
X153908600Y-85032350D02*
X148473600Y-85032350D01*
D21*
%TO.N,N$9*%
X161846100Y-85032350D02*
X161846100Y-85566350D01*
%TO.N,N$10*%
X153908600Y-87598350D02*
X153908600Y-88132350D01*
D18*
%TO.N,+3V3*%
X139621100Y-125317350D02*
X139621100Y-101822350D01*
X135811100Y-98012350D02*
X135811100Y-85883850D01*
X139621100Y-101822350D02*
X135811100Y-98012350D01*
D20*
%TO.N,BL*%
X160576100Y-89757350D02*
X158988600Y-89757350D01*
D21*
X149781100Y-88487350D02*
X149781100Y-87598350D01*
D20*
X157401100Y-89757350D02*
X158988600Y-89757350D01*
D21*
X161846100Y-87598350D02*
X161846100Y-88487350D01*
D20*
X157401100Y-125317350D02*
X157401100Y-89757350D01*
X151051100Y-89757350D02*
X149781100Y-88487350D01*
X161846100Y-88487350D02*
X160576100Y-89757350D01*
X157401100Y-89757350D02*
X151051100Y-89757350D01*
D19*
%TO.N,N$8*%
X143821100Y-88877350D02*
X143821100Y-86128350D01*
%TO.N,N$1*%
X137716100Y-84042350D02*
X139303600Y-84042350D01*
D17*
X144701100Y-103727350D02*
X144701100Y-125317350D01*
D19*
X139621100Y-84359850D02*
X139621100Y-86128350D01*
X139303600Y-84042350D02*
X139621100Y-84359850D01*
D17*
X137081100Y-84677350D02*
X137081100Y-96107350D01*
X137081100Y-96107350D02*
X144701100Y-103727350D01*
%TD*%
%TA.AperFunction,Conductor*%
%TO.N,GND*%
G36*
X169035345Y-81882948D02*
G01*
X169319475Y-81898904D01*
X169326432Y-81899688D01*
X169605263Y-81947063D01*
X169612076Y-81948618D01*
X169883848Y-82026913D01*
X169890432Y-82029216D01*
X170151749Y-82137456D01*
X170158049Y-82140490D01*
X170290950Y-82213941D01*
X170405575Y-82277291D01*
X170411509Y-82281020D01*
X170642164Y-82444675D01*
X170647640Y-82449042D01*
X170794095Y-82579920D01*
X170858518Y-82637491D01*
X170863474Y-82642447D01*
X171051923Y-82853318D01*
X171056293Y-82858797D01*
X171219954Y-83089449D01*
X171223683Y-83095384D01*
X171360485Y-83342900D01*
X171363526Y-83349214D01*
X171471758Y-83610499D01*
X171474073Y-83617115D01*
X171552368Y-83888867D01*
X171553928Y-83895700D01*
X171601305Y-84174515D01*
X171602090Y-84181479D01*
X171618002Y-84464715D01*
X171618100Y-84468221D01*
X171618100Y-125538087D01*
X171618002Y-125541593D01*
X171602040Y-125825714D01*
X171601255Y-125832678D01*
X171553879Y-126111488D01*
X171552319Y-126118321D01*
X171474026Y-126390068D01*
X171471711Y-126396684D01*
X171363481Y-126657963D01*
X171360440Y-126664277D01*
X171223641Y-126911789D01*
X171219912Y-126917724D01*
X171056254Y-127148371D01*
X171051884Y-127153850D01*
X170863439Y-127364717D01*
X170858483Y-127369673D01*
X170647613Y-127558115D01*
X170642133Y-127562485D01*
X170411482Y-127726137D01*
X170405548Y-127729866D01*
X170158031Y-127866662D01*
X170151717Y-127869703D01*
X169890434Y-127977929D01*
X169883818Y-127980243D01*
X169612075Y-128058530D01*
X169605242Y-128060090D01*
X169326431Y-128107461D01*
X169319467Y-128108246D01*
X169185420Y-128115774D01*
X169034441Y-128124252D01*
X169030963Y-128124350D01*
X127970359Y-128124350D01*
X127966855Y-128124252D01*
X127943902Y-128122962D01*
X127682727Y-128108295D01*
X127675763Y-128107510D01*
X127396946Y-128060138D01*
X127390113Y-128058578D01*
X127118364Y-127980290D01*
X127111757Y-127977979D01*
X126850457Y-127869747D01*
X126844146Y-127866707D01*
X126596624Y-127729908D01*
X126590690Y-127726179D01*
X126360035Y-127562524D01*
X126354555Y-127558154D01*
X126354511Y-127558115D01*
X126143678Y-127369705D01*
X126138725Y-127364752D01*
X125950276Y-127153881D01*
X125945906Y-127148402D01*
X125782245Y-126917750D01*
X125778516Y-126911815D01*
X125766842Y-126890694D01*
X125641710Y-126664292D01*
X125638673Y-126657985D01*
X125629677Y-126636267D01*
X125530435Y-126396684D01*
X125528129Y-126390094D01*
X125449828Y-126118321D01*
X125448271Y-126111499D01*
X125448269Y-126111488D01*
X125400893Y-125832678D01*
X125400109Y-125825719D01*
X125390776Y-125659588D01*
X125384198Y-125542483D01*
X125384100Y-125538978D01*
X125384100Y-125202611D01*
X126440600Y-125202611D01*
X126440600Y-125432088D01*
X126470552Y-125659590D01*
X126470552Y-125659592D01*
X126529940Y-125881231D01*
X126617753Y-126093232D01*
X126617759Y-126093244D01*
X126632244Y-126118332D01*
X126732489Y-126291962D01*
X126872181Y-126474011D01*
X127034439Y-126636269D01*
X127216488Y-126775961D01*
X127415212Y-126890694D01*
X127627213Y-126978508D01*
X127848862Y-127037898D01*
X128076366Y-127067850D01*
X128076372Y-127067850D01*
X128305828Y-127067850D01*
X128305834Y-127067850D01*
X128533338Y-127037898D01*
X128754987Y-126978508D01*
X128966988Y-126890694D01*
X129165712Y-126775961D01*
X129347761Y-126636269D01*
X129510019Y-126474011D01*
X129649711Y-126291962D01*
X129764444Y-126093238D01*
X129852258Y-125881237D01*
X129911648Y-125659588D01*
X129941600Y-125432084D01*
X129941600Y-125202616D01*
X129911648Y-124975112D01*
X129852258Y-124753463D01*
X129764444Y-124541462D01*
X129649711Y-124342738D01*
X129510019Y-124160689D01*
X129347761Y-123998431D01*
X129165712Y-123858739D01*
X129149416Y-123849330D01*
X128966994Y-123744009D01*
X128966982Y-123744003D01*
X128857863Y-123698804D01*
X128754987Y-123656192D01*
X128754983Y-123656191D01*
X128754981Y-123656190D01*
X128754982Y-123656190D01*
X128533341Y-123596802D01*
X128305838Y-123566850D01*
X128305834Y-123566850D01*
X128076366Y-123566850D01*
X128076361Y-123566850D01*
X127848859Y-123596802D01*
X127848857Y-123596802D01*
X127627218Y-123656190D01*
X127415217Y-123744003D01*
X127415205Y-123744009D01*
X127216494Y-123858735D01*
X127216491Y-123858737D01*
X127216488Y-123858739D01*
X127119923Y-123932836D01*
X127034437Y-123998432D01*
X126872182Y-124160687D01*
X126838413Y-124204696D01*
X126732489Y-124342738D01*
X126732487Y-124342741D01*
X126732485Y-124342744D01*
X126617759Y-124541455D01*
X126617753Y-124541467D01*
X126529940Y-124753468D01*
X126470552Y-124975107D01*
X126470552Y-124975109D01*
X126440600Y-125202611D01*
X125384100Y-125202611D01*
X125384100Y-84562611D01*
X126440600Y-84562611D01*
X126440600Y-84792088D01*
X126470552Y-85019590D01*
X126470552Y-85019592D01*
X126529940Y-85241231D01*
X126617753Y-85453232D01*
X126617756Y-85453238D01*
X126732489Y-85651962D01*
X126872181Y-85834011D01*
X127034439Y-85996269D01*
X127216488Y-86135961D01*
X127415212Y-86250694D01*
X127627213Y-86338508D01*
X127848862Y-86397898D01*
X128076366Y-86427850D01*
X128076372Y-86427850D01*
X128305828Y-86427850D01*
X128305834Y-86427850D01*
X128533338Y-86397898D01*
X128754987Y-86338508D01*
X128966988Y-86250694D01*
X129165712Y-86135961D01*
X129347761Y-85996269D01*
X129510019Y-85834011D01*
X129649711Y-85651962D01*
X129764444Y-85453238D01*
X129852258Y-85241237D01*
X129911648Y-85019588D01*
X129930475Y-84876587D01*
X132116600Y-84876587D01*
X132116600Y-85798096D01*
X132116601Y-85798113D01*
X132123060Y-85858193D01*
X132173756Y-85994113D01*
X132173757Y-85994115D01*
X132173758Y-85994117D01*
X132260696Y-86110254D01*
X132376833Y-86197192D01*
X132512758Y-86247890D01*
X132572845Y-86254350D01*
X133969354Y-86254349D01*
X134029442Y-86247890D01*
X134165367Y-86197192D01*
X134281504Y-86110254D01*
X134304491Y-86079545D01*
X134345629Y-86055136D01*
X134354525Y-86054500D01*
X134994100Y-86054500D01*
X135038294Y-86072806D01*
X135056600Y-86117000D01*
X135056600Y-97935443D01*
X135056599Y-97935469D01*
X135056599Y-98086661D01*
X135056598Y-98086661D01*
X135085594Y-98232426D01*
X135142469Y-98369737D01*
X135142470Y-98369740D01*
X135225040Y-98493315D01*
X135225042Y-98493317D01*
X138848294Y-102116568D01*
X138866600Y-102160762D01*
X138866600Y-124428808D01*
X138848294Y-124473002D01*
X138477600Y-124843696D01*
X138477600Y-124843697D01*
X138477600Y-125791004D01*
X139147447Y-126460850D01*
X140094754Y-126460850D01*
X140764600Y-125791003D01*
X140764600Y-124843696D01*
X140393906Y-124473002D01*
X140375600Y-124428808D01*
X140375600Y-101899759D01*
X140375601Y-101899738D01*
X140375601Y-101748038D01*
X140346605Y-101602271D01*
X140289730Y-101464961D01*
X140262330Y-101423955D01*
X140207159Y-101341384D01*
X140102066Y-101236291D01*
X140099888Y-101234113D01*
X140099877Y-101234103D01*
X136583906Y-97718131D01*
X136565600Y-97673937D01*
X136565600Y-96455540D01*
X136583906Y-96411346D01*
X136628100Y-96393040D01*
X136672294Y-96411346D01*
X136677074Y-96416796D01*
X144178294Y-103918014D01*
X144196600Y-103962208D01*
X144196600Y-124178808D01*
X144178294Y-124223002D01*
X143557600Y-124843696D01*
X143557600Y-124843697D01*
X143557600Y-125791004D01*
X144227447Y-126460850D01*
X145174754Y-126460850D01*
X145844600Y-125791003D01*
X145844600Y-124843696D01*
X145223906Y-124223002D01*
X145205600Y-124178808D01*
X145205600Y-103660932D01*
X145205598Y-103660924D01*
X145171219Y-103532620D01*
X145171216Y-103532614D01*
X145104802Y-103417583D01*
X145104795Y-103417574D01*
X145010870Y-103323650D01*
X137603906Y-95916685D01*
X137585600Y-95872491D01*
X137585600Y-84770787D01*
X137603906Y-84726593D01*
X137865344Y-84465156D01*
X137909538Y-84446850D01*
X137961876Y-84446850D01*
X138006070Y-84465156D01*
X138024376Y-84509350D01*
X138021693Y-84522837D01*
X138022567Y-84523011D01*
X138006600Y-84603282D01*
X138006600Y-87653414D01*
X138006601Y-87653418D01*
X138021365Y-87727649D01*
X138021367Y-87727653D01*
X138077615Y-87811834D01*
X138161797Y-87868083D01*
X138161799Y-87868084D01*
X138236033Y-87882850D01*
X138554100Y-87882849D01*
X138598294Y-87901155D01*
X138616600Y-87945349D01*
X138616600Y-89274867D01*
X138608227Y-89306117D01*
X138550980Y-89405270D01*
X138550979Y-89405274D01*
X138516601Y-89533574D01*
X138516600Y-89533582D01*
X138516600Y-95573767D01*
X138516601Y-95573775D01*
X138550978Y-95702073D01*
X138550983Y-95702086D01*
X138551888Y-95703652D01*
X138551889Y-95703653D01*
X138617400Y-95817121D01*
X146718294Y-103918014D01*
X146736600Y-103962208D01*
X146736600Y-124178808D01*
X146718294Y-124223002D01*
X146097600Y-124843696D01*
X146097600Y-124843697D01*
X146097600Y-125791004D01*
X146767447Y-126460850D01*
X147714754Y-126460850D01*
X148384600Y-125791003D01*
X148384600Y-124843696D01*
X148637600Y-124843696D01*
X148637600Y-124843697D01*
X148637600Y-125791004D01*
X149307447Y-126460850D01*
X150254754Y-126460850D01*
X150924600Y-125791003D01*
X150924600Y-124843696D01*
X150254753Y-124173850D01*
X149307446Y-124173850D01*
X148637600Y-124843696D01*
X148384600Y-124843696D01*
X147763906Y-124223002D01*
X147745600Y-124178808D01*
X147745600Y-103660932D01*
X147745598Y-103660924D01*
X147711219Y-103532620D01*
X147711216Y-103532614D01*
X147644802Y-103417583D01*
X147644795Y-103417574D01*
X147550870Y-103323650D01*
X139543906Y-95316685D01*
X139525600Y-95272491D01*
X139525600Y-89533582D01*
X139525598Y-89533574D01*
X139491220Y-89405274D01*
X139491219Y-89405270D01*
X139433973Y-89306117D01*
X139425600Y-89274867D01*
X139425600Y-87845349D01*
X139443906Y-87801155D01*
X139488097Y-87782849D01*
X139806166Y-87782849D01*
X139880401Y-87768084D01*
X139964584Y-87711834D01*
X140020834Y-87627651D01*
X140035600Y-87553417D01*
X140035599Y-84703284D01*
X140026801Y-84659049D01*
X140025600Y-84646857D01*
X140025600Y-84306598D01*
X140025598Y-84306590D01*
X139998035Y-84203722D01*
X139998031Y-84203713D01*
X139944782Y-84111484D01*
X139944781Y-84111483D01*
X139944780Y-84111481D01*
X139869469Y-84036170D01*
X139712183Y-83878884D01*
X139551974Y-83718674D01*
X139551965Y-83718667D01*
X139469622Y-83671126D01*
X139440502Y-83633176D01*
X139446746Y-83585750D01*
X139484696Y-83556630D01*
X139500872Y-83554500D01*
X141554100Y-83554500D01*
X141598294Y-83572806D01*
X141616600Y-83617000D01*
X141616600Y-84411350D01*
X141598294Y-84455544D01*
X141554100Y-84473850D01*
X141236035Y-84473850D01*
X141236031Y-84473851D01*
X141161801Y-84488615D01*
X141161799Y-84488616D01*
X141155822Y-84492610D01*
X141108905Y-84501941D01*
X141086376Y-84492608D01*
X141080404Y-84488618D01*
X141080399Y-84488615D01*
X141006167Y-84473850D01*
X140636035Y-84473850D01*
X140636031Y-84473851D01*
X140561800Y-84488615D01*
X140561796Y-84488617D01*
X140477615Y-84544865D01*
X140421366Y-84629047D01*
X140421365Y-84629049D01*
X140406600Y-84703282D01*
X140406600Y-87553414D01*
X140406601Y-87553416D01*
X140415399Y-87597648D01*
X140416600Y-87609841D01*
X140416600Y-91902216D01*
X140408227Y-91933465D01*
X140350982Y-92032618D01*
X140350979Y-92032624D01*
X140316602Y-92160924D01*
X140316601Y-92160932D01*
X140316601Y-92293767D01*
X140316602Y-92293775D01*
X140350979Y-92422075D01*
X140350980Y-92422077D01*
X140350981Y-92422079D01*
X140417399Y-92537120D01*
X151798294Y-103918015D01*
X151816600Y-103962209D01*
X151816600Y-124178808D01*
X151798294Y-124223002D01*
X151177600Y-124843696D01*
X151177600Y-124843697D01*
X151177600Y-125791004D01*
X151847447Y-126460850D01*
X152794754Y-126460850D01*
X153464600Y-125791003D01*
X153464600Y-124843696D01*
X152843906Y-124223002D01*
X152825600Y-124178808D01*
X152825600Y-103660932D01*
X152825598Y-103660924D01*
X152791220Y-103532624D01*
X152791219Y-103532620D01*
X152766908Y-103490512D01*
X152724801Y-103417580D01*
X141243906Y-91936685D01*
X141225600Y-91892491D01*
X141225600Y-91591208D01*
X141243906Y-91547014D01*
X141288100Y-91528708D01*
X141332294Y-91547014D01*
X154338294Y-104553014D01*
X154356600Y-104597208D01*
X154356600Y-124178808D01*
X154338294Y-124223002D01*
X153717600Y-124843696D01*
X153717600Y-124843697D01*
X153717600Y-125791004D01*
X154387447Y-126460850D01*
X155334754Y-126460850D01*
X156004600Y-125791003D01*
X156004600Y-124843696D01*
X155383906Y-124223002D01*
X155365600Y-124178808D01*
X155365600Y-104295932D01*
X155365598Y-104295924D01*
X155331219Y-104167620D01*
X155331216Y-104167614D01*
X155264802Y-104052583D01*
X155264795Y-104052574D01*
X155170870Y-103958650D01*
X141843906Y-90631685D01*
X141825600Y-90587491D01*
X141825600Y-87845349D01*
X141843906Y-87801155D01*
X141888097Y-87782849D01*
X142206166Y-87782849D01*
X142280401Y-87768084D01*
X142286374Y-87764092D01*
X142333288Y-87754757D01*
X142355824Y-87764092D01*
X142361799Y-87768084D01*
X142436033Y-87782850D01*
X142806166Y-87782849D01*
X142880401Y-87768084D01*
X142964584Y-87711834D01*
X143020834Y-87627651D01*
X143035600Y-87553417D01*
X143035599Y-84703284D01*
X143026801Y-84659049D01*
X143025600Y-84646857D01*
X143025600Y-83617000D01*
X143043906Y-83572806D01*
X143088100Y-83554500D01*
X143954100Y-83554500D01*
X143998294Y-83572806D01*
X144016600Y-83617000D01*
X144016600Y-84411350D01*
X143998294Y-84455544D01*
X143954100Y-84473850D01*
X143636035Y-84473850D01*
X143636031Y-84473851D01*
X143561800Y-84488615D01*
X143561796Y-84488617D01*
X143477615Y-84544865D01*
X143421366Y-84629047D01*
X143421365Y-84629049D01*
X143406600Y-84703282D01*
X143406600Y-87553414D01*
X143406601Y-87553416D01*
X143415399Y-87597648D01*
X143416600Y-87609841D01*
X143416600Y-88552216D01*
X143408227Y-88583465D01*
X143350982Y-88682618D01*
X143350979Y-88682624D01*
X143316602Y-88810924D01*
X143316601Y-88810932D01*
X143316601Y-88943767D01*
X143316602Y-88943775D01*
X143350979Y-89072075D01*
X143350980Y-89072077D01*
X143350981Y-89072079D01*
X143375688Y-89114873D01*
X143417399Y-89187120D01*
X143714329Y-89484050D01*
X143731434Y-89516051D01*
X143754251Y-89630759D01*
X143803589Y-89749873D01*
X143875216Y-89857069D01*
X143966380Y-89948233D01*
X144073576Y-90019860D01*
X144073577Y-90019860D01*
X144073578Y-90019861D01*
X144192689Y-90069198D01*
X144319137Y-90094350D01*
X146353063Y-90094350D01*
X146479511Y-90069198D01*
X146479512Y-90069197D01*
X146479514Y-90069197D01*
X146502770Y-90059563D01*
X146598622Y-90019861D01*
X146621611Y-90004500D01*
X146705819Y-89948234D01*
X147431984Y-89222069D01*
X147503611Y-89114872D01*
X147552949Y-88995761D01*
X147578100Y-88869312D01*
X147578100Y-88740388D01*
X147578100Y-87684087D01*
X148651600Y-87684087D01*
X148651600Y-88580596D01*
X148651601Y-88580613D01*
X148658060Y-88640692D01*
X148708756Y-88776613D01*
X148708757Y-88776615D01*
X148708758Y-88776617D01*
X148795696Y-88892754D01*
X148911833Y-88979692D01*
X149047758Y-89030390D01*
X149107845Y-89036850D01*
X149379108Y-89036849D01*
X149423302Y-89055155D01*
X150540529Y-90172381D01*
X150540534Y-90172387D01*
X150633880Y-90265733D01*
X150741076Y-90337360D01*
X150741077Y-90337360D01*
X150741078Y-90337361D01*
X150860189Y-90386698D01*
X150986637Y-90411850D01*
X150986638Y-90411850D01*
X151115562Y-90411850D01*
X156684100Y-90411850D01*
X156728294Y-90430156D01*
X156746600Y-90474350D01*
X156746600Y-124328808D01*
X156728294Y-124373002D01*
X156257600Y-124843696D01*
X156257600Y-124843697D01*
X156257600Y-125791004D01*
X156927447Y-126460850D01*
X157874754Y-126460850D01*
X158544600Y-125791003D01*
X158544600Y-125202611D01*
X167080600Y-125202611D01*
X167080600Y-125432088D01*
X167110552Y-125659590D01*
X167110552Y-125659592D01*
X167169940Y-125881231D01*
X167257753Y-126093232D01*
X167257759Y-126093244D01*
X167272244Y-126118332D01*
X167372489Y-126291962D01*
X167512181Y-126474011D01*
X167674439Y-126636269D01*
X167856488Y-126775961D01*
X168055212Y-126890694D01*
X168267213Y-126978508D01*
X168488862Y-127037898D01*
X168716366Y-127067850D01*
X168716372Y-127067850D01*
X168945828Y-127067850D01*
X168945834Y-127067850D01*
X169173338Y-127037898D01*
X169394987Y-126978508D01*
X169606988Y-126890694D01*
X169805712Y-126775961D01*
X169987761Y-126636269D01*
X170150019Y-126474011D01*
X170289711Y-126291962D01*
X170404444Y-126093238D01*
X170492258Y-125881237D01*
X170551648Y-125659588D01*
X170581600Y-125432084D01*
X170581600Y-125202616D01*
X170551648Y-124975112D01*
X170492258Y-124753463D01*
X170404444Y-124541462D01*
X170289711Y-124342738D01*
X170150019Y-124160689D01*
X169987761Y-123998431D01*
X169805712Y-123858739D01*
X169789416Y-123849330D01*
X169606994Y-123744009D01*
X169606982Y-123744003D01*
X169497863Y-123698804D01*
X169394987Y-123656192D01*
X169394983Y-123656191D01*
X169394981Y-123656190D01*
X169394982Y-123656190D01*
X169173341Y-123596802D01*
X168945838Y-123566850D01*
X168945834Y-123566850D01*
X168716366Y-123566850D01*
X168716361Y-123566850D01*
X168488859Y-123596802D01*
X168488857Y-123596802D01*
X168267218Y-123656190D01*
X168055217Y-123744003D01*
X168055205Y-123744009D01*
X167856494Y-123858735D01*
X167856491Y-123858737D01*
X167856488Y-123858739D01*
X167759923Y-123932836D01*
X167674437Y-123998432D01*
X167512182Y-124160687D01*
X167478413Y-124204696D01*
X167372489Y-124342738D01*
X167372487Y-124342741D01*
X167372485Y-124342744D01*
X167257759Y-124541455D01*
X167257753Y-124541467D01*
X167169940Y-124753468D01*
X167110552Y-124975107D01*
X167110552Y-124975109D01*
X167080600Y-125202611D01*
X158544600Y-125202611D01*
X158544600Y-124843696D01*
X158073906Y-124373002D01*
X158055600Y-124328808D01*
X158055600Y-90474350D01*
X158073906Y-90430156D01*
X158118100Y-90411850D01*
X160640563Y-90411850D01*
X160767011Y-90386698D01*
X160886122Y-90337361D01*
X160993320Y-90265733D01*
X161084483Y-90174570D01*
X161084483Y-90174569D01*
X162203896Y-89055154D01*
X162248090Y-89036849D01*
X162519347Y-89036849D01*
X162519354Y-89036849D01*
X162579442Y-89030390D01*
X162715367Y-88979692D01*
X162831504Y-88892754D01*
X162918442Y-88776617D01*
X162969140Y-88640692D01*
X162975600Y-88580605D01*
X162975599Y-87684096D01*
X162969140Y-87624008D01*
X162918442Y-87488083D01*
X162831504Y-87371946D01*
X162715367Y-87285008D01*
X162715365Y-87285007D01*
X162715363Y-87285006D01*
X162579443Y-87234310D01*
X162519362Y-87227850D01*
X162519355Y-87227850D01*
X161945605Y-87227850D01*
X161929429Y-87225720D01*
X161924823Y-87224486D01*
X161896329Y-87216850D01*
X161896325Y-87216850D01*
X161795875Y-87216850D01*
X161795873Y-87216850D01*
X161762765Y-87225721D01*
X161746590Y-87227850D01*
X161172853Y-87227850D01*
X161172836Y-87227851D01*
X161112756Y-87234310D01*
X160976836Y-87285006D01*
X160976831Y-87285009D01*
X160860696Y-87371946D01*
X160773759Y-87488081D01*
X160773756Y-87488086D01*
X160723060Y-87624006D01*
X160716600Y-87684087D01*
X160716600Y-88580596D01*
X160716601Y-88580613D01*
X160723060Y-88640691D01*
X160723474Y-88642444D01*
X160723338Y-88643280D01*
X160723478Y-88644579D01*
X160723121Y-88644617D01*
X160715816Y-88689663D01*
X160706841Y-88701004D01*
X160323303Y-89084544D01*
X160279109Y-89102850D01*
X154794082Y-89102850D01*
X154749888Y-89084544D01*
X154731582Y-89040350D01*
X154749888Y-88996156D01*
X154772239Y-88981791D01*
X154777867Y-88979692D01*
X154894004Y-88892754D01*
X154978750Y-88779544D01*
X155019889Y-88755136D01*
X155028784Y-88754500D01*
X155764463Y-88754500D01*
X155890911Y-88729348D01*
X156010022Y-88680011D01*
X156068867Y-88640692D01*
X156117219Y-88608384D01*
X156370446Y-88355155D01*
X156414640Y-88336850D01*
X156901601Y-88336850D01*
X156945795Y-88355156D01*
X156964101Y-88399350D01*
X156964101Y-88407418D01*
X156978865Y-88481649D01*
X156978867Y-88481653D01*
X157035115Y-88565834D01*
X157119297Y-88622083D01*
X157119299Y-88622084D01*
X157193533Y-88636850D01*
X158243666Y-88636849D01*
X158317901Y-88622084D01*
X158402084Y-88565834D01*
X158458334Y-88481651D01*
X158473100Y-88407417D01*
X158473099Y-86957284D01*
X158458334Y-86883049D01*
X158455856Y-86879340D01*
X158402084Y-86798865D01*
X158317902Y-86742616D01*
X158317900Y-86742615D01*
X158243667Y-86727850D01*
X157193535Y-86727850D01*
X157193531Y-86727851D01*
X157119300Y-86742615D01*
X157119296Y-86742617D01*
X157035115Y-86798865D01*
X156978866Y-86883047D01*
X156978865Y-86883049D01*
X156964100Y-86957282D01*
X156964100Y-86965350D01*
X156945794Y-87009544D01*
X156901600Y-87027850D01*
X156053187Y-87027850D01*
X155926740Y-87053001D01*
X155807626Y-87102339D01*
X155700430Y-87173966D01*
X155700428Y-87173968D01*
X155447203Y-87427194D01*
X155403009Y-87445500D01*
X154980350Y-87445500D01*
X154936156Y-87427194D01*
X154930316Y-87420454D01*
X154894005Y-87371947D01*
X154777868Y-87285009D01*
X154777867Y-87285008D01*
X154777865Y-87285007D01*
X154777863Y-87285006D01*
X154641943Y-87234310D01*
X154581862Y-87227850D01*
X154581855Y-87227850D01*
X154008105Y-87227850D01*
X153991929Y-87225720D01*
X153987323Y-87224486D01*
X153958829Y-87216850D01*
X153958825Y-87216850D01*
X153858375Y-87216850D01*
X153858373Y-87216850D01*
X153825265Y-87225721D01*
X153809090Y-87227850D01*
X153235353Y-87227850D01*
X153235336Y-87227851D01*
X153175256Y-87234310D01*
X153039336Y-87285006D01*
X153039331Y-87285009D01*
X152923196Y-87371946D01*
X152836259Y-87488081D01*
X152836256Y-87488086D01*
X152785560Y-87624006D01*
X152779100Y-87684087D01*
X152779100Y-88580596D01*
X152779101Y-88580613D01*
X152785560Y-88640692D01*
X152836256Y-88776613D01*
X152836257Y-88776615D01*
X152836258Y-88776617D01*
X152923196Y-88892754D01*
X153039333Y-88979692D01*
X153044961Y-88981791D01*
X153079970Y-89014388D01*
X153081677Y-89062193D01*
X153049080Y-89097202D01*
X153023118Y-89102850D01*
X151348090Y-89102850D01*
X151303896Y-89084544D01*
X150920358Y-88701005D01*
X150902052Y-88656811D01*
X150903728Y-88642435D01*
X150904137Y-88640699D01*
X150904140Y-88640692D01*
X150910600Y-88580605D01*
X150910599Y-87684096D01*
X150904140Y-87624008D01*
X150853442Y-87488083D01*
X150766504Y-87371946D01*
X150650367Y-87285008D01*
X150650365Y-87285007D01*
X150650363Y-87285006D01*
X150514443Y-87234310D01*
X150454362Y-87227850D01*
X150454355Y-87227850D01*
X149880605Y-87227850D01*
X149864429Y-87225720D01*
X149859823Y-87224486D01*
X149831329Y-87216850D01*
X149831325Y-87216850D01*
X149730875Y-87216850D01*
X149730873Y-87216850D01*
X149697765Y-87225721D01*
X149681590Y-87227850D01*
X149107853Y-87227850D01*
X149107836Y-87227851D01*
X149047756Y-87234310D01*
X148911836Y-87285006D01*
X148911831Y-87285009D01*
X148795696Y-87371946D01*
X148708759Y-87488081D01*
X148708756Y-87488086D01*
X148658060Y-87624006D01*
X148651600Y-87684087D01*
X147578100Y-87684087D01*
X147578100Y-86879340D01*
X147596405Y-86835147D01*
X148677524Y-85754027D01*
X148721717Y-85735722D01*
X148765911Y-85754028D01*
X148771751Y-85760767D01*
X148795696Y-85792754D01*
X148911833Y-85879692D01*
X149047758Y-85930390D01*
X149107845Y-85936850D01*
X150454354Y-85936849D01*
X150514442Y-85930390D01*
X150650367Y-85879692D01*
X150766504Y-85792754D01*
X150827034Y-85711895D01*
X150868173Y-85687486D01*
X150877068Y-85686850D01*
X152812632Y-85686850D01*
X152856826Y-85705156D01*
X152862666Y-85711895D01*
X152923196Y-85792754D01*
X153039333Y-85879692D01*
X153175258Y-85930390D01*
X153235345Y-85936850D01*
X154581854Y-85936849D01*
X154641942Y-85930390D01*
X154777867Y-85879692D01*
X154894004Y-85792754D01*
X154980942Y-85676617D01*
X155031640Y-85540692D01*
X155038100Y-85480605D01*
X155038099Y-84757282D01*
X157914100Y-84757282D01*
X157914100Y-86207414D01*
X157914101Y-86207418D01*
X157928865Y-86281649D01*
X157928867Y-86281653D01*
X157985115Y-86365834D01*
X158069297Y-86422083D01*
X158069299Y-86422084D01*
X158143533Y-86436850D01*
X159193666Y-86436849D01*
X159267901Y-86422084D01*
X159352084Y-86365834D01*
X159408334Y-86281651D01*
X159423100Y-86207417D01*
X159423100Y-86199350D01*
X159441406Y-86155156D01*
X159485600Y-86136850D01*
X159982113Y-86136850D01*
X160108561Y-86111698D01*
X160227672Y-86062361D01*
X160239437Y-86054500D01*
X160334869Y-85990734D01*
X160552797Y-85772806D01*
X160596991Y-85754500D01*
X160800775Y-85754500D01*
X160844969Y-85772806D01*
X160850801Y-85779535D01*
X160860696Y-85792754D01*
X160976833Y-85879692D01*
X161112758Y-85930390D01*
X161172845Y-85936850D01*
X161746593Y-85936849D01*
X161762769Y-85938978D01*
X161795875Y-85947850D01*
X161795878Y-85947850D01*
X161896322Y-85947850D01*
X161896325Y-85947850D01*
X161929430Y-85938978D01*
X161945607Y-85936849D01*
X162519347Y-85936849D01*
X162519354Y-85936849D01*
X162579442Y-85930390D01*
X162715367Y-85879692D01*
X162831504Y-85792754D01*
X162918442Y-85676617D01*
X162969140Y-85540692D01*
X162975600Y-85480605D01*
X162975599Y-84584096D01*
X162973290Y-84562611D01*
X167080600Y-84562611D01*
X167080600Y-84792088D01*
X167110552Y-85019590D01*
X167110552Y-85019592D01*
X167169940Y-85241231D01*
X167257753Y-85453232D01*
X167257756Y-85453238D01*
X167372489Y-85651962D01*
X167512181Y-85834011D01*
X167674439Y-85996269D01*
X167856488Y-86135961D01*
X168055212Y-86250694D01*
X168267213Y-86338508D01*
X168488862Y-86397898D01*
X168716366Y-86427850D01*
X168716372Y-86427850D01*
X168945828Y-86427850D01*
X168945834Y-86427850D01*
X169173338Y-86397898D01*
X169394987Y-86338508D01*
X169606988Y-86250694D01*
X169805712Y-86135961D01*
X169987761Y-85996269D01*
X170150019Y-85834011D01*
X170289711Y-85651962D01*
X170404444Y-85453238D01*
X170492258Y-85241237D01*
X170551648Y-85019588D01*
X170581600Y-84792084D01*
X170581600Y-84562616D01*
X170551648Y-84335112D01*
X170492258Y-84113463D01*
X170404444Y-83901462D01*
X170289711Y-83702738D01*
X170150019Y-83520689D01*
X169987761Y-83358431D01*
X169805712Y-83218739D01*
X169714878Y-83166296D01*
X169606994Y-83104009D01*
X169606982Y-83104003D01*
X169449333Y-83038703D01*
X169394987Y-83016192D01*
X169394983Y-83016191D01*
X169394981Y-83016190D01*
X169394982Y-83016190D01*
X169173341Y-82956802D01*
X168945838Y-82926850D01*
X168945834Y-82926850D01*
X168716366Y-82926850D01*
X168716361Y-82926850D01*
X168488859Y-82956802D01*
X168488857Y-82956802D01*
X168267218Y-83016190D01*
X168055217Y-83104003D01*
X168055205Y-83104009D01*
X167856494Y-83218735D01*
X167856491Y-83218737D01*
X167856488Y-83218739D01*
X167759923Y-83292836D01*
X167674437Y-83358432D01*
X167512182Y-83520687D01*
X167446586Y-83606173D01*
X167372489Y-83702738D01*
X167372487Y-83702741D01*
X167372485Y-83702744D01*
X167257759Y-83901455D01*
X167257753Y-83901467D01*
X167169940Y-84113468D01*
X167110552Y-84335107D01*
X167110552Y-84335109D01*
X167080600Y-84562611D01*
X162973290Y-84562611D01*
X162969140Y-84524008D01*
X162918442Y-84388083D01*
X162831504Y-84271946D01*
X162715367Y-84185008D01*
X162715365Y-84185007D01*
X162715363Y-84185006D01*
X162579443Y-84134310D01*
X162519355Y-84127850D01*
X161172853Y-84127850D01*
X161172836Y-84127851D01*
X161112756Y-84134310D01*
X160976836Y-84185006D01*
X160976831Y-84185009D01*
X160860696Y-84271946D01*
X160773759Y-84388081D01*
X160773756Y-84388086D01*
X160767507Y-84404842D01*
X160734911Y-84439852D01*
X160708948Y-84445500D01*
X160235537Y-84445500D01*
X160214558Y-84449672D01*
X160214555Y-84449672D01*
X160109090Y-84470650D01*
X160024865Y-84505538D01*
X159989983Y-84519986D01*
X159989975Y-84519990D01*
X159926183Y-84562616D01*
X159882781Y-84591615D01*
X159882779Y-84591617D01*
X159664853Y-84809544D01*
X159620659Y-84827850D01*
X159485599Y-84827850D01*
X159441405Y-84809544D01*
X159423099Y-84765350D01*
X159423099Y-84757285D01*
X159423099Y-84757283D01*
X159408334Y-84683049D01*
X159355037Y-84603285D01*
X159352084Y-84598865D01*
X159267902Y-84542616D01*
X159267900Y-84542615D01*
X159193667Y-84527850D01*
X158143535Y-84527850D01*
X158143531Y-84527851D01*
X158069300Y-84542615D01*
X158069296Y-84542617D01*
X157985115Y-84598865D01*
X157928866Y-84683047D01*
X157928865Y-84683049D01*
X157914100Y-84757282D01*
X155038099Y-84757282D01*
X155038099Y-84584096D01*
X155031640Y-84524008D01*
X154980942Y-84388083D01*
X154894004Y-84271946D01*
X154777867Y-84185008D01*
X154777865Y-84185007D01*
X154777863Y-84185006D01*
X154641943Y-84134310D01*
X154581855Y-84127850D01*
X153235353Y-84127850D01*
X153235336Y-84127851D01*
X153175256Y-84134310D01*
X153039336Y-84185006D01*
X153039331Y-84185009D01*
X152923196Y-84271946D01*
X152862666Y-84352805D01*
X152821527Y-84377214D01*
X152812632Y-84377850D01*
X150877068Y-84377850D01*
X150832874Y-84359544D01*
X150827034Y-84352805D01*
X150796001Y-84311350D01*
X150766504Y-84271946D01*
X150650367Y-84185008D01*
X150650365Y-84185007D01*
X150650363Y-84185006D01*
X150514443Y-84134310D01*
X150454355Y-84127850D01*
X149107853Y-84127850D01*
X149107836Y-84127851D01*
X149047756Y-84134310D01*
X148911836Y-84185006D01*
X148911831Y-84185009D01*
X148795696Y-84271946D01*
X148735166Y-84352805D01*
X148694027Y-84377214D01*
X148685132Y-84377850D01*
X148409137Y-84377850D01*
X148355013Y-84388616D01*
X148282689Y-84403002D01*
X148163576Y-84452339D01*
X148056381Y-84523965D01*
X146415215Y-86165131D01*
X146359918Y-86247890D01*
X146343589Y-86272326D01*
X146294251Y-86391440D01*
X146269100Y-86517886D01*
X146269100Y-88507859D01*
X146250794Y-88552053D01*
X146035803Y-88767044D01*
X145991609Y-88785350D01*
X144468459Y-88785350D01*
X144424265Y-88767044D01*
X144243906Y-88586685D01*
X144225600Y-88542491D01*
X144225600Y-87845349D01*
X144243906Y-87801155D01*
X144288097Y-87782849D01*
X144606166Y-87782849D01*
X144611177Y-87781852D01*
X144658093Y-87791181D01*
X144675336Y-87808422D01*
X144677616Y-87811834D01*
X144761799Y-87868084D01*
X144836033Y-87882850D01*
X145206166Y-87882849D01*
X145280401Y-87868084D01*
X145364584Y-87811834D01*
X145420834Y-87727651D01*
X145435600Y-87653417D01*
X145435599Y-84603284D01*
X145420834Y-84529049D01*
X145417437Y-84523965D01*
X145364584Y-84444865D01*
X145280402Y-84388616D01*
X145280400Y-84388615D01*
X145206167Y-84373850D01*
X144888100Y-84373850D01*
X144843906Y-84355544D01*
X144825600Y-84311350D01*
X144825600Y-83067849D01*
X144825599Y-83067845D01*
X144823282Y-83059197D01*
X144825638Y-83023332D01*
X144824613Y-83023021D01*
X144825505Y-83020079D01*
X144826279Y-83016190D01*
X144854500Y-82874312D01*
X144854500Y-82725688D01*
X144825505Y-82579920D01*
X144768629Y-82442610D01*
X144768627Y-82442608D01*
X144768627Y-82442606D01*
X144686059Y-82319034D01*
X144580965Y-82213940D01*
X144457393Y-82131372D01*
X144457390Y-82131371D01*
X144320078Y-82074494D01*
X144174312Y-82045500D01*
X137448359Y-82045500D01*
X137448339Y-82045499D01*
X137445262Y-82045499D01*
X137296638Y-82045499D01*
X137296636Y-82045499D01*
X137175054Y-82069683D01*
X137175055Y-82069684D01*
X137150870Y-82074494D01*
X137093995Y-82098051D01*
X137093996Y-82098052D01*
X137013557Y-82131371D01*
X136889984Y-82213940D01*
X135225040Y-83878884D01*
X135142471Y-84002457D01*
X135142470Y-84002461D01*
X135109152Y-84082894D01*
X135109153Y-84082895D01*
X135090533Y-84127850D01*
X135085594Y-84139772D01*
X135056599Y-84285538D01*
X135056599Y-84437238D01*
X135056600Y-84437259D01*
X135056600Y-84483000D01*
X135038294Y-84527194D01*
X134994100Y-84545500D01*
X134276997Y-84545500D01*
X134239543Y-84533034D01*
X134165372Y-84477511D01*
X134165363Y-84477506D01*
X134029443Y-84426810D01*
X133969355Y-84420350D01*
X132572853Y-84420350D01*
X132572836Y-84420351D01*
X132512756Y-84426810D01*
X132376836Y-84477506D01*
X132376831Y-84477509D01*
X132260696Y-84564446D01*
X132173759Y-84680581D01*
X132173756Y-84680586D01*
X132123060Y-84816506D01*
X132116600Y-84876587D01*
X129930475Y-84876587D01*
X129941600Y-84792084D01*
X129941600Y-84562616D01*
X129911648Y-84335112D01*
X129852258Y-84113463D01*
X129764444Y-83901462D01*
X129649711Y-83702738D01*
X129510019Y-83520689D01*
X129347761Y-83358431D01*
X129165712Y-83218739D01*
X129074878Y-83166296D01*
X128966994Y-83104009D01*
X128966982Y-83104003D01*
X128809333Y-83038703D01*
X128754987Y-83016192D01*
X128754983Y-83016191D01*
X128754981Y-83016190D01*
X128754982Y-83016190D01*
X128533341Y-82956802D01*
X128305838Y-82926850D01*
X128305834Y-82926850D01*
X128076366Y-82926850D01*
X128076361Y-82926850D01*
X127848859Y-82956802D01*
X127848857Y-82956802D01*
X127627218Y-83016190D01*
X127415217Y-83104003D01*
X127415205Y-83104009D01*
X127216494Y-83218735D01*
X127216491Y-83218737D01*
X127216488Y-83218739D01*
X127119923Y-83292836D01*
X127034437Y-83358432D01*
X126872182Y-83520687D01*
X126806586Y-83606173D01*
X126732489Y-83702738D01*
X126732487Y-83702741D01*
X126732485Y-83702744D01*
X126617759Y-83901455D01*
X126617753Y-83901467D01*
X126529940Y-84113468D01*
X126470552Y-84335107D01*
X126470552Y-84335109D01*
X126440600Y-84562611D01*
X125384100Y-84562611D01*
X125384100Y-84469110D01*
X125384198Y-84465604D01*
X125387246Y-84411350D01*
X125400160Y-84181479D01*
X125400944Y-84174521D01*
X125407777Y-84134310D01*
X125448322Y-83895701D01*
X125449877Y-83888889D01*
X125528179Y-83617115D01*
X125530482Y-83610529D01*
X125638724Y-83349222D01*
X125641752Y-83342935D01*
X125778566Y-83095396D01*
X125782278Y-83089487D01*
X125945948Y-82858823D01*
X125950315Y-82853349D01*
X125950343Y-82853318D01*
X126138771Y-82642470D01*
X126143704Y-82637537D01*
X126354598Y-82449073D01*
X126360060Y-82444718D01*
X126590717Y-82281062D01*
X126596642Y-82277338D01*
X126844179Y-82140531D01*
X126850465Y-82137504D01*
X127111790Y-82029261D01*
X127118362Y-82026962D01*
X127390138Y-81948665D01*
X127396943Y-81947112D01*
X127675774Y-81899737D01*
X127682726Y-81898953D01*
X127967757Y-81882947D01*
X127971237Y-81882850D01*
X127985008Y-81882850D01*
X169017192Y-81882850D01*
X169031841Y-81882850D01*
X169035345Y-81882948D01*
G37*
%TD.AperFunction*%
%TD*%
M02*
