%TF.GenerationSoftware,KiCad,Pcbnew,9.0.5*%
%TF.CreationDate,2025-10-17T16:28:27+07:00*%
%TF.ProjectId,Nokia 1202 breakout,4e6f6b69-6120-4313-9230-322062726561,rev?*%
%TF.SameCoordinates,Original*%
%TF.FileFunction,Legend,Top*%
%TF.FilePolarity,Positive*%
%FSLAX46Y46*%
G04 Gerber Fmt 4.6, Leading zero omitted, Abs format (unit mm)*
G04 Created by KiCad (PCBNEW 9.0.5) date 2025-10-17 16:28:27*
%MOMM*%
%LPD*%
G01*
G04 APERTURE LIST*
%ADD10C,0.254000*%
%ADD11C,0.101600*%
%ADD12C,0.150000*%
%ADD13C,0.120000*%
%ADD14C,0.066650*%
%ADD15C,0.152400*%
%ADD16C,0.127000*%
G04 APERTURE END LIST*
D10*
X140891100Y-124047350D02*
X138351100Y-124047350D01*
X138351100Y-124047350D02*
X138351100Y-126587350D01*
X138351100Y-126587350D02*
X140891100Y-126587350D01*
X140891100Y-126587350D02*
X140891100Y-124047350D01*
D11*
X137720651Y-125804076D02*
X137052994Y-125804076D01*
X137386822Y-125804076D02*
X137386822Y-124635676D01*
X137386822Y-124635676D02*
X137275546Y-124802590D01*
X137275546Y-124802590D02*
X137164270Y-124913866D01*
X137164270Y-124913866D02*
X137052994Y-124969504D01*
X148538632Y-91831576D02*
X148538632Y-90663176D01*
X148538632Y-90663176D02*
X148983737Y-90663176D01*
X148983737Y-90663176D02*
X149095013Y-90718814D01*
X149095013Y-90718814D02*
X149150651Y-90774452D01*
X149150651Y-90774452D02*
X149206289Y-90885728D01*
X149206289Y-90885728D02*
X149206289Y-91052642D01*
X149206289Y-91052642D02*
X149150651Y-91163918D01*
X149150651Y-91163918D02*
X149095013Y-91219557D01*
X149095013Y-91219557D02*
X148983737Y-91275195D01*
X148983737Y-91275195D02*
X148538632Y-91275195D01*
X149873946Y-91831576D02*
X149762670Y-91775938D01*
X149762670Y-91775938D02*
X149707032Y-91720299D01*
X149707032Y-91720299D02*
X149651394Y-91609023D01*
X149651394Y-91609023D02*
X149651394Y-91275195D01*
X149651394Y-91275195D02*
X149707032Y-91163918D01*
X149707032Y-91163918D02*
X149762670Y-91108280D01*
X149762670Y-91108280D02*
X149873946Y-91052642D01*
X149873946Y-91052642D02*
X150040861Y-91052642D01*
X150040861Y-91052642D02*
X150152137Y-91108280D01*
X150152137Y-91108280D02*
X150207775Y-91163918D01*
X150207775Y-91163918D02*
X150263413Y-91275195D01*
X150263413Y-91275195D02*
X150263413Y-91609023D01*
X150263413Y-91609023D02*
X150207775Y-91720299D01*
X150207775Y-91720299D02*
X150152137Y-91775938D01*
X150152137Y-91775938D02*
X150040861Y-91831576D01*
X150040861Y-91831576D02*
X149873946Y-91831576D01*
X150764156Y-91052642D02*
X150764156Y-92221042D01*
X150764156Y-91108280D02*
X150875432Y-91052642D01*
X150875432Y-91052642D02*
X151097985Y-91052642D01*
X151097985Y-91052642D02*
X151209261Y-91108280D01*
X151209261Y-91108280D02*
X151264899Y-91163918D01*
X151264899Y-91163918D02*
X151320537Y-91275195D01*
X151320537Y-91275195D02*
X151320537Y-91609023D01*
X151320537Y-91609023D02*
X151264899Y-91720299D01*
X151264899Y-91720299D02*
X151209261Y-91775938D01*
X151209261Y-91775938D02*
X151097985Y-91831576D01*
X151097985Y-91831576D02*
X150875432Y-91831576D01*
X150875432Y-91831576D02*
X150764156Y-91775938D01*
X152322023Y-91052642D02*
X152322023Y-91831576D01*
X151821280Y-91052642D02*
X151821280Y-91664661D01*
X151821280Y-91664661D02*
X151876918Y-91775938D01*
X151876918Y-91775938D02*
X151988194Y-91831576D01*
X151988194Y-91831576D02*
X152155109Y-91831576D01*
X152155109Y-91831576D02*
X152266385Y-91775938D01*
X152266385Y-91775938D02*
X152322023Y-91720299D01*
X153045318Y-91831576D02*
X152934042Y-91775938D01*
X152934042Y-91775938D02*
X152878404Y-91664661D01*
X152878404Y-91664661D02*
X152878404Y-90663176D01*
X153991166Y-91831576D02*
X153991166Y-91219557D01*
X153991166Y-91219557D02*
X153935528Y-91108280D01*
X153935528Y-91108280D02*
X153824252Y-91052642D01*
X153824252Y-91052642D02*
X153601699Y-91052642D01*
X153601699Y-91052642D02*
X153490423Y-91108280D01*
X153991166Y-91775938D02*
X153879890Y-91831576D01*
X153879890Y-91831576D02*
X153601699Y-91831576D01*
X153601699Y-91831576D02*
X153490423Y-91775938D01*
X153490423Y-91775938D02*
X153434785Y-91664661D01*
X153434785Y-91664661D02*
X153434785Y-91553385D01*
X153434785Y-91553385D02*
X153490423Y-91442109D01*
X153490423Y-91442109D02*
X153601699Y-91386471D01*
X153601699Y-91386471D02*
X153879890Y-91386471D01*
X153879890Y-91386471D02*
X153991166Y-91330833D01*
X154380633Y-91052642D02*
X154825737Y-91052642D01*
X154547547Y-90663176D02*
X154547547Y-91664661D01*
X154547547Y-91664661D02*
X154603185Y-91775938D01*
X154603185Y-91775938D02*
X154714461Y-91831576D01*
X154714461Y-91831576D02*
X154825737Y-91831576D01*
X155660309Y-91775938D02*
X155549033Y-91831576D01*
X155549033Y-91831576D02*
X155326480Y-91831576D01*
X155326480Y-91831576D02*
X155215204Y-91775938D01*
X155215204Y-91775938D02*
X155159566Y-91664661D01*
X155159566Y-91664661D02*
X155159566Y-91219557D01*
X155159566Y-91219557D02*
X155215204Y-91108280D01*
X155215204Y-91108280D02*
X155326480Y-91052642D01*
X155326480Y-91052642D02*
X155549033Y-91052642D01*
X155549033Y-91052642D02*
X155660309Y-91108280D01*
X155660309Y-91108280D02*
X155715947Y-91219557D01*
X155715947Y-91219557D02*
X155715947Y-91330833D01*
X155715947Y-91330833D02*
X155159566Y-91442109D01*
X157774557Y-91831576D02*
X157385090Y-91275195D01*
X157106900Y-91831576D02*
X157106900Y-90663176D01*
X157106900Y-90663176D02*
X157552005Y-90663176D01*
X157552005Y-90663176D02*
X157663281Y-90718814D01*
X157663281Y-90718814D02*
X157718919Y-90774452D01*
X157718919Y-90774452D02*
X157774557Y-90885728D01*
X157774557Y-90885728D02*
X157774557Y-91052642D01*
X157774557Y-91052642D02*
X157718919Y-91163918D01*
X157718919Y-91163918D02*
X157663281Y-91219557D01*
X157663281Y-91219557D02*
X157552005Y-91275195D01*
X157552005Y-91275195D02*
X157106900Y-91275195D01*
X158887319Y-91831576D02*
X158219662Y-91831576D01*
X158553490Y-91831576D02*
X158553490Y-90663176D01*
X158553490Y-90663176D02*
X158442214Y-90830090D01*
X158442214Y-90830090D02*
X158330938Y-90941366D01*
X158330938Y-90941366D02*
X158219662Y-90997004D01*
X160445186Y-91831576D02*
X160333910Y-91775938D01*
X160333910Y-91775938D02*
X160278272Y-91720299D01*
X160278272Y-91720299D02*
X160222634Y-91609023D01*
X160222634Y-91609023D02*
X160222634Y-91275195D01*
X160222634Y-91275195D02*
X160278272Y-91163918D01*
X160278272Y-91163918D02*
X160333910Y-91108280D01*
X160333910Y-91108280D02*
X160445186Y-91052642D01*
X160445186Y-91052642D02*
X160612101Y-91052642D01*
X160612101Y-91052642D02*
X160723377Y-91108280D01*
X160723377Y-91108280D02*
X160779015Y-91163918D01*
X160779015Y-91163918D02*
X160834653Y-91275195D01*
X160834653Y-91275195D02*
X160834653Y-91609023D01*
X160834653Y-91609023D02*
X160779015Y-91720299D01*
X160779015Y-91720299D02*
X160723377Y-91775938D01*
X160723377Y-91775938D02*
X160612101Y-91831576D01*
X160612101Y-91831576D02*
X160445186Y-91831576D01*
X161335396Y-91052642D02*
X161335396Y-91831576D01*
X161335396Y-91163918D02*
X161391034Y-91108280D01*
X161391034Y-91108280D02*
X161502310Y-91052642D01*
X161502310Y-91052642D02*
X161669225Y-91052642D01*
X161669225Y-91052642D02*
X161780501Y-91108280D01*
X161780501Y-91108280D02*
X161836139Y-91219557D01*
X161836139Y-91219557D02*
X161836139Y-91831576D01*
X162559434Y-91831576D02*
X162448158Y-91775938D01*
X162448158Y-91775938D02*
X162392520Y-91664661D01*
X162392520Y-91664661D02*
X162392520Y-90663176D01*
X162893263Y-91052642D02*
X163171453Y-91831576D01*
X163449644Y-91052642D02*
X163171453Y-91831576D01*
X163171453Y-91831576D02*
X163060177Y-92109766D01*
X163060177Y-92109766D02*
X163004539Y-92165404D01*
X163004539Y-92165404D02*
X162893263Y-92221042D01*
X148705546Y-93736576D02*
X148594270Y-93680938D01*
X148594270Y-93680938D02*
X148538632Y-93625299D01*
X148538632Y-93625299D02*
X148482994Y-93514023D01*
X148482994Y-93514023D02*
X148482994Y-93180195D01*
X148482994Y-93180195D02*
X148538632Y-93068918D01*
X148538632Y-93068918D02*
X148594270Y-93013280D01*
X148594270Y-93013280D02*
X148705546Y-92957642D01*
X148705546Y-92957642D02*
X148872461Y-92957642D01*
X148872461Y-92957642D02*
X148983737Y-93013280D01*
X148983737Y-93013280D02*
X149039375Y-93068918D01*
X149039375Y-93068918D02*
X149095013Y-93180195D01*
X149095013Y-93180195D02*
X149095013Y-93514023D01*
X149095013Y-93514023D02*
X149039375Y-93625299D01*
X149039375Y-93625299D02*
X148983737Y-93680938D01*
X148983737Y-93680938D02*
X148872461Y-93736576D01*
X148872461Y-93736576D02*
X148705546Y-93736576D01*
X149595756Y-93736576D02*
X149595756Y-92957642D01*
X149595756Y-93180195D02*
X149651394Y-93068918D01*
X149651394Y-93068918D02*
X149707032Y-93013280D01*
X149707032Y-93013280D02*
X149818308Y-92957642D01*
X149818308Y-92957642D02*
X149929585Y-92957642D01*
X151876918Y-93736576D02*
X151487451Y-93180195D01*
X151209261Y-93736576D02*
X151209261Y-92568176D01*
X151209261Y-92568176D02*
X151654366Y-92568176D01*
X151654366Y-92568176D02*
X151765642Y-92623814D01*
X151765642Y-92623814D02*
X151821280Y-92679452D01*
X151821280Y-92679452D02*
X151876918Y-92790728D01*
X151876918Y-92790728D02*
X151876918Y-92957642D01*
X151876918Y-92957642D02*
X151821280Y-93068918D01*
X151821280Y-93068918D02*
X151765642Y-93124557D01*
X151765642Y-93124557D02*
X151654366Y-93180195D01*
X151654366Y-93180195D02*
X151209261Y-93180195D01*
X152322023Y-92679452D02*
X152377661Y-92623814D01*
X152377661Y-92623814D02*
X152488937Y-92568176D01*
X152488937Y-92568176D02*
X152767128Y-92568176D01*
X152767128Y-92568176D02*
X152878404Y-92623814D01*
X152878404Y-92623814D02*
X152934042Y-92679452D01*
X152934042Y-92679452D02*
X152989680Y-92790728D01*
X152989680Y-92790728D02*
X152989680Y-92902004D01*
X152989680Y-92902004D02*
X152934042Y-93068918D01*
X152934042Y-93068918D02*
X152266385Y-93736576D01*
X152266385Y-93736576D02*
X152989680Y-93736576D01*
X153490423Y-93291471D02*
X154380633Y-93291471D01*
X153935528Y-93736576D02*
X153935528Y-92846366D01*
X155715946Y-93847852D02*
X155604670Y-93792214D01*
X155604670Y-93792214D02*
X155493394Y-93680938D01*
X155493394Y-93680938D02*
X155326480Y-93514023D01*
X155326480Y-93514023D02*
X155215203Y-93458385D01*
X155215203Y-93458385D02*
X155103927Y-93458385D01*
X155159565Y-93736576D02*
X155048289Y-93680938D01*
X155048289Y-93680938D02*
X154937013Y-93569661D01*
X154937013Y-93569661D02*
X154881375Y-93347109D01*
X154881375Y-93347109D02*
X154881375Y-92957642D01*
X154881375Y-92957642D02*
X154937013Y-92735090D01*
X154937013Y-92735090D02*
X155048289Y-92623814D01*
X155048289Y-92623814D02*
X155159565Y-92568176D01*
X155159565Y-92568176D02*
X155382118Y-92568176D01*
X155382118Y-92568176D02*
X155493394Y-92623814D01*
X155493394Y-92623814D02*
X155604670Y-92735090D01*
X155604670Y-92735090D02*
X155660308Y-92957642D01*
X155660308Y-92957642D02*
X155660308Y-93347109D01*
X155660308Y-93347109D02*
X155604670Y-93569661D01*
X155604670Y-93569661D02*
X155493394Y-93680938D01*
X155493394Y-93680938D02*
X155382118Y-93736576D01*
X155382118Y-93736576D02*
X155159565Y-93736576D01*
X156773070Y-93736576D02*
X156105413Y-93736576D01*
X156439241Y-93736576D02*
X156439241Y-92568176D01*
X156439241Y-92568176D02*
X156327965Y-92735090D01*
X156327965Y-92735090D02*
X156216689Y-92846366D01*
X156216689Y-92846366D02*
X156105413Y-92902004D01*
X157273813Y-93291471D02*
X158164023Y-93291471D01*
X157718918Y-93736576D02*
X157718918Y-92846366D01*
X159388060Y-93736576D02*
X158998593Y-93180195D01*
X158720403Y-93736576D02*
X158720403Y-92568176D01*
X158720403Y-92568176D02*
X159165508Y-92568176D01*
X159165508Y-92568176D02*
X159276784Y-92623814D01*
X159276784Y-92623814D02*
X159332422Y-92679452D01*
X159332422Y-92679452D02*
X159388060Y-92790728D01*
X159388060Y-92790728D02*
X159388060Y-92957642D01*
X159388060Y-92957642D02*
X159332422Y-93068918D01*
X159332422Y-93068918D02*
X159276784Y-93124557D01*
X159276784Y-93124557D02*
X159165508Y-93180195D01*
X159165508Y-93180195D02*
X158720403Y-93180195D01*
X159777527Y-92568176D02*
X160500822Y-92568176D01*
X160500822Y-92568176D02*
X160111355Y-93013280D01*
X160111355Y-93013280D02*
X160278270Y-93013280D01*
X160278270Y-93013280D02*
X160389546Y-93068918D01*
X160389546Y-93068918D02*
X160445184Y-93124557D01*
X160445184Y-93124557D02*
X160500822Y-93235833D01*
X160500822Y-93235833D02*
X160500822Y-93514023D01*
X160500822Y-93514023D02*
X160445184Y-93625299D01*
X160445184Y-93625299D02*
X160389546Y-93680938D01*
X160389546Y-93680938D02*
X160278270Y-93736576D01*
X160278270Y-93736576D02*
X159944441Y-93736576D01*
X159944441Y-93736576D02*
X159833165Y-93680938D01*
X159833165Y-93680938D02*
X159777527Y-93625299D01*
X160135546Y-125136418D02*
X160024270Y-125080780D01*
X160024270Y-125080780D02*
X159968632Y-125025142D01*
X159968632Y-125025142D02*
X159912994Y-124913866D01*
X159912994Y-124913866D02*
X159912994Y-124858228D01*
X159912994Y-124858228D02*
X159968632Y-124746952D01*
X159968632Y-124746952D02*
X160024270Y-124691314D01*
X160024270Y-124691314D02*
X160135546Y-124635676D01*
X160135546Y-124635676D02*
X160358099Y-124635676D01*
X160358099Y-124635676D02*
X160469375Y-124691314D01*
X160469375Y-124691314D02*
X160525013Y-124746952D01*
X160525013Y-124746952D02*
X160580651Y-124858228D01*
X160580651Y-124858228D02*
X160580651Y-124913866D01*
X160580651Y-124913866D02*
X160525013Y-125025142D01*
X160525013Y-125025142D02*
X160469375Y-125080780D01*
X160469375Y-125080780D02*
X160358099Y-125136418D01*
X160358099Y-125136418D02*
X160135546Y-125136418D01*
X160135546Y-125136418D02*
X160024270Y-125192057D01*
X160024270Y-125192057D02*
X159968632Y-125247695D01*
X159968632Y-125247695D02*
X159912994Y-125358971D01*
X159912994Y-125358971D02*
X159912994Y-125581523D01*
X159912994Y-125581523D02*
X159968632Y-125692799D01*
X159968632Y-125692799D02*
X160024270Y-125748438D01*
X160024270Y-125748438D02*
X160135546Y-125804076D01*
X160135546Y-125804076D02*
X160358099Y-125804076D01*
X160358099Y-125804076D02*
X160469375Y-125748438D01*
X160469375Y-125748438D02*
X160525013Y-125692799D01*
X160525013Y-125692799D02*
X160580651Y-125581523D01*
X160580651Y-125581523D02*
X160580651Y-125358971D01*
X160580651Y-125358971D02*
X160525013Y-125247695D01*
X160525013Y-125247695D02*
X160469375Y-125192057D01*
X160469375Y-125192057D02*
X160358099Y-125136418D01*
D12*
X135480680Y-87066516D02*
X135528300Y-87114135D01*
X135528300Y-87114135D02*
X135575919Y-87256992D01*
X135575919Y-87256992D02*
X135575919Y-87352230D01*
X135575919Y-87352230D02*
X135528300Y-87495087D01*
X135528300Y-87495087D02*
X135433061Y-87590325D01*
X135433061Y-87590325D02*
X135337823Y-87637944D01*
X135337823Y-87637944D02*
X135147347Y-87685563D01*
X135147347Y-87685563D02*
X135004490Y-87685563D01*
X135004490Y-87685563D02*
X134814014Y-87637944D01*
X134814014Y-87637944D02*
X134718776Y-87590325D01*
X134718776Y-87590325D02*
X134623538Y-87495087D01*
X134623538Y-87495087D02*
X134575919Y-87352230D01*
X134575919Y-87352230D02*
X134575919Y-87256992D01*
X134575919Y-87256992D02*
X134623538Y-87114135D01*
X134623538Y-87114135D02*
X134671157Y-87066516D01*
X135575919Y-86114135D02*
X135575919Y-86685563D01*
X135575919Y-86399849D02*
X134575919Y-86399849D01*
X134575919Y-86399849D02*
X134718776Y-86495087D01*
X134718776Y-86495087D02*
X134814014Y-86590325D01*
X134814014Y-86590325D02*
X134861633Y-86685563D01*
X152065919Y-86749016D02*
X151589728Y-87082349D01*
X152065919Y-87320444D02*
X151065919Y-87320444D01*
X151065919Y-87320444D02*
X151065919Y-86939492D01*
X151065919Y-86939492D02*
X151113538Y-86844254D01*
X151113538Y-86844254D02*
X151161157Y-86796635D01*
X151161157Y-86796635D02*
X151256395Y-86749016D01*
X151256395Y-86749016D02*
X151399252Y-86749016D01*
X151399252Y-86749016D02*
X151494490Y-86796635D01*
X151494490Y-86796635D02*
X151542109Y-86844254D01*
X151542109Y-86844254D02*
X151589728Y-86939492D01*
X151589728Y-86939492D02*
X151589728Y-87320444D01*
X152065919Y-85796635D02*
X152065919Y-86368063D01*
X152065919Y-86082349D02*
X151065919Y-86082349D01*
X151065919Y-86082349D02*
X151208776Y-86177587D01*
X151208776Y-86177587D02*
X151304014Y-86272825D01*
X151304014Y-86272825D02*
X151351633Y-86368063D01*
X156193419Y-86749016D02*
X155717228Y-87082349D01*
X156193419Y-87320444D02*
X155193419Y-87320444D01*
X155193419Y-87320444D02*
X155193419Y-86939492D01*
X155193419Y-86939492D02*
X155241038Y-86844254D01*
X155241038Y-86844254D02*
X155288657Y-86796635D01*
X155288657Y-86796635D02*
X155383895Y-86749016D01*
X155383895Y-86749016D02*
X155526752Y-86749016D01*
X155526752Y-86749016D02*
X155621990Y-86796635D01*
X155621990Y-86796635D02*
X155669609Y-86844254D01*
X155669609Y-86844254D02*
X155717228Y-86939492D01*
X155717228Y-86939492D02*
X155717228Y-87320444D01*
X155288657Y-86368063D02*
X155241038Y-86320444D01*
X155241038Y-86320444D02*
X155193419Y-86225206D01*
X155193419Y-86225206D02*
X155193419Y-85987111D01*
X155193419Y-85987111D02*
X155241038Y-85891873D01*
X155241038Y-85891873D02*
X155288657Y-85844254D01*
X155288657Y-85844254D02*
X155383895Y-85796635D01*
X155383895Y-85796635D02*
X155479133Y-85796635D01*
X155479133Y-85796635D02*
X155621990Y-85844254D01*
X155621990Y-85844254D02*
X156193419Y-86415682D01*
X156193419Y-86415682D02*
X156193419Y-85796635D01*
X164130919Y-86749016D02*
X163654728Y-87082349D01*
X164130919Y-87320444D02*
X163130919Y-87320444D01*
X163130919Y-87320444D02*
X163130919Y-86939492D01*
X163130919Y-86939492D02*
X163178538Y-86844254D01*
X163178538Y-86844254D02*
X163226157Y-86796635D01*
X163226157Y-86796635D02*
X163321395Y-86749016D01*
X163321395Y-86749016D02*
X163464252Y-86749016D01*
X163464252Y-86749016D02*
X163559490Y-86796635D01*
X163559490Y-86796635D02*
X163607109Y-86844254D01*
X163607109Y-86844254D02*
X163654728Y-86939492D01*
X163654728Y-86939492D02*
X163654728Y-87320444D01*
X163130919Y-86415682D02*
X163130919Y-85796635D01*
X163130919Y-85796635D02*
X163511871Y-86129968D01*
X163511871Y-86129968D02*
X163511871Y-85987111D01*
X163511871Y-85987111D02*
X163559490Y-85891873D01*
X163559490Y-85891873D02*
X163607109Y-85844254D01*
X163607109Y-85844254D02*
X163702347Y-85796635D01*
X163702347Y-85796635D02*
X163940442Y-85796635D01*
X163940442Y-85796635D02*
X164035680Y-85844254D01*
X164035680Y-85844254D02*
X164083300Y-85891873D01*
X164083300Y-85891873D02*
X164130919Y-85987111D01*
X164130919Y-85987111D02*
X164130919Y-86272825D01*
X164130919Y-86272825D02*
X164083300Y-86368063D01*
X164083300Y-86368063D02*
X164035680Y-86415682D01*
D13*
X132955761Y-93277224D02*
X132298618Y-93277224D01*
X132298618Y-93277224D02*
X132298618Y-91897224D01*
X134204332Y-93145795D02*
X134138618Y-93211510D01*
X134138618Y-93211510D02*
X133941475Y-93277224D01*
X133941475Y-93277224D02*
X133810047Y-93277224D01*
X133810047Y-93277224D02*
X133612904Y-93211510D01*
X133612904Y-93211510D02*
X133481475Y-93080081D01*
X133481475Y-93080081D02*
X133415761Y-92948652D01*
X133415761Y-92948652D02*
X133350047Y-92685795D01*
X133350047Y-92685795D02*
X133350047Y-92488652D01*
X133350047Y-92488652D02*
X133415761Y-92225795D01*
X133415761Y-92225795D02*
X133481475Y-92094367D01*
X133481475Y-92094367D02*
X133612904Y-91962938D01*
X133612904Y-91962938D02*
X133810047Y-91897224D01*
X133810047Y-91897224D02*
X133941475Y-91897224D01*
X133941475Y-91897224D02*
X134138618Y-91962938D01*
X134138618Y-91962938D02*
X134204332Y-92028652D01*
X134795761Y-93277224D02*
X134795761Y-91897224D01*
X134795761Y-91897224D02*
X135124332Y-91897224D01*
X135124332Y-91897224D02*
X135321475Y-91962938D01*
X135321475Y-91962938D02*
X135452904Y-92094367D01*
X135452904Y-92094367D02*
X135518618Y-92225795D01*
X135518618Y-92225795D02*
X135584332Y-92488652D01*
X135584332Y-92488652D02*
X135584332Y-92685795D01*
X135584332Y-92685795D02*
X135518618Y-92948652D01*
X135518618Y-92948652D02*
X135452904Y-93080081D01*
X135452904Y-93080081D02*
X135321475Y-93211510D01*
X135321475Y-93211510D02*
X135124332Y-93277224D01*
X135124332Y-93277224D02*
X134795761Y-93277224D01*
X136438618Y-91897224D02*
X136570047Y-91897224D01*
X136570047Y-91897224D02*
X136701475Y-91962938D01*
X136701475Y-91962938D02*
X136767190Y-92028652D01*
X136767190Y-92028652D02*
X136832904Y-92160081D01*
X136832904Y-92160081D02*
X136898618Y-92422938D01*
X136898618Y-92422938D02*
X136898618Y-92751510D01*
X136898618Y-92751510D02*
X136832904Y-93014367D01*
X136832904Y-93014367D02*
X136767190Y-93145795D01*
X136767190Y-93145795D02*
X136701475Y-93211510D01*
X136701475Y-93211510D02*
X136570047Y-93277224D01*
X136570047Y-93277224D02*
X136438618Y-93277224D01*
X136438618Y-93277224D02*
X136307190Y-93211510D01*
X136307190Y-93211510D02*
X136241475Y-93145795D01*
X136241475Y-93145795D02*
X136175761Y-93014367D01*
X136175761Y-93014367D02*
X136110047Y-92751510D01*
X136110047Y-92751510D02*
X136110047Y-92422938D01*
X136110047Y-92422938D02*
X136175761Y-92160081D01*
X136175761Y-92160081D02*
X136241475Y-92028652D01*
X136241475Y-92028652D02*
X136307190Y-91962938D01*
X136307190Y-91962938D02*
X136438618Y-91897224D01*
D14*
X157581193Y-84641222D02*
X157466588Y-84583919D01*
X157466588Y-84583919D02*
X157351983Y-84469315D01*
X157351983Y-84469315D02*
X157180076Y-84297407D01*
X157180076Y-84297407D02*
X157065471Y-84240105D01*
X157065471Y-84240105D02*
X156950867Y-84240105D01*
X157008169Y-84526617D02*
X156893564Y-84469315D01*
X156893564Y-84469315D02*
X156778959Y-84354710D01*
X156778959Y-84354710D02*
X156721657Y-84125500D01*
X156721657Y-84125500D02*
X156721657Y-83724384D01*
X156721657Y-83724384D02*
X156778959Y-83495174D01*
X156778959Y-83495174D02*
X156893564Y-83380569D01*
X156893564Y-83380569D02*
X157008169Y-83323267D01*
X157008169Y-83323267D02*
X157237378Y-83323267D01*
X157237378Y-83323267D02*
X157351983Y-83380569D01*
X157351983Y-83380569D02*
X157466588Y-83495174D01*
X157466588Y-83495174D02*
X157523890Y-83724384D01*
X157523890Y-83724384D02*
X157523890Y-84125500D01*
X157523890Y-84125500D02*
X157466588Y-84354710D01*
X157466588Y-84354710D02*
X157351983Y-84469315D01*
X157351983Y-84469315D02*
X157237378Y-84526617D01*
X157237378Y-84526617D02*
X157008169Y-84526617D01*
X158669938Y-84526617D02*
X157982309Y-84526617D01*
X158326123Y-84526617D02*
X158326123Y-83323267D01*
X158326123Y-83323267D02*
X158211519Y-83495174D01*
X158211519Y-83495174D02*
X158096914Y-83609779D01*
X158096914Y-83609779D02*
X157982309Y-83667081D01*
D13*
%TO.C,C1*%
X134181100Y-86188598D02*
X134181100Y-87611102D01*
X132361100Y-86188598D02*
X132361100Y-87611102D01*
%TO.C,R1*%
X150691100Y-85855286D02*
X150691100Y-87309414D01*
X148871100Y-85855286D02*
X148871100Y-87309414D01*
%TO.C,R2*%
X154818600Y-85855286D02*
X154818600Y-87309414D01*
X152998600Y-85855286D02*
X152998600Y-87309414D01*
%TO.C,R3*%
X162756100Y-85855286D02*
X162756100Y-87309414D01*
X160936100Y-85855286D02*
X160936100Y-87309414D01*
D15*
%TO.C,JP1*%
X138351100Y-124682350D02*
X138351100Y-125952350D01*
X138351100Y-125952350D02*
X138986100Y-126587350D01*
X138986100Y-124047350D02*
X138351100Y-124682350D01*
X138986100Y-124047350D02*
X140256100Y-124047350D01*
X140256100Y-124047350D02*
X140891100Y-124682350D01*
X140256100Y-126587350D02*
X138986100Y-126587350D01*
X140891100Y-124682350D02*
X140891100Y-125952350D01*
X140891100Y-124682350D02*
X141526100Y-124047350D01*
X140891100Y-125952350D02*
X140256100Y-126587350D01*
X141526100Y-124047350D02*
X142796100Y-124047350D01*
X141526100Y-126587350D02*
X140891100Y-125952350D01*
X142796100Y-124047350D02*
X143431100Y-124682350D01*
X142796100Y-126587350D02*
X141526100Y-126587350D01*
X143431100Y-124682350D02*
X143431100Y-125952350D01*
X143431100Y-124682350D02*
X144066100Y-124047350D01*
X143431100Y-125952350D02*
X142796100Y-126587350D01*
X144066100Y-124047350D02*
X145336100Y-124047350D01*
X144066100Y-126587350D02*
X143431100Y-125952350D01*
X145336100Y-124047350D02*
X145971100Y-124682350D01*
X145336100Y-126587350D02*
X144066100Y-126587350D01*
X145971100Y-124682350D02*
X145971100Y-125952350D01*
X145971100Y-125952350D02*
X145336100Y-126587350D01*
X145971100Y-125952350D02*
X146606100Y-126587350D01*
X146606100Y-124047350D02*
X145971100Y-124682350D01*
X146606100Y-124047350D02*
X147876100Y-124047350D01*
X147876100Y-124047350D02*
X148511100Y-124682350D01*
X147876100Y-126587350D02*
X146606100Y-126587350D01*
X148511100Y-124682350D02*
X148511100Y-125952350D01*
X148511100Y-124682350D02*
X149146100Y-124047350D01*
X148511100Y-125952350D02*
X147876100Y-126587350D01*
X149146100Y-124047350D02*
X150416100Y-124047350D01*
X149146100Y-126587350D02*
X148511100Y-125952350D01*
X150416100Y-124047350D02*
X151051100Y-124682350D01*
X150416100Y-126587350D02*
X149146100Y-126587350D01*
X151051100Y-124682350D02*
X151051100Y-125952350D01*
X151051100Y-124682350D02*
X151686100Y-124047350D01*
X151051100Y-125952350D02*
X150416100Y-126587350D01*
X151686100Y-124047350D02*
X152956100Y-124047350D01*
X151686100Y-126587350D02*
X151051100Y-125952350D01*
X152956100Y-124047350D02*
X153591100Y-124682350D01*
X152956100Y-126587350D02*
X151686100Y-126587350D01*
X153591100Y-124682350D02*
X153591100Y-125952350D01*
X153591100Y-125952350D02*
X152956100Y-126587350D01*
X153591100Y-125952350D02*
X154226100Y-126587350D01*
X154226100Y-124047350D02*
X153591100Y-124682350D01*
X154226100Y-124047350D02*
X155496100Y-124047350D01*
X155496100Y-124047350D02*
X156131100Y-124682350D01*
X155496100Y-126587350D02*
X154226100Y-126587350D01*
X156131100Y-124682350D02*
X156131100Y-125952350D01*
X156131100Y-125952350D02*
X155496100Y-126587350D01*
X156131100Y-125952350D02*
X156766100Y-126587350D01*
X156766100Y-124047350D02*
X156131100Y-124682350D01*
X156766100Y-124047350D02*
X158036100Y-124047350D01*
X158036100Y-124047350D02*
X158671100Y-124682350D01*
X158036100Y-126587350D02*
X156766100Y-126587350D01*
X158671100Y-124682350D02*
X158671100Y-125952350D01*
X158671100Y-125952350D02*
X158036100Y-126587350D01*
D16*
%TO.C,LCD0*%
X130731100Y-90392350D02*
X166291100Y-90392350D01*
X130731100Y-122142350D02*
X130731100Y-90392350D01*
X137481100Y-84042350D02*
X137481100Y-88252350D01*
X137481100Y-88252350D02*
X145971100Y-88252350D01*
X145971100Y-84042350D02*
X137481100Y-84042350D01*
X145971100Y-88252350D02*
X145971100Y-84042350D01*
X166291100Y-90392350D02*
X166291100Y-122142350D01*
X166291100Y-122142350D02*
X130731100Y-122142350D01*
%TD*%
M02*
