%TF.GenerationSoftware,KiCad,Pcbnew,9.0.5*%
%TF.CreationDate,2025-10-17T16:28:27+07:00*%
%TF.ProjectId,Nokia 1202 breakout,4e6f6b69-6120-4313-9230-322062726561,rev?*%
%TF.SameCoordinates,Original*%
%TF.FileFunction,Copper,L2,Bot*%
%TF.FilePolarity,Positive*%
%FSLAX46Y46*%
G04 Gerber Fmt 4.6, Leading zero omitted, Abs format (unit mm)*
G04 Created by KiCad (PCBNEW 9.0.5) date 2025-10-17 16:28:27*
%MOMM*%
%LPD*%
G01*
G04 APERTURE LIST*
G04 Aperture macros list*
%AMOutline5P*
0 Free polygon, 5 corners , with rotation*
0 The origin of the aperture is its center*
0 number of corners: always 5*
0 $1 to $10 corner X, Y*
0 $11 Rotation angle, in degrees counterclockwise*
0 create outline with 5 corners*
4,1,5,$1,$2,$3,$4,$5,$6,$7,$8,$9,$10,$1,$2,$11*%
%AMOutline6P*
0 Free polygon, 6 corners , with rotation*
0 The origin of the aperture is its center*
0 number of corners: always 6*
0 $1 to $12 corner X, Y*
0 $13 Rotation angle, in degrees counterclockwise*
0 create outline with 6 corners*
4,1,6,$1,$2,$3,$4,$5,$6,$7,$8,$9,$10,$11,$12,$1,$2,$13*%
%AMOutline7P*
0 Free polygon, 7 corners , with rotation*
0 The origin of the aperture is its center*
0 number of corners: always 7*
0 $1 to $14 corner X, Y*
0 $15 Rotation angle, in degrees counterclockwise*
0 create outline with 7 corners*
4,1,7,$1,$2,$3,$4,$5,$6,$7,$8,$9,$10,$11,$12,$13,$14,$1,$2,$15*%
%AMOutline8P*
0 Free polygon, 8 corners , with rotation*
0 The origin of the aperture is its center*
0 number of corners: always 8*
0 $1 to $16 corner X, Y*
0 $17 Rotation angle, in degrees counterclockwise*
0 create outline with 8 corners*
4,1,8,$1,$2,$3,$4,$5,$6,$7,$8,$9,$10,$11,$12,$13,$14,$15,$16,$1,$2,$17*%
G04 Aperture macros list end*
%TA.AperFunction,ComponentPad*%
%ADD10Outline8P,-0.889000X0.368236X-0.368236X0.889000X0.368236X0.889000X0.889000X0.368236X0.889000X-0.368236X0.368236X-0.889000X-0.368236X-0.889000X-0.889000X-0.368236X90.000000*%
%TD*%
%TA.AperFunction,ViaPad*%
%ADD11C,0.904800*%
%TD*%
G04 APERTURE END LIST*
D10*
%TO.P,JP1,1*%
%TO.N,+3V3*%
X139621100Y-125317350D03*
%TO.P,JP1,2*%
%TO.N,GND*%
X142161100Y-125317350D03*
%TO.P,JP1,3*%
%TO.N,N$1*%
X144701100Y-125317350D03*
%TO.P,JP1,4*%
%TO.N,N$2*%
X147241100Y-125317350D03*
%TO.P,JP1,5*%
%TO.N,N/C*%
X149781100Y-125317350D03*
%TO.P,JP1,6*%
%TO.N,MOSI*%
X152321100Y-125317350D03*
%TO.P,JP1,7*%
%TO.N,SCLK*%
X154861100Y-125317350D03*
%TO.P,JP1,8*%
%TO.N,BL*%
X157401100Y-125317350D03*
%TD*%
D11*
%TO.N,GND*%
X164703600Y-84359850D03*
X169148600Y-88804850D03*
X169148600Y-121189850D03*
X140573600Y-94519850D03*
X127873600Y-88804850D03*
X143748600Y-90709850D03*
X127873600Y-121189850D03*
X132318600Y-125634850D03*
X164703600Y-125634850D03*
%TD*%
%TA.AperFunction,Conductor*%
%TO.N,GND*%
G36*
X169035345Y-81882948D02*
G01*
X169319475Y-81898904D01*
X169326432Y-81899688D01*
X169605263Y-81947063D01*
X169612076Y-81948618D01*
X169883848Y-82026913D01*
X169890432Y-82029216D01*
X170151749Y-82137456D01*
X170158053Y-82140492D01*
X170405575Y-82277291D01*
X170411509Y-82281020D01*
X170642164Y-82444675D01*
X170647640Y-82449042D01*
X170858518Y-82637491D01*
X170863474Y-82642447D01*
X171051923Y-82853318D01*
X171056293Y-82858797D01*
X171219954Y-83089449D01*
X171223683Y-83095384D01*
X171360485Y-83342900D01*
X171363526Y-83349214D01*
X171471758Y-83610499D01*
X171474073Y-83617115D01*
X171552368Y-83888867D01*
X171553928Y-83895700D01*
X171601305Y-84174515D01*
X171602090Y-84181479D01*
X171618002Y-84464715D01*
X171618100Y-84468221D01*
X171618100Y-125538087D01*
X171618002Y-125541593D01*
X171602040Y-125825714D01*
X171601255Y-125832678D01*
X171553879Y-126111488D01*
X171552319Y-126118321D01*
X171474026Y-126390068D01*
X171471711Y-126396684D01*
X171363481Y-126657963D01*
X171360440Y-126664277D01*
X171223641Y-126911789D01*
X171219912Y-126917724D01*
X171056254Y-127148371D01*
X171051884Y-127153850D01*
X170863439Y-127364717D01*
X170858483Y-127369673D01*
X170647613Y-127558115D01*
X170642133Y-127562485D01*
X170411482Y-127726137D01*
X170405548Y-127729866D01*
X170158031Y-127866662D01*
X170151717Y-127869703D01*
X169890434Y-127977929D01*
X169883818Y-127980243D01*
X169612075Y-128058530D01*
X169605242Y-128060090D01*
X169326431Y-128107461D01*
X169319467Y-128108246D01*
X169185420Y-128115774D01*
X169034441Y-128124252D01*
X169030963Y-128124350D01*
X127970359Y-128124350D01*
X127966855Y-128124252D01*
X127943902Y-128122962D01*
X127682727Y-128108295D01*
X127675763Y-128107510D01*
X127396946Y-128060138D01*
X127390113Y-128058578D01*
X127118364Y-127980290D01*
X127111757Y-127977979D01*
X126850457Y-127869747D01*
X126844146Y-127866707D01*
X126596624Y-127729908D01*
X126590690Y-127726179D01*
X126360035Y-127562524D01*
X126354555Y-127558154D01*
X126354511Y-127558115D01*
X126143678Y-127369705D01*
X126138725Y-127364752D01*
X125950276Y-127153881D01*
X125945906Y-127148402D01*
X125782245Y-126917750D01*
X125778516Y-126911815D01*
X125766842Y-126890694D01*
X125641710Y-126664292D01*
X125638673Y-126657985D01*
X125629677Y-126636267D01*
X125530435Y-126396684D01*
X125528129Y-126390094D01*
X125449828Y-126118321D01*
X125448271Y-126111499D01*
X125448269Y-126111488D01*
X125400893Y-125832678D01*
X125400109Y-125825719D01*
X125390776Y-125659588D01*
X125384198Y-125542483D01*
X125384100Y-125538978D01*
X125384100Y-125202611D01*
X126440600Y-125202611D01*
X126440600Y-125432088D01*
X126470552Y-125659590D01*
X126470552Y-125659592D01*
X126529940Y-125881231D01*
X126617753Y-126093232D01*
X126617759Y-126093244D01*
X126632244Y-126118332D01*
X126732489Y-126291962D01*
X126872181Y-126474011D01*
X127034439Y-126636269D01*
X127216488Y-126775961D01*
X127415212Y-126890694D01*
X127627213Y-126978508D01*
X127848862Y-127037898D01*
X128076366Y-127067850D01*
X128076372Y-127067850D01*
X128305828Y-127067850D01*
X128305834Y-127067850D01*
X128533338Y-127037898D01*
X128754987Y-126978508D01*
X128966988Y-126890694D01*
X129165712Y-126775961D01*
X129347761Y-126636269D01*
X129510019Y-126474011D01*
X129649711Y-126291962D01*
X129764444Y-126093238D01*
X129852258Y-125881237D01*
X129911648Y-125659588D01*
X129941600Y-125432084D01*
X129941600Y-125202616D01*
X129911648Y-124975112D01*
X129911647Y-124975107D01*
X129911647Y-124975106D01*
X129888716Y-124889525D01*
X129887713Y-124885780D01*
X138579200Y-124885780D01*
X138579200Y-124885781D01*
X138579200Y-125748920D01*
X139189531Y-126359250D01*
X140052670Y-126359250D01*
X140663000Y-125748919D01*
X140663000Y-124885780D01*
X143659200Y-124885780D01*
X143659200Y-124885781D01*
X143659200Y-125748920D01*
X144269531Y-126359250D01*
X145132670Y-126359250D01*
X145743000Y-125748919D01*
X145743000Y-124885780D01*
X146199200Y-124885780D01*
X146199200Y-124885781D01*
X146199200Y-125748920D01*
X146809531Y-126359250D01*
X147672670Y-126359250D01*
X148283000Y-125748919D01*
X148283000Y-124885780D01*
X148739200Y-124885780D01*
X148739200Y-124885781D01*
X148739200Y-125748920D01*
X149349531Y-126359250D01*
X150212670Y-126359250D01*
X150823000Y-125748919D01*
X150823000Y-124885780D01*
X151279200Y-124885780D01*
X151279200Y-124885781D01*
X151279200Y-125748920D01*
X151889531Y-126359250D01*
X152752670Y-126359250D01*
X153363000Y-125748919D01*
X153363000Y-124885780D01*
X153819200Y-124885780D01*
X153819200Y-124885781D01*
X153819200Y-125748920D01*
X154429531Y-126359250D01*
X155292670Y-126359250D01*
X155903000Y-125748919D01*
X155903000Y-124885780D01*
X156359200Y-124885780D01*
X156359200Y-124885781D01*
X156359200Y-125748920D01*
X156969531Y-126359250D01*
X157832670Y-126359250D01*
X158443000Y-125748919D01*
X158443000Y-125202611D01*
X167080600Y-125202611D01*
X167080600Y-125432088D01*
X167110552Y-125659590D01*
X167110552Y-125659592D01*
X167169940Y-125881231D01*
X167257753Y-126093232D01*
X167257759Y-126093244D01*
X167272244Y-126118332D01*
X167372489Y-126291962D01*
X167512181Y-126474011D01*
X167674439Y-126636269D01*
X167856488Y-126775961D01*
X168055212Y-126890694D01*
X168267213Y-126978508D01*
X168488862Y-127037898D01*
X168716366Y-127067850D01*
X168716372Y-127067850D01*
X168945828Y-127067850D01*
X168945834Y-127067850D01*
X169173338Y-127037898D01*
X169394987Y-126978508D01*
X169606988Y-126890694D01*
X169805712Y-126775961D01*
X169987761Y-126636269D01*
X170150019Y-126474011D01*
X170289711Y-126291962D01*
X170404444Y-126093238D01*
X170492258Y-125881237D01*
X170551648Y-125659588D01*
X170581600Y-125432084D01*
X170581600Y-125202616D01*
X170551648Y-124975112D01*
X170551646Y-124975106D01*
X170492259Y-124753468D01*
X170492258Y-124753463D01*
X170404444Y-124541462D01*
X170289711Y-124342738D01*
X170150019Y-124160689D01*
X169987761Y-123998431D01*
X169805712Y-123858739D01*
X169789416Y-123849330D01*
X169606994Y-123744009D01*
X169606982Y-123744003D01*
X169497863Y-123698804D01*
X169394987Y-123656192D01*
X169394983Y-123656191D01*
X169394981Y-123656190D01*
X169394982Y-123656190D01*
X169173341Y-123596802D01*
X168945838Y-123566850D01*
X168945834Y-123566850D01*
X168716366Y-123566850D01*
X168716361Y-123566850D01*
X168488859Y-123596802D01*
X168488857Y-123596802D01*
X168267218Y-123656190D01*
X168055217Y-123744003D01*
X168055205Y-123744009D01*
X167856494Y-123858735D01*
X167856491Y-123858737D01*
X167856488Y-123858739D01*
X167759923Y-123932836D01*
X167674437Y-123998432D01*
X167512182Y-124160687D01*
X167446586Y-124246173D01*
X167372489Y-124342738D01*
X167372487Y-124342741D01*
X167372485Y-124342744D01*
X167257759Y-124541455D01*
X167257753Y-124541467D01*
X167169940Y-124753468D01*
X167110552Y-124975107D01*
X167110552Y-124975109D01*
X167080600Y-125202611D01*
X158443000Y-125202611D01*
X158443000Y-124885780D01*
X157832669Y-124275450D01*
X156969530Y-124275450D01*
X156359200Y-124885780D01*
X155903000Y-124885780D01*
X155292669Y-124275450D01*
X154429530Y-124275450D01*
X153819200Y-124885780D01*
X153363000Y-124885780D01*
X152752669Y-124275450D01*
X151889530Y-124275450D01*
X151279200Y-124885780D01*
X150823000Y-124885780D01*
X150212669Y-124275450D01*
X149349530Y-124275450D01*
X148739200Y-124885780D01*
X148283000Y-124885780D01*
X147672669Y-124275450D01*
X146809530Y-124275450D01*
X146199200Y-124885780D01*
X145743000Y-124885780D01*
X145132669Y-124275450D01*
X144269530Y-124275450D01*
X143659200Y-124885780D01*
X140663000Y-124885780D01*
X140052669Y-124275450D01*
X139189530Y-124275450D01*
X138579200Y-124885780D01*
X129887713Y-124885780D01*
X129852259Y-124753468D01*
X129852258Y-124753463D01*
X129764444Y-124541462D01*
X129649711Y-124342738D01*
X129510019Y-124160689D01*
X129347761Y-123998431D01*
X129165712Y-123858739D01*
X129149416Y-123849330D01*
X128966994Y-123744009D01*
X128966982Y-123744003D01*
X128857863Y-123698804D01*
X128754987Y-123656192D01*
X128754983Y-123656191D01*
X128754981Y-123656190D01*
X128754982Y-123656190D01*
X128533341Y-123596802D01*
X128305838Y-123566850D01*
X128305834Y-123566850D01*
X128076366Y-123566850D01*
X128076361Y-123566850D01*
X127848859Y-123596802D01*
X127848857Y-123596802D01*
X127627218Y-123656190D01*
X127415217Y-123744003D01*
X127415205Y-123744009D01*
X127216494Y-123858735D01*
X127216491Y-123858737D01*
X127216488Y-123858739D01*
X127119923Y-123932836D01*
X127034437Y-123998432D01*
X126872182Y-124160687D01*
X126806586Y-124246173D01*
X126732489Y-124342738D01*
X126732487Y-124342741D01*
X126732485Y-124342744D01*
X126617759Y-124541455D01*
X126617753Y-124541467D01*
X126529940Y-124753468D01*
X126470552Y-124975107D01*
X126470552Y-124975109D01*
X126440600Y-125202611D01*
X125384100Y-125202611D01*
X125384100Y-84562611D01*
X126440600Y-84562611D01*
X126440600Y-84792088D01*
X126470552Y-85019590D01*
X126470552Y-85019592D01*
X126529940Y-85241231D01*
X126617753Y-85453232D01*
X126617756Y-85453238D01*
X126732489Y-85651962D01*
X126872181Y-85834011D01*
X127034439Y-85996269D01*
X127216488Y-86135961D01*
X127415212Y-86250694D01*
X127627213Y-86338508D01*
X127848862Y-86397898D01*
X128076366Y-86427850D01*
X128076372Y-86427850D01*
X128305828Y-86427850D01*
X128305834Y-86427850D01*
X128533338Y-86397898D01*
X128754987Y-86338508D01*
X128966988Y-86250694D01*
X129165712Y-86135961D01*
X129347761Y-85996269D01*
X129510019Y-85834011D01*
X129649711Y-85651962D01*
X129764444Y-85453238D01*
X129852258Y-85241237D01*
X129911648Y-85019588D01*
X129941600Y-84792084D01*
X129941600Y-84562616D01*
X129941599Y-84562611D01*
X167080600Y-84562611D01*
X167080600Y-84792088D01*
X167110552Y-85019590D01*
X167110552Y-85019592D01*
X167169940Y-85241231D01*
X167257753Y-85453232D01*
X167257756Y-85453238D01*
X167372489Y-85651962D01*
X167512181Y-85834011D01*
X167674439Y-85996269D01*
X167856488Y-86135961D01*
X168055212Y-86250694D01*
X168267213Y-86338508D01*
X168488862Y-86397898D01*
X168716366Y-86427850D01*
X168716372Y-86427850D01*
X168945828Y-86427850D01*
X168945834Y-86427850D01*
X169173338Y-86397898D01*
X169394987Y-86338508D01*
X169606988Y-86250694D01*
X169805712Y-86135961D01*
X169987761Y-85996269D01*
X170150019Y-85834011D01*
X170289711Y-85651962D01*
X170404444Y-85453238D01*
X170492258Y-85241237D01*
X170551648Y-85019588D01*
X170581600Y-84792084D01*
X170581600Y-84562616D01*
X170551648Y-84335112D01*
X170492258Y-84113463D01*
X170404444Y-83901462D01*
X170289711Y-83702738D01*
X170150019Y-83520689D01*
X169987761Y-83358431D01*
X169805712Y-83218739D01*
X169714878Y-83166296D01*
X169606994Y-83104009D01*
X169606982Y-83104003D01*
X169497863Y-83058804D01*
X169394987Y-83016192D01*
X169394983Y-83016191D01*
X169394981Y-83016190D01*
X169394982Y-83016190D01*
X169173341Y-82956802D01*
X168945838Y-82926850D01*
X168945834Y-82926850D01*
X168716366Y-82926850D01*
X168716361Y-82926850D01*
X168488859Y-82956802D01*
X168488857Y-82956802D01*
X168267218Y-83016190D01*
X168055217Y-83104003D01*
X168055205Y-83104009D01*
X167856494Y-83218735D01*
X167856491Y-83218737D01*
X167856488Y-83218739D01*
X167759923Y-83292836D01*
X167674437Y-83358432D01*
X167512182Y-83520687D01*
X167446586Y-83606173D01*
X167372489Y-83702738D01*
X167372487Y-83702741D01*
X167372485Y-83702744D01*
X167257759Y-83901455D01*
X167257753Y-83901467D01*
X167169940Y-84113468D01*
X167110552Y-84335107D01*
X167110552Y-84335109D01*
X167080600Y-84562611D01*
X129941599Y-84562611D01*
X129911648Y-84335112D01*
X129852258Y-84113463D01*
X129764444Y-83901462D01*
X129649711Y-83702738D01*
X129510019Y-83520689D01*
X129347761Y-83358431D01*
X129165712Y-83218739D01*
X129074878Y-83166296D01*
X128966994Y-83104009D01*
X128966982Y-83104003D01*
X128857863Y-83058804D01*
X128754987Y-83016192D01*
X128754983Y-83016191D01*
X128754981Y-83016190D01*
X128754982Y-83016190D01*
X128533341Y-82956802D01*
X128305838Y-82926850D01*
X128305834Y-82926850D01*
X128076366Y-82926850D01*
X128076361Y-82926850D01*
X127848859Y-82956802D01*
X127848857Y-82956802D01*
X127627218Y-83016190D01*
X127415217Y-83104003D01*
X127415205Y-83104009D01*
X127216494Y-83218735D01*
X127216491Y-83218737D01*
X127216488Y-83218739D01*
X127119923Y-83292836D01*
X127034437Y-83358432D01*
X126872182Y-83520687D01*
X126806586Y-83606173D01*
X126732489Y-83702738D01*
X126732487Y-83702741D01*
X126732485Y-83702744D01*
X126617759Y-83901455D01*
X126617753Y-83901467D01*
X126529940Y-84113468D01*
X126470552Y-84335107D01*
X126470552Y-84335109D01*
X126440600Y-84562611D01*
X125384100Y-84562611D01*
X125384100Y-84469110D01*
X125384198Y-84465604D01*
X125400159Y-84181485D01*
X125400944Y-84174521D01*
X125400945Y-84174515D01*
X125448322Y-83895701D01*
X125449877Y-83888889D01*
X125528179Y-83617115D01*
X125530482Y-83610529D01*
X125638724Y-83349222D01*
X125641752Y-83342935D01*
X125778566Y-83095396D01*
X125782278Y-83089487D01*
X125945948Y-82858823D01*
X125950315Y-82853349D01*
X125950343Y-82853318D01*
X126138771Y-82642470D01*
X126143704Y-82637537D01*
X126354598Y-82449073D01*
X126360060Y-82444718D01*
X126590717Y-82281062D01*
X126596642Y-82277338D01*
X126844179Y-82140531D01*
X126850465Y-82137504D01*
X127111790Y-82029261D01*
X127118362Y-82026962D01*
X127390138Y-81948665D01*
X127396943Y-81947112D01*
X127675774Y-81899737D01*
X127682726Y-81898953D01*
X127967757Y-81882947D01*
X127971237Y-81882850D01*
X127985008Y-81882850D01*
X169017192Y-81882850D01*
X169031841Y-81882850D01*
X169035345Y-81882948D01*
G37*
%TD.AperFunction*%
%TD*%
M02*
